<?xml version="1.0" encoding="utf-8" ?><svg xmlns="http://www.w3.org/2000/svg" xmlns:xlink="http://www.w3.org/1999/xlink" width="896" height="1190" viewBox="0 0 896 1190"><path fill="#FFFEFD" transform="scale(0.875 0.875)" d="M0 0L1024 0L1024 459.787L1024 469.187L1024 635.5L1024 638.997L1024 997.452L1024 1017.31L1024 1017.96L1024 1360L0 1360L0 1207.9L0 1178.05L0 1130.56L0 1116.29L0 944.403L0 942.418L0 877.193L0 872.478L0 809.264L0 805.475L0 762.96L0 735.548L0 705.345L0 695.197L0 688.364L0 672.912L0 621.339L0 604.82L0 426.866L0 417.795L0 0Z"/><path fill="#A7A4A4" transform="scale(0.875 0.875)" d="M613.379 329.253C614.193 327.247 616.282 325.839 618.015 324.365C621.726 329.826 622.569 325.55 628.558 328.05L630.379 327.649L630.658 328.409C632.522 328.893 636.077 326.87 638.811 326.196L639.322 326.075L638.166 328.95C632.546 334.028 629.949 336.375 623.06 339.769C620.992 339.478 619.438 339.068 617.53 338.151C614.81 336.844 612.692 339.228 609.629 339.788C607.414 338.628 608.143 339.121 606.865 336.367L606.062 336.831L604.808 336.326C604.863 333.576 606.555 332.644 607.782 330.217L608.23 329.316C609.496 328.681 611.813 329.127 613.379 329.253Z"/><path fill="#B6B5B5" transform="scale(0.875 0.875)" d="M608.23 329.316C609.496 328.681 611.813 329.127 613.379 329.253C613.872 331.764 613.996 330.786 613.204 333.162C611.014 335.231 609.746 335.271 606.865 336.367L606.062 336.831L604.808 336.326C604.863 333.576 606.555 332.644 607.782 330.217L608.23 329.316Z"/><path fill="#D7D4D6" transform="scale(0.875 0.875)" d="M922.091 729.698C924.52 726.796 928.186 721.748 930.672 719.323C942.123 708.12 955.36 698.186 966.772 687.023C985.015 669.177 997.858 646.405 1024 638.997L1024 997.452L1024 1017.31L1024 1017.96L1024 1360L0 1360L0 1207.9L0 1178.05L122.466 1177.66C127.971 1171.35 133.793 1164.4 139.418 1158.27L139.536 1202.08C143.205 1202.09 155.999 1202.32 160.305 1201.73C160.719 1201.33 161.133 1200.93 161.546 1200.54C165.079 1197.05 169.735 1191.65 173.189 1187.88C173.034 1161.72 173.035 1135.55 173.192 1109.39C187.398 1094.52 212.305 1069.29 226.859 1052.79C227.005 1051.72 227.129 1050.8 227.231 1050.04C244.253 1049.78 261.278 1049.81 278.3 1050.11C278.083 1040.27 277.729 1027.13 278.499 1017.41C280.147 1029.34 271.909 1064.29 293.03 1050.09C293.079 1043.14 292.582 1023.18 293.42 1017.43L385.163 1017.37L386.828 1062.68C387.509 1080.57 388.339 1093.78 384.634 1111.51C383.641 1116.27 387.19 1127.8 386.612 1133.23C386.432 1139.96 384.162 1146.54 385.445 1153.44C407.562 1137.54 423.47 1176.28 451.332 1157C452.276 1156.35 453.199 1155.67 454.099 1154.96C455.157 1163.79 456.192 1173.06 456.477 1181.95C457.473 1183.03 457.291 1183.31 458.797 1183.23C465.348 1182.88 471.703 1182.55 478.276 1182.39C493.569 1182 508.868 1181.9 524.165 1182.07C537.097 1182.22 550.025 1182.62 562.942 1183.27C566.76 1183.48 585.222 1184.84 587.967 1184.44C588.178 1184.02 588.75 1182.95 588.892 1182.56C589.425 1174.57 589.893 1165.63 590.922 1157.76C592.508 1158.94 594.174 1160.01 595.909 1160.96C611.207 1169.4 629.659 1154.08 643.952 1149.87C649.31 1148.3 651.357 1148.69 655.889 1151.26C657.938 1135.09 657.335 1129.39 651.057 1114.86C655.094 1094.42 651.664 1088.34 650.756 1067.81C650.007 1050.88 649.157 1034.41 648.005 1017.43C647.041 1012.52 646.29 1002.61 645.786 997.413L847.443 997.411C841.949 966.592 837.793 935.549 834.987 904.37C834.107 894.257 828.041 832.738 833.157 827.399C841.851 818.326 878.549 817.899 890.838 817.592L891.249 820.137C891.556 826.491 891.824 832.848 892.05 839.206L891.946 839.895L896.973 840.097C899.392 840.173 902.506 840.188 904.863 840.363L905.769 840.147L912.329 840.098L912.603 834.072C912.592 831.958 911.641 820.87 910.483 819.571C910.058 808.762 911.368 794.664 911.61 783.454C912.866 764.48 914.948 748.274 919.382 729.77L921.148 728.885L922.091 729.698Z"/><path fill="#B6B5B5" transform="scale(0.875 0.875)" d="M590.922 1157.76C592.508 1158.94 594.174 1160.01 595.909 1160.96C611.207 1169.4 629.659 1154.08 643.952 1149.87C649.31 1148.3 651.357 1148.69 655.889 1151.26C662.573 1162.55 667.531 1170.42 675.78 1180.66C686.952 1194.53 700.749 1201.34 706.921 1218.27C718.398 1221.74 747.258 1236.23 721.293 1244.99C695.38 1253.73 664.183 1254.14 637.813 1247.19C619.204 1241.89 601.069 1235.09 581.783 1232.41C550.366 1227.89 517.861 1229.06 486.293 1229.61C456.158 1230.14 432.177 1238.02 404.013 1247.22C389.513 1251.95 360.743 1253.96 346.025 1249.92C343.299 1249.17 340.642 1248.19 338.081 1247C328.922 1242.71 320.128 1234.24 316.236 1224.74C310.418 1210.55 337.539 1202.37 348.023 1199.54C360.7 1189.8 378.705 1167.88 385.445 1153.44C407.562 1137.54 423.47 1176.28 451.332 1157C452.276 1156.35 453.199 1155.67 454.099 1154.96C455.157 1163.79 456.192 1173.06 456.477 1181.95C457.473 1183.03 457.291 1183.31 458.797 1183.23C465.348 1182.88 471.703 1182.55 478.276 1182.39C493.569 1182 508.868 1181.9 524.165 1182.07C537.097 1182.22 550.025 1182.62 562.942 1183.27C566.76 1183.48 585.222 1184.84 587.967 1184.44C588.178 1184.02 588.75 1182.95 588.892 1182.56C589.425 1174.57 589.893 1165.63 590.922 1157.76Z"/><path fill="#242C34" transform="scale(0.875 0.875)" d="M385.445 1153.44C407.562 1137.54 423.47 1176.28 451.332 1157C452.276 1156.35 453.199 1155.67 454.099 1154.96C455.157 1163.79 456.192 1173.06 456.477 1181.95C456.44 1183.58 456.594 1184.68 456.059 1186.16C446.107 1195.5 436.129 1196.56 426.033 1203.46C412.528 1212.68 411.509 1224.47 393.283 1229.77C376.585 1234.62 363.09 1235.03 345.852 1232.1C340.965 1231.32 337.27 1231.24 333.768 1227.32C336.787 1213.72 338.893 1209.63 348.023 1199.54C360.7 1189.8 378.705 1167.88 385.445 1153.44Z"/><path fill="#6E6D6D" transform="scale(0.875 0.875)" d="M380.666 1167.67C390.032 1166.8 398.216 1168.94 405.074 1175.56L404.309 1176.94L402.718 1177.31C399.073 1174.82 396.117 1173.15 391.867 1171.82C388.44 1170.74 380.277 1171.68 378.245 1170.07C378.637 1168.53 378.873 1168.84 380.666 1167.67Z"/><path fill="#6E6D6D" transform="scale(0.875 0.875)" d="M386.696 1158.19C394.187 1157.98 406.851 1159.67 410.642 1167.15L409.923 1168.44L410.591 1167.14L409.547 1168.48L408.66 1168.46C398.549 1160.87 396.738 1162.04 384.462 1161.44L383.644 1160.45C384.528 1158.87 384.719 1159.19 386.696 1158.19Z"/><path fill="#6E6D6D" transform="scale(0.875 0.875)" d="M374.443 1176.82C380.569 1176.27 397.578 1177.64 398.739 1185.11L397.479 1186.66C391.449 1182.62 387.752 1180.46 380.305 1180.14C377.653 1180.02 375.167 1179.93 372.619 1179.16L372.595 1178.46L374.443 1176.82Z"/><path fill="#6E6D6D" transform="scale(0.875 0.875)" d="M366.349 1186.21C373.714 1185.46 386.814 1185.9 391.908 1192.03C392.455 1194.53 392.67 1193.42 391.387 1195.5C380.096 1187.55 377.819 1190.03 365.879 1188.48L365.409 1187.73L366.349 1186.21Z"/><path fill="#242C34" transform="scale(0.875 0.875)" d="M590.922 1157.76C592.508 1158.94 594.174 1160.01 595.909 1160.96C611.207 1169.4 629.659 1154.08 643.952 1149.87C649.31 1148.3 651.357 1148.69 655.889 1151.26C662.573 1162.55 667.531 1170.42 675.78 1180.66C686.952 1194.53 700.749 1201.34 706.921 1218.27C707.285 1220.81 707.831 1223.68 707.725 1226.21C707.351 1226.81 706.553 1228.08 706.049 1228.56C701.015 1233.35 682.994 1234.49 676.197 1234.53C662.296 1234.63 640.719 1230.7 631.346 1219.45C627.152 1214.42 622.35 1207.03 616.835 1203.42C605.936 1196.29 599.01 1195.75 589.243 1186.01L588.892 1182.56C589.425 1174.57 589.893 1165.63 590.922 1157.76Z"/><path fill="#6E6D6D" transform="scale(0.875 0.875)" d="M651.362 1167.52C655.162 1167 660.156 1166.95 663.476 1169.06C661.042 1171.49 652.036 1171.09 646.953 1172.8L646.253 1173.04C643.318 1174.66 641.371 1176.49 638.372 1176.41L637.758 1175.65C640.501 1170.65 646.254 1168.89 651.362 1167.52Z"/><path fill="#6E6D6D" transform="scale(0.875 0.875)" d="M645.99 1158.23C650.888 1157.85 653.636 1157.13 657.932 1159.48L657.909 1160.25C653.809 1162.13 647.358 1161.52 641.293 1163.45L640.438 1163.72C638.015 1165.37 635.664 1167.49 632.924 1167.5L632.332 1166.54C635.251 1161.26 640.577 1159.69 645.99 1158.23Z"/><path fill="#6E6D6D" transform="scale(0.875 0.875)" d="M661.797 1176.31C663.907 1176.39 665.43 1176.72 667.494 1177.11L667.238 1177.15L669.01 1177.88C667.991 1180.07 655.712 1180.44 649.771 1183.33L649.071 1183.68C646.744 1185.11 646.384 1185.86 643.941 1185.85L643.486 1184.62C646.456 1178.63 655.815 1176.83 661.797 1176.31Z"/><path fill="#6E6D6D" transform="scale(0.875 0.875)" d="M662.699 1186.15C666.118 1185.83 673.179 1185.23 676.21 1187.14C674.347 1188.78 662.735 1189.83 659.271 1190.45C655.043 1191.81 652.751 1195.32 648.546 1194.27L649.278 1194.8L648.662 1193.85C652.795 1188.65 656.574 1187.42 662.699 1186.15Z"/><path fill="#E1E0E0" transform="scale(0.875 0.875)" d="M456.059 1186.16C458.638 1194 455.702 1199.06 452.553 1205.56C443.205 1209.97 433.731 1212.69 424.753 1217.71C417.918 1221.54 414.453 1231.19 408.446 1234.83C389.023 1246.58 353.679 1246.55 333.769 1237.33C332.469 1234.85 331.851 1229.62 333.768 1227.32C337.27 1231.24 340.965 1231.32 345.852 1232.1C363.09 1235.03 376.585 1234.62 393.283 1229.77C411.509 1224.47 412.528 1212.68 426.033 1203.46C436.129 1196.56 446.107 1195.5 456.059 1186.16Z"/><path fill="#E1E0E0" transform="scale(0.875 0.875)" d="M589.243 1186.01C599.01 1195.75 605.936 1196.29 616.835 1203.42C622.35 1207.03 627.152 1214.42 631.346 1219.45C640.719 1230.7 662.296 1234.63 676.197 1234.53C682.994 1234.49 701.015 1233.35 706.049 1228.56C706.553 1228.08 707.351 1226.81 707.725 1226.21L708.468 1226.47C709.439 1230.17 708.918 1234.59 706.963 1237.89C703.215 1239.73 699.906 1240.98 695.714 1242.03C678.529 1246.36 645.787 1245.46 631.703 1233.7C627.927 1230.55 623.072 1220.8 617.508 1217.35C609.108 1212.14 600.927 1210.47 592.365 1205.29C588.435 1197.37 588.614 1194.85 589.243 1186.01Z"/><path fill="#242C34" transform="scale(0.875 0.875)" d="M333.769 1237.33C353.679 1246.55 389.023 1246.58 408.446 1234.83C414.453 1231.19 417.918 1221.54 424.753 1217.71C433.731 1212.69 443.205 1209.97 452.553 1205.56C450.677 1211.16 430.91 1215.48 425.664 1219.15C418.404 1224.23 415.76 1231.59 409.006 1236.92C393.268 1247.38 361.28 1248.93 343.224 1243.72C339.761 1242.72 335.339 1240.45 333.769 1237.33Z"/><path fill="#242C34" transform="scale(0.875 0.875)" d="M592.365 1205.29C600.927 1210.47 609.108 1212.14 617.508 1217.35C623.072 1220.8 627.927 1230.55 631.703 1233.7C645.787 1245.46 678.529 1246.36 695.714 1242.03C699.906 1240.98 703.215 1239.73 706.963 1237.89C705.984 1241.36 698.918 1244.23 695.541 1244.92C677.493 1248.65 659.686 1247.42 642.193 1242.06C626.747 1237.33 627.666 1227.44 616.325 1218.76C610.725 1214.48 595.921 1212.58 592.365 1205.29Z"/><path fill="#FFFEFD" transform="scale(0.875 0.875)" d="M922.091 729.698C924.52 726.796 928.186 721.748 930.672 719.323C942.123 708.12 955.36 698.186 966.772 687.023C985.015 669.177 997.858 646.405 1024 638.997L1024 997.452L957.9 997.42C963.811 963.148 970.228 929.814 972.941 895.04C974.615 873.584 975.708 852.627 976.491 831.122C976.163 828.726 975.212 826.89 973.151 825.67C963.197 819.777 927.893 816.308 918.445 818.034C918.094 825.439 917.623 832.838 917.033 840.229L913.719 839.962L912.329 840.098L912.603 834.072C912.592 831.958 911.641 820.87 910.483 819.571C910.058 808.762 911.368 794.664 911.61 783.454C912.866 764.48 914.948 748.274 919.382 729.77L921.148 728.885L922.091 729.698Z"/><path fill="#5F8932" transform="scale(0.875 0.875)" d="M915.327 820.014C917.347 808.738 919.437 796.601 920.89 785.266C923.162 767.801 921.16 748.464 931.681 733.149C951.719 703.981 985.708 702.832 1013.43 720.315C996.059 717.506 980.911 716.618 965.484 726.47C960.046 729.996 955.173 734.326 951.031 739.312C942.881 748.961 927.787 774.828 923.631 787.055C921.332 793.821 920.516 809.174 918.63 817.262L918.445 818.034C918.094 825.439 917.623 832.838 917.033 840.229L913.719 839.962L912.329 840.098L912.603 834.072C913.065 829.841 913.051 824.267 913.162 819.915L915.327 820.014Z"/><path fill="#807F7F" transform="scale(0.875 0.875)" d="M913.162 819.915L915.327 820.014L913.719 839.962L912.329 840.098L912.603 834.072C913.065 829.841 913.051 824.267 913.162 819.915Z"/><path fill="#4A7226" transform="scale(0.875 0.875)" d="M919.382 729.77L921.148 728.885L922.091 729.698C915.551 747.362 912.558 799.786 913.162 819.915C913.051 824.267 913.065 829.841 912.603 834.072C912.592 831.958 911.641 820.87 910.483 819.571C910.058 808.762 911.368 794.664 911.61 783.454C912.866 764.48 914.948 748.274 919.382 729.77Z"/><path fill="#B6B5B5" transform="scale(0.875 0.875)" d="M278.499 1017.41C280.147 1029.34 271.909 1064.29 293.03 1050.09C293.079 1043.14 292.582 1023.18 293.42 1017.43C293.721 1021.4 293.57 1049.18 294.072 1050.01L295.83 1050.57C293.439 1054.9 285.988 1063.21 282.555 1067.19L261.244 1092.03L195.46 1169.64C185.366 1181.57 172.717 1195.74 163.143 1207.86L0 1207.9L0 1178.05L122.466 1177.66C127.971 1171.35 133.793 1164.4 139.418 1158.27L139.536 1202.08C143.205 1202.09 155.999 1202.32 160.305 1201.73C160.719 1201.33 161.133 1200.93 161.546 1200.54C165.079 1197.05 169.735 1191.65 173.189 1187.88C173.034 1161.72 173.035 1135.55 173.192 1109.39C187.398 1094.52 212.305 1069.29 226.859 1052.79C227.005 1051.72 227.129 1050.8 227.231 1050.04C244.253 1049.78 261.278 1049.81 278.3 1050.11C278.083 1040.27 277.729 1027.13 278.499 1017.41Z"/><path fill="#B6B5B5" transform="scale(0.875 0.875)" d="M946.291 840.843C957.643 839.543 967.206 838.263 976.491 831.122C975.708 852.627 974.615 873.584 972.941 895.04C970.228 929.814 963.811 963.148 957.9 997.42L1024 997.452L1024 1017.31L1024 1017.96C1000.44 1018.05 976.881 1018 953.323 1017.81L951.039 1027.69C955.645 1029.42 965.495 1032.18 964.773 1038.52C964.574 1040.27 961.844 1043.01 960.356 1043.62C928.878 1056.41 888.302 1054.09 855.357 1048.13C833.671 1044 829.372 1033.43 853.795 1027.27C853.945 1028.56 854.726 1034.3 855.337 1035.08C866.033 1048.63 908.361 1046.04 921.174 1045.58C934.664 977.167 945.914 911.004 946.291 840.843Z"/><path fill="#363E49" transform="scale(0.875 0.875)" d="M957.9 997.42L1024 997.452L1024 1017.31L953.764 1017.29L957.9 997.42Z"/><path fill="#363E49" transform="scale(0.875 0.875)" d="M645.786 997.413L847.443 997.411C848.725 1002.26 850.327 1012.2 851.038 1017.34L648.005 1017.43C647.041 1012.52 646.29 1002.61 645.786 997.413Z"/><path fill="#807F7F" transform="scale(0.875 0.875)" d="M891.946 839.895C882.757 839.125 842.476 838.06 837.931 829.775L838.676 828.405C847.77 821.618 878.737 820.938 891.249 820.137C891.556 826.491 891.824 832.848 892.05 839.206L891.946 839.895Z"/><path fill="#807F7F" transform="scale(0.875 0.875)" d="M917.033 840.229C917.623 832.838 918.094 825.439 918.445 818.034L919.013 819.588C925.771 821.613 970.591 820.759 968.405 830.609C959.353 840.336 928.49 838.013 917.033 840.229Z"/><path fill="#06386E" transform="scale(0.875 0.875)" d="M392.055 636.216C452.715 670.107 532.006 678.075 599.109 661.753L599.989 663.219C605.505 700.243 609.392 737.491 611.639 774.856C613.504 801.559 613.789 833.033 619.478 858.666C629.701 904.732 639.142 950.67 645.786 997.413C646.29 1002.61 647.041 1012.52 648.005 1017.43C649.157 1034.41 650.007 1050.88 650.756 1067.81C651.664 1088.34 655.094 1094.42 651.057 1114.86C657.335 1129.39 657.938 1135.09 655.889 1151.26C651.357 1148.69 649.31 1148.3 643.952 1149.87C629.659 1154.08 611.207 1169.4 595.909 1160.96C594.174 1160.01 592.508 1158.94 590.922 1157.76C589.893 1165.63 589.425 1174.57 588.892 1182.56C588.75 1182.95 588.178 1184.02 587.967 1184.44C585.222 1184.84 566.76 1183.48 562.942 1183.27C550.025 1182.62 537.097 1182.22 524.165 1182.07C508.868 1181.9 493.569 1182 478.276 1182.39C471.703 1182.55 465.348 1182.88 458.797 1183.23C457.291 1183.31 457.473 1183.03 456.477 1181.95C456.192 1173.06 455.157 1163.79 454.099 1154.96C453.199 1155.67 452.276 1156.35 451.332 1157C423.47 1176.28 407.562 1137.54 385.445 1153.44C384.162 1146.54 386.432 1139.96 386.612 1133.23C387.19 1127.8 383.641 1116.27 384.634 1111.51C388.339 1093.78 387.509 1080.57 386.828 1062.68L385.163 1017.37C385.136 1010.9 384.746 1003.9 384.494 997.398C382.222 945.69 380.263 893.969 378.619 842.237C376.923 778.197 375.453 698.131 392.055 636.216Z"/><path fill="#D7D4D6" transform="scale(0.875 0.875)" d="M559.629 996.879C560.835 1003.54 562.258 1010.71 563.171 1017.37C568.653 1048.92 574.057 1080.52 579.857 1112.02C581.639 1121.7 580.478 1132.83 583.229 1142.8C584.765 1148.36 589.419 1153.71 590.922 1157.76C589.893 1165.63 589.425 1174.57 588.892 1182.56C588.75 1182.95 588.178 1184.02 587.967 1184.44C585.222 1184.84 566.76 1183.48 562.942 1183.27C550.025 1182.62 537.097 1182.22 524.165 1182.07C508.868 1181.9 493.569 1182 478.276 1182.39C471.703 1182.55 465.348 1182.88 458.797 1183.23C457.291 1183.31 457.473 1183.03 456.477 1181.95C456.192 1173.06 455.157 1163.79 454.099 1154.96C454.357 1154.73 454.61 1154.49 454.858 1154.25C458.619 1150.53 461.779 1135.83 462.385 1130.4C463.747 1114.38 459.241 1098.7 459.282 1082.72C459.335 1061.83 465.714 1037.94 465.484 1017.45C466.394 1011.41 466.984 1003.48 467.623 997.272C475.366 997.997 556.29 997.828 559.629 996.879Z"/><path fill="#363E49" transform="scale(0.875 0.875)" d="M559.629 996.879C560.835 1003.54 562.258 1010.71 563.171 1017.37C531.024 1017.38 497.512 1016.88 465.484 1017.45C466.394 1011.41 466.984 1003.48 467.623 997.272C475.366 997.997 556.29 997.828 559.629 996.879Z"/><path fill="#FFFEFD" transform="scale(0.875 0.875)" d="M467.623 997.272C468.71 990.894 469.542 975.099 469.988 968.191L473.46 914.13C476.372 875.693 481.017 837.406 487.38 799.387C489.85 783.739 492.53 764.076 495.969 748.929C500.287 770.533 507.825 795.184 513.3 816.776C523.615 857.458 536.52 897.908 546.799 938.611C551.543 957.928 555.821 977.356 559.629 996.879C556.29 997.828 475.366 997.997 467.623 997.272Z"/><path fill="#7CAD3D" transform="scale(0.875 0.875)" d="M522.846 236.27C525.086 239.977 524.252 245.584 524.009 249.795C523.749 254.307 523.606 258.038 524.015 262.592C525.228 276.088 529.946 288.901 527.521 302.564C527.333 303.698 527.101 306.773 528.433 306.805C532.338 307.775 533.62 310.735 535.49 314.145C543.074 310.539 545.494 309.67 553.882 310.935C555.654 309.092 558.206 303.041 559.436 300.429L559.91 303.788C560.69 308.145 563.06 320.087 565.938 323.376C569.058 330.552 575.034 335.164 575.784 336.844C580.742 338.938 583.59 341.403 588.377 342.501C597.106 342.698 599.296 341.856 606.062 336.831L606.865 336.367C608.143 339.121 607.414 338.628 609.629 339.788C612.692 339.228 614.81 336.844 617.53 338.151C619.438 339.068 620.992 339.478 623.06 339.769L622.437 340.23C620.325 343.21 618.217 346.264 615.953 349.123C624.254 356.826 626.21 360.206 627.318 371.479C635.59 379.514 644.119 387.281 652.89 394.769C664.292 404.51 673.888 410.95 680.835 424.844C687.589 438.352 693.951 452.015 700.495 465.627C703.645 472.238 714.843 493.001 716.391 498.423C716.058 500.015 716.265 499.831 715.409 501.132L715.954 504.249C721.78 514.319 741.317 564.798 737.154 575.239C723.826 608.668 684.363 638.317 654.067 655.959C642.235 662.849 628.064 675.851 614.536 672.011C609.274 670.382 604.591 666.038 599.989 663.219L599.109 661.753C532.006 678.075 452.715 670.107 392.055 636.216C387.614 631.876 393.223 614.011 394.325 607.729C397.967 586.953 402.947 566.219 406.91 545.505C409.373 532.636 410.401 518.984 412.693 506.031C417.655 473.61 422.998 441.969 429.464 409.826C434.358 387.972 441.957 369.78 445.942 347.621C451.642 315.932 450.211 293.016 448.236 261.123C449.662 259.752 451.828 258.315 453.48 257.136L454.757 260.225C461.944 261.795 505.143 249.052 513.617 244.194C518.263 241.53 520.958 241.521 522.846 236.27Z"/><path fill="#EBAF7E" transform="scale(0.875 0.875)" d="M715.409 501.132L715.954 504.249C721.78 514.319 741.317 564.798 737.154 575.239C723.826 608.668 684.363 638.317 654.067 655.959C642.235 662.849 628.064 675.851 614.536 672.011C609.274 670.382 604.591 666.038 599.989 663.219L599.109 661.753C596.869 659.571 594.305 658.019 591.699 656.29C584.502 657.684 572.882 661.079 566.712 657.12C564.636 650.794 585.609 645.952 590.405 644.71C586.969 642.726 581.343 642.803 577.453 642.705C571.291 643.718 559.518 647.652 553.877 645.884C552.57 645.474 551.824 643.639 551.343 642.385L550.658 640.957C551.704 639.389 552.759 638.65 554.186 637.443C552.756 636.876 550.054 636.779 548.393 636.622C546.392 634.775 545.524 633.582 545.717 630.811C547.696 626.667 551.784 625.865 556.172 624.186L554.422 623.219C551.939 622.138 551.696 621.765 549.978 619.641C550.705 616.959 550.798 616.591 552.855 614.755C563.381 609.8 571.504 605.765 583.296 604.496C587.485 606.183 589.265 607.159 593.178 609.479C600.434 614.504 617.058 629.788 622.356 631.958C644.42 619.196 665.043 580.502 680.384 559.694C674.488 551.054 667.932 542.352 661.656 533.953C664.581 532.18 667.897 530.511 670.939 528.907C682.838 522.101 694.431 515.197 705.668 507.338C708.72 505.204 712.124 502.807 715.409 501.132Z"/><path fill="#DB9866" transform="scale(0.875 0.875)" d="M715.409 501.132L715.954 504.249C702.962 514.086 686.61 524.261 672.589 532.975C677.718 542.197 681.706 549.039 687.705 557.693C694.542 556.828 698.638 556.368 705.65 556.807C700.122 558.588 691.337 560.959 686.988 564.627C673.389 576.098 664.598 592.559 653.361 606.381C645.81 615.668 636.948 623.601 629.509 632.597L631.899 641.445C630.261 639.864 622.756 633.259 622.356 631.958C644.42 619.196 665.043 580.502 680.384 559.694C674.488 551.054 667.932 542.352 661.656 533.953C664.581 532.18 667.897 530.511 670.939 528.907C682.838 522.101 694.431 515.197 705.668 507.338C708.72 505.204 712.124 502.807 715.409 501.132Z"/><path fill="#B88C62" transform="scale(0.875 0.875)" d="M563.378 633.256C573.027 629.602 583.751 626.238 594.17 630.074L593.768 630.471C581.326 629.454 575.768 629.723 563.838 634.323L563.378 633.256Z"/><path fill="#B88C62" transform="scale(0.875 0.875)" d="M577.453 642.705C584.655 639.935 592.99 642.341 600.414 643.901C597.206 644.288 593.572 644.867 590.405 644.71C586.969 642.726 581.343 642.803 577.453 642.705Z"/><path fill="#F1B483" transform="scale(0.875 0.875)" d="M556.295 637.177C557.368 639.15 557.802 639.584 557.847 641.74C556.149 643.404 553.752 642.626 551.343 642.385L550.658 640.957C551.704 639.389 552.759 638.65 554.186 637.443L556.295 637.177Z"/><path fill="#F1B483" transform="scale(0.875 0.875)" d="M552.855 614.755C555.822 615.476 555.552 614.954 557.505 616.759C557.016 619.858 552.498 619.574 549.978 619.641C550.705 616.959 550.798 616.591 552.855 614.755Z"/><path fill="#B88C62" transform="scale(0.875 0.875)" d="M554.422 623.219L555.095 623.045C560.117 621.727 570.364 617.417 574.141 616.935L574.952 617.468C573.573 618.396 559.036 623.096 556.172 624.186L554.422 623.219Z"/><path fill="#9E9852" transform="scale(0.875 0.875)" d="M563.378 633.256L563.838 634.323L556.295 637.177L554.186 637.443C552.756 636.876 550.054 636.779 548.393 636.622C554.837 636.16 557.133 635.338 563.378 633.256Z"/><path fill="#FFFEFD" transform="scale(0.875 0.875)" d="M593.178 609.479C592.76 599.167 593.697 590.838 594.209 580.596C594.462 575.549 592.91 566.301 593.614 561.719C593.938 559.612 599.106 550.413 600.274 547.882C608.514 530.027 617.663 513.726 627.257 496.606C632.968 501.703 638.204 507.309 642.9 513.354C645.737 516.939 656.581 532.884 659.08 534.53L661.656 533.953C667.932 542.352 674.488 551.054 680.384 559.694C665.043 580.502 644.42 619.196 622.356 631.958C617.058 629.788 600.434 614.504 593.178 609.479Z"/><path fill="#71A13A" transform="scale(0.875 0.875)" d="M629.709 490.154L637.027 474.438L637.213 475.164C640.253 486.121 655.871 505.805 662.635 516.146C665.308 520.232 668.917 524.249 670.939 528.907C667.897 530.511 664.581 532.18 661.656 533.953L659.08 534.53C656.581 532.884 645.737 516.939 642.9 513.354C638.204 507.309 632.968 501.703 627.257 496.606C617.663 513.726 608.514 530.027 600.274 547.882C599.106 550.413 593.938 559.612 593.614 561.719C592.91 566.301 594.462 575.549 594.209 580.596C593.697 590.838 592.76 599.167 593.178 609.479C589.265 607.159 587.485 606.183 583.296 604.496C571.504 605.765 563.381 609.8 552.855 614.755C550.798 616.591 550.705 616.959 549.978 619.641C551.696 621.765 551.939 622.138 554.422 623.219L556.172 624.186C551.784 625.865 547.696 626.667 545.717 630.811C545.524 633.582 546.392 634.775 548.393 636.622C550.054 636.779 552.756 636.876 554.186 637.443C552.759 638.65 551.704 639.389 550.658 640.957C550.239 640.823 549.82 640.69 549.401 640.556C533.012 633.031 532.832 626.283 544.726 614.483C555.823 603.474 560.577 601.374 575.176 596.495C579.569 582.679 575.996 558.902 583.611 550.514C594.802 538.188 618.498 498.414 629.709 490.154Z"/><path fill="#5F8932" transform="scale(0.875 0.875)" d="M629.709 490.154L637.027 474.438L637.213 475.164C636.175 479.884 631.063 492.528 627.878 495.841C628.408 493.308 628.697 492.546 629.709 490.154Z"/><path fill="#DB9866" transform="scale(0.875 0.875)" d="M559.436 300.429L559.91 303.788C560.69 308.145 563.06 320.087 565.938 323.376C569.058 330.552 575.034 335.164 575.784 336.844C580.742 338.938 583.59 341.403 588.377 342.501C597.106 342.698 599.296 341.856 606.062 336.831L606.865 336.367C608.143 339.121 607.414 338.628 609.629 339.788C612.692 339.228 614.81 336.844 617.53 338.151C619.438 339.068 620.992 339.478 623.06 339.769L622.437 340.23C620.325 343.21 618.217 346.264 615.953 349.123L613.303 353.175C610.952 357.843 609.74 359.19 610.798 364.282C611.218 365.297 611.872 366.737 612.196 367.739C597.682 378.175 584.777 375.299 567.763 381.509C566.192 382.219 564.238 383.313 562.61 383.277L561.879 380.006C561.097 375.662 559.112 363.228 557.808 359.658C554.777 351.362 543.682 331.228 546.153 322.298C549.2 319.022 549.955 318.053 552.301 314.25C553.001 313.216 553.385 312.099 553.882 310.935C555.654 309.092 558.206 303.041 559.436 300.429Z"/><path fill="#EBAF7E" transform="scale(0.875 0.875)" d="M559.436 300.429L559.91 303.788C557.342 315.28 562.24 336.183 569.035 345.793C575.084 354.348 579.126 357.325 588.155 362.232C580.503 372.409 573.662 374.421 567.763 381.509C566.192 382.219 564.238 383.313 562.61 383.277L561.879 380.006C561.097 375.662 559.112 363.228 557.808 359.658C554.777 351.362 543.682 331.228 546.153 322.298C549.2 319.022 549.955 318.053 552.301 314.25C553.001 313.216 553.385 312.099 553.882 310.935C555.654 309.092 558.206 303.041 559.436 300.429Z"/><path fill="#807F7F" transform="scale(0.875 0.875)" d="M606.865 336.367C608.143 339.121 607.414 338.628 609.629 339.788C612.692 339.228 614.81 336.844 617.53 338.151C619.438 339.068 620.992 339.478 623.06 339.769L622.437 340.23C609.835 345.303 585.932 348.421 575.784 336.844C580.742 338.938 583.59 341.403 588.377 342.501C597.106 342.698 599.296 341.856 606.062 336.831L606.865 336.367Z"/><path fill="#5F8932" transform="scale(0.875 0.875)" d="M627.318 371.479C628.11 381.197 618.638 394.559 612.165 401.175C606.221 398.554 593.165 388.149 591.404 388.158L590.938 388.445L588.534 386.878C590.917 385.808 591.735 383.567 593.093 381.161C599.613 386.992 604.226 393.278 611.48 399.049C618.962 392.274 621.177 387.063 624.889 377.824C625.94 375.208 625.707 373.829 627.318 371.479Z"/><path fill="#5F8932" transform="scale(0.875 0.875)" d="M527.357 320.34L527.905 321.254C522.63 331.642 521.103 339.819 521.442 351.497C529.719 352.493 538.828 353.476 546.926 355.221C546.67 356.774 546.286 358.636 546.261 360.166C540.311 359.054 525.851 354.569 520.01 352.69C519.56 341.56 520.893 329.776 527.357 320.34Z"/><path fill="#4A7226" transform="scale(0.875 0.875)" d="M557.601 388.74C568.347 384.501 577.321 385.531 588.534 386.878L590.938 388.445C587.314 388.728 581.408 388.468 577.853 388.094C569.298 387.193 572.8 388.414 568.518 391.109C568.804 389.685 568.879 389.611 568.762 388.184L557.601 388.74Z"/><path fill="#5F8932" transform="scale(0.875 0.875)" d="M546.926 355.221C549.396 355.942 549.28 355.486 550.684 357.109C550.333 358.736 549.683 359.361 548.689 360.683C548.952 362.03 560.456 378.146 561.879 380.006L562.61 383.277C560.018 380.718 547.842 363.973 547.509 361.043L546.261 360.166C546.286 358.636 546.67 356.774 546.926 355.221Z"/><path fill="#5F8932" transform="scale(0.875 0.875)" d="M613.303 353.175L616.924 357.224C615.743 358.638 611.952 363.338 610.798 364.282C609.74 359.19 610.952 357.843 613.303 353.175Z"/><path fill="#71A13A" transform="scale(0.875 0.875)" d="M616.924 357.224C617.123 362.619 615.687 363.661 612.196 367.739C611.872 366.737 611.218 365.297 610.798 364.282C611.952 363.338 615.743 358.638 616.924 357.224Z"/><path fill="#5F8932" transform="scale(0.875 0.875)" d="M546.153 322.298C545.759 319.6 546.151 317.79 547.607 315.612C549.612 314.166 549.73 314.213 552.301 314.25C549.955 318.053 549.2 319.022 546.153 322.298Z"/><path fill="#71A13A" transform="scale(0.875 0.875)" d="M527.357 320.34C528.926 318.391 529.804 316.842 532.083 315.958L532.406 316.772C530.962 319.098 530.044 319.597 527.905 321.254L527.357 320.34Z"/><path fill="#5F8932" transform="scale(0.875 0.875)" d="M546.82 395.048C547.204 395.891 548.169 397.835 547.902 398.728C544.878 408.873 540.95 418.902 537.187 428.805L536.921 429.22C536.593 427.836 545.906 400.186 546.82 395.048Z"/><path fill="#5F8932" transform="scale(0.875 0.875)" d="M554.468 394.122C555.541 393.523 556.858 393.573 557.882 394.252C558.906 394.93 559.466 396.124 559.334 397.345C559.202 398.566 558.399 399.612 557.253 400.055C555.644 400.677 553.827 399.948 553.094 398.386C552.361 396.825 552.961 394.962 554.468 394.122Z"/><path fill="#5F8932" transform="scale(0.875 0.875)" d="M547.465 417.989C548.964 417.435 550.639 418.112 551.333 419.551C552.026 420.991 551.512 422.722 550.145 423.55C549.137 424.16 547.87 424.146 546.876 423.513C545.882 422.881 545.332 421.74 545.457 420.568C545.582 419.397 546.36 418.397 547.465 417.989Z"/><path fill="#5F8932" transform="scale(0.875 0.875)" d="M525.515 307.956L526.321 308.343C525.608 312.155 516.278 318.986 512.98 321.204L512.484 321.245C512.302 319.949 522.749 311.826 525.515 307.956Z"/><path fill="#363E49" transform="scale(0.875 0.875)" d="M0 762.96L106.787 762.965C121.668 762.968 146.541 762.204 160.577 763.146L160.551 1057.13L160.574 1150.08C160.571 1155.85 159.932 1198.31 161.546 1200.54C161.133 1200.93 160.719 1201.33 160.305 1201.73C155.999 1202.32 143.205 1202.09 139.536 1202.08L139.418 1158.27C133.793 1164.4 127.971 1171.35 122.466 1177.66L0 1178.05L0 1130.56L0 1116.29L0 944.403L0 942.418L0 877.193L0 872.478L0 809.264L0 805.475L0 762.96Z"/><path fill="#363E49" transform="scale(0.875 0.875)" d="M0 944.403L87.5876 944.48C102.071 944.482 119.147 944.064 133.39 944.544C133.407 1001.22 134.083 1059.66 133.362 1116.24L0 1116.29L0 944.403Z"/><path fill="#242C34" transform="scale(0.875 0.875)" d="M21.1976 975.113C36.2897 974.487 51.727 975.083 66.853 974.825C70.5929 974.761 73.9548 974.29 75.7301 977.848C75.5762 980.172 75.4599 980.239 74.0048 982.164C65.6511 982.396 25.1748 983.259 20.0058 980.765C18.5404 979 18.9176 979.971 18.6874 977.811C19.5253 976.277 19.8445 976.188 21.1976 975.113Z"/><path fill="#363E49" transform="scale(0.875 0.875)" d="M0 877.193L133.42 877.269L133.376 942.277L0 942.418L0 877.193Z"/><path fill="#242C34" transform="scale(0.875 0.875)" d="M20.6002 905.847C37.2739 905.7 54.3764 905.462 71.0508 905.784C73.483 905.83 74.0513 906.436 75.4415 908.038C75.8592 910.375 75.4665 910.75 74.4236 913.039C58.7505 913.56 37.6463 913.503 21.611 912.967C20.2904 912.923 19.5581 911.353 19.0244 910.407C19.0292 908.151 19.3848 907.876 20.6002 905.847Z"/><path fill="#363E49" transform="scale(0.875 0.875)" d="M0 809.264C37.6671 807.83 76.5075 809.981 114.264 809.123C120.376 808.984 127.293 808.979 133.397 809.223L133.448 872.438L0 872.478L0 809.264Z"/><path fill="#242C34" transform="scale(0.875 0.875)" d="M20.1461 838.123C36.9464 837.326 54.7448 838.185 71.6183 838.073C73.7202 838.06 74.2268 838.701 75.4896 840.161C75.8748 842.606 75.6221 842.827 74.5826 845.205C57.4944 845.691 39.8131 845.54 22.6982 845.26C20.9269 845.231 20.2902 844.263 19.3154 843.003C18.9611 840.76 19.3071 840.346 20.1461 838.123Z"/><path fill="#242C34" transform="scale(0.875 0.875)" d="M0 805.475L139.589 805.439L139.47 1130.5L0 1130.56L0 1116.29L133.362 1116.24C134.083 1059.66 133.407 1001.22 133.39 944.544C119.147 944.064 102.071 944.482 87.5876 944.48L0 944.403L0 942.418L133.376 942.277L133.42 877.269L0 877.193L0 872.478L133.448 872.438L133.397 809.223C127.293 808.979 120.376 808.984 114.264 809.123C76.5075 809.981 37.6671 807.83 0 809.264L0 805.475Z"/><path fill="#363E49" transform="scale(0.875 0.875)" d="M295.868 667.36C296.241 672.776 296.644 682.488 295.808 687.703L295.137 688.303C294.331 689.031 294.026 689.385 293.335 690.251L293.321 906.39L293.37 968.536C293.375 974.24 293.796 992.515 293.147 997.426L384.494 997.398C384.746 1003.9 385.136 1010.9 385.163 1017.37L293.42 1017.43C292.582 1023.18 293.079 1043.14 293.03 1050.09C271.909 1064.29 280.147 1029.34 278.499 1017.41C277.729 1027.13 278.083 1040.27 278.3 1050.11C261.278 1049.81 244.253 1049.78 227.231 1050.04C227.129 1050.8 227.005 1051.72 226.859 1052.79C212.305 1069.29 187.398 1094.52 173.192 1109.39C173.035 1135.55 173.034 1161.72 173.189 1187.88C169.735 1191.65 165.079 1197.05 161.546 1200.54C159.932 1198.31 160.571 1155.85 160.574 1150.08L160.551 1057.13L160.577 763.146C146.541 762.204 121.668 762.968 106.787 762.965L0 762.96L0 735.548L117.547 735.553C130.405 735.542 152.265 736.213 164.248 734.657C167.962 734.175 189.276 721.454 194.384 718.881C228.145 701.879 261.595 683.378 295.868 667.36Z"/><path fill="#FFFEFD" transform="scale(0.875 0.875)" d="M173.33 770.952C180.924 765.801 189.647 760.599 197.649 755.959C224.738 740.249 251.416 722.419 278.781 707.33L278.837 997.451L227.086 997.364L227.098 790.309L173.146 790.247C173.132 785.934 173.352 777.661 173.03 773.656L173.33 770.952Z"/><path fill="#B88C62" transform="scale(0.875 0.875)" d="M295.868 667.36C296.241 672.776 296.644 682.488 295.808 687.703L295.137 688.303C294.331 689.031 294.026 689.385 293.335 690.251L293.321 906.39L293.37 968.536C293.375 974.24 293.796 992.515 293.147 997.426C292.573 994.686 292.758 976.902 292.764 973.152L292.847 916.164L292.859 690.215C280.266 696.561 264.794 705.612 252.316 712.617C225.792 727.555 199.348 742.635 172.986 757.858C168.66 760.521 165.646 762.984 160.577 763.146C146.541 762.204 121.668 762.968 106.787 762.965L0 762.96L0 735.548L117.547 735.553C130.405 735.542 152.265 736.213 164.248 734.657C167.962 734.175 189.276 721.454 194.384 718.881C228.145 701.879 261.595 683.378 295.868 667.36Z"/><path fill="#242C34" transform="scale(0.875 0.875)" d="M160.577 763.146C165.646 762.984 168.66 760.521 172.986 757.858C173.017 761.83 172.906 767.111 173.33 770.952L173.03 773.656C171.473 776.673 173.048 847.578 172.955 855.39C179.517 849.957 219.732 818.499 225.474 816.294C222.899 819.911 179.701 852.129 173.025 856.791C173.178 878.725 173.169 900.66 173 922.594C178.841 917.897 223.737 879.792 226.033 879.857C225.27 881.772 178.726 919.761 173.114 924.683L173.164 1048.8C173.151 1067.94 172.487 1090.52 173.192 1109.39C173.035 1135.55 173.034 1161.72 173.189 1187.88C169.735 1191.65 165.079 1197.05 161.546 1200.54C159.932 1198.31 160.571 1155.85 160.574 1150.08L160.551 1057.13L160.577 763.146Z"/><path fill="#D7D4D6" transform="scale(0.875 0.875)" d="M227.038 1017.39L278.499 1017.41C277.729 1027.13 278.083 1040.27 278.3 1050.11C261.278 1049.81 244.253 1049.78 227.231 1050.04C226.616 1041.54 227.035 1026.41 227.038 1017.39Z"/><path fill="#242C34" transform="scale(0.875 0.875)" d="M209.395 917.595L210.741 918.62C211.106 919.516 211.685 920.869 211.408 921.818C209.685 927.711 195.766 938.334 191.061 942.098C184.494 934.76 203.937 921.772 209.395 917.595Z"/><path fill="#242C34" transform="scale(0.875 0.875)" d="M209.453 852.436C216.876 858.756 195.635 872.781 190.979 875.848C187.635 871.842 189.672 868.722 193.169 865.487C198.133 860.893 203.857 856.241 209.453 852.436Z"/><path fill="#EBAF7E" transform="scale(0.875 0.875)" d="M453.48 257.136C454.638 255.965 454.158 247.423 454.218 245.463C455.034 219.007 459.48 193.23 464.971 167.392C468.687 149.905 468.792 145.744 481.692 132.675C518.477 95.4061 564.779 68.8617 610.656 44.4106C632.754 32.9834 656.185 18.0104 682.215 24.8164C685.797 25.7529 683.017 28.1552 688.057 28.2989C690.421 28.3662 694.631 28.5982 696.716 29.4717C698.115 34.7802 699.804 35.1236 703.977 38.0953C704.451 40.5592 704.207 39.9766 703.214 42.719C708.964 50.7931 711.84 58.9932 710.216 69.0201C708.723 78.1322 703.633 86.2629 696.089 91.5872C688.825 96.6823 685.328 96.5437 677.528 98.278C675.523 98.7787 671.263 98.927 670.084 99.3158C656.969 103.644 646.057 100.488 633.921 94.9765C628.996 92.7398 617.167 88.3081 611.872 91.5645C575.038 114.213 551.398 152.142 521.128 181.758C523.465 198.197 525.413 213.16 523.24 229.686C523.045 231.172 522.646 234.937 522.846 236.27C520.958 241.521 518.263 241.53 513.617 244.194C505.143 249.052 461.944 261.795 454.757 260.225L453.48 257.136Z"/><path fill="#1F73CF" transform="scale(0.875 0.875)" d="M674.111 30.829C684.306 30.5005 691.86 31.9076 699.686 39.2106C700.891 40.3506 702.067 41.5204 703.214 42.719C708.964 50.7931 711.84 58.9932 710.216 69.0201C708.723 78.1322 703.633 86.2629 696.089 91.5872C688.825 96.6823 685.328 96.5437 677.528 98.278C674.797 83.9281 661.044 95.2916 649.375 84.0341C646.441 78.4354 644.706 75.3392 643.654 69.0354C642.155 60.4633 644.145 51.6476 649.18 44.5502C655.52 35.7405 663.842 32.5351 674.111 30.829Z"/><path fill="#DB9866" transform="scale(0.875 0.875)" d="M649.375 84.0341C640.037 79.1235 631.945 65.6658 617.308 69.4329L616.444 68.8456C620.087 67.1062 626.718 66.9857 628.123 65.8764C637.921 58.1428 643.224 47.4677 652.65 37.7414C652.911 36.2461 652.829 36.1284 653.578 34.8394C658.652 32.2434 668.278 29.4376 674.111 30.829C663.842 32.5351 655.52 35.7405 649.18 44.5502C644.145 51.6476 642.155 60.4633 643.654 69.0354C644.706 75.3392 646.441 78.4354 649.375 84.0341Z"/><path fill="#242C34" transform="scale(0.875 0.875)" d="M0 426.866C8.19148 428.545 19.7141 429.627 28.3635 430.719L79.2956 437.318C88.6435 438.542 100.172 439.774 109.319 441.52C112.24 475.221 115.343 508.905 118.63 542.572C120.148 559.434 121.765 588.466 124.268 604.166L0 604.82L0 426.866Z"/><path fill="#FFFEFD" transform="scale(0.875 0.875)" d="M1024 469.187L1024 635.5L1024 638.997C997.858 646.405 985.015 669.177 966.772 687.023C955.36 698.186 942.123 708.12 930.672 719.323C928.186 721.748 924.52 726.796 922.091 729.698L921.148 728.885L919.382 729.77C914.948 748.274 912.866 764.48 911.61 783.454C911.368 794.664 910.058 808.762 910.483 819.571C911.641 820.87 912.592 831.958 912.603 834.072L912.329 840.098L905.769 840.147C905.671 836.777 906.237 833.09 906.469 829.632C907.195 827.213 906.34 807.833 906.277 804.231C906.124 795.538 903.981 786.578 905.417 777.463C906.641 773.381 906.854 743.608 907.567 736.098C908.525 706.703 909.7 675.209 913.047 645.955C913.647 639.119 914.874 631.6 915.858 624.745C915.653 624.014 915.833 624.424 915.141 623.606L913.478 623.476C915.657 604.684 916.572 597.685 923.046 579.999C925.531 576.513 927.322 570.692 928.619 569.108L929.434 570.342C940.938 554.413 956.667 547.493 974.769 542.097C975.673 538.799 980.914 529.853 982.611 526.014C992.894 502.756 1000.71 482.513 1024 469.187Z"/><path fill="#5F8932" transform="scale(0.875 0.875)" d="M919.382 729.77C919.851 727.363 919.798 720.117 919.875 717.22C920.016 709.867 920.931 702.549 922.604 695.387C934.03 648.172 977.445 623.758 1024 635.5L1024 638.997C997.858 646.405 985.015 669.177 966.772 687.023C955.36 698.186 942.123 708.12 930.672 719.323C928.186 721.748 924.52 726.796 922.091 729.698L921.148 728.885L919.382 729.77Z"/><path fill="#71A13A" transform="scale(0.875 0.875)" d="M1008.48 637.21C1012.12 636.746 1015.88 636.79 1019.55 636.749L1019.41 637.157C1015.61 639.585 1012.48 639.212 1008.48 637.21Z"/><defs><linearGradient id="gradient_0" gradientUnits="userSpaceOnUse" x1="1013.3232" y1="680.24786" x2="885.83618" y2="699.07617"><stop offset="0" stop-color="#3A621E"/><stop offset="1" stop-color="#507827"/></linearGradient></defs><path fill="url(#gradient_0)" transform="scale(0.875 0.875)" d="M974.769 542.097C978.929 540.934 984.392 540.463 988.718 540.503C990.703 541.005 992.051 540.957 993.174 542.281C993.196 543.09 993.3 544.185 993.121 544.927C953.146 556.765 930.63 602.097 924.963 640.327C924.328 644.611 922.273 649.27 922.803 653.612C921.226 665.754 917.947 678.461 916.512 690.697C913.192 718.996 910.78 748.818 910.27 777.267C910.493 779.271 910.518 781.88 911.61 783.454C911.368 794.664 910.058 808.762 910.483 819.571C911.641 820.87 912.592 831.958 912.603 834.072L912.329 840.098L905.769 840.147C905.671 836.777 906.237 833.09 906.469 829.632C907.195 827.213 906.34 807.833 906.277 804.231C906.124 795.538 903.981 786.578 905.417 777.463C906.641 773.381 906.854 743.608 907.567 736.098C908.525 706.703 909.7 675.209 913.047 645.955C913.647 639.119 914.874 631.6 915.858 624.745C915.653 624.014 915.833 624.424 915.141 623.606L913.478 623.476C915.657 604.684 916.572 597.685 923.046 579.999C925.531 576.513 927.322 570.692 928.619 569.108L929.434 570.342C940.938 554.413 956.667 547.493 974.769 542.097Z"/><path fill="#FFFEFD" transform="scale(0.875 0.875)" d="M915.858 624.745C923.686 653.187 919.342 652.578 915.369 679.051C912.279 700.034 910.138 721.146 908.952 742.322C907.754 740.727 907.783 738.184 907.567 736.098C908.525 706.703 909.7 675.209 913.047 645.955C913.647 639.119 914.874 631.6 915.858 624.745Z"/><path fill="#D8E6D2" transform="scale(0.875 0.875)" d="M910.483 819.571L909.589 819.755C908.239 817.832 909.752 782.055 910.27 777.267C910.493 779.271 910.518 781.88 911.61 783.454C911.368 794.664 910.058 808.762 910.483 819.571Z"/><path fill="#D8E6D2" transform="scale(0.875 0.875)" d="M905.417 777.463C906.641 773.381 906.854 743.608 907.567 736.098C907.783 738.184 907.754 740.727 908.952 742.322C908.745 747.705 907.451 778.076 906.211 780.468C905.581 779.034 905.62 779.031 905.417 777.463Z"/><path fill="#5F8932" transform="scale(0.875 0.875)" d="M1003.38 540.815C1008.38 541.671 1013.19 542.518 1017.94 544.399C1007.71 548.631 999.715 552.842 991.843 560.999C977.56 575.797 970.441 595.349 958.104 611.781C948.193 624.983 929.353 638.818 922.803 653.612C922.273 649.27 924.328 644.611 924.963 640.327C930.63 602.097 953.146 556.765 993.121 544.927C996.22 544.249 1001.57 543.42 1003.38 540.815Z"/><path fill="#4A7226" transform="scale(0.875 0.875)" d="M988.718 540.503C993.978 540.177 998.15 540.302 1003.38 540.815C1001.57 543.42 996.22 544.249 993.121 544.927C993.3 544.185 993.196 543.09 993.174 542.281C992.051 540.957 990.703 541.005 988.718 540.503Z"/><path fill="#4A7226" transform="scale(0.875 0.875)" d="M784.619 440.353C808.27 435.445 827.501 437.037 849.309 449.003C874.056 462.582 892.604 491.45 893.591 519.831C893.918 529.226 891.402 540.515 892.174 549.507C892.814 556.963 896.809 568.287 898.733 575.914C900.373 582.419 901.938 589.327 903.679 595.764C904.48 561.906 904.774 520.961 900.055 488.007C900.878 487.07 900.922 487.122 902.031 486.513L903.621 487.723C906.902 522.574 906.5 552.343 906.562 587.353C907.6 597.206 907.095 609.917 907.311 619.995C908.673 618.493 907.824 618.608 908.437 616.198C908.27 604.077 909.547 587.19 910.089 574.808C910.578 563.618 911.375 540.828 913.539 530.826C916.036 522.464 914.206 504.155 918.343 495.453C917.248 504.419 914.939 522.538 915.753 531.325C914.113 554.41 912.848 577.52 911.959 600.646C911.574 609.201 911.565 620.97 910.83 629.142L911.597 631.803L912.252 631.906C912.605 629.134 913.071 626.252 913.478 623.476L915.141 623.606C915.833 624.424 915.653 624.014 915.858 624.745C914.874 631.6 913.647 639.119 913.047 645.955C909.7 675.209 908.525 706.703 907.567 736.098C906.854 743.608 906.641 773.381 905.417 777.463C903.981 786.578 906.124 795.538 906.277 804.231C906.34 807.833 907.195 827.213 906.469 829.632C906.237 833.09 905.671 836.777 905.769 840.147L904.863 840.363C902.506 840.188 899.392 840.173 896.973 840.097C896.277 834.497 896.955 827.048 896.459 820.715C896.953 779.71 891.902 726.945 876.997 688.544C875.894 685.701 864.32 675.515 861.034 673.3C835.484 656.074 811.591 632.865 782.228 622.595C773.093 619.409 761.199 620.139 751.999 621.296C768.146 608.514 784.049 603.922 804.554 604.117C839.282 604.447 874.124 627.18 878.347 663.537C879.21 670.97 879.185 678.694 880.696 686.043C882.687 694.223 885.552 702.367 887.596 710.585C890.317 721.521 892.157 732.52 894.068 743.609C895.087 742.08 895.078 736.649 895.249 734.269C895.607 729.291 894.853 715.712 894.528 710.163C893.157 686.783 891.516 659.915 887.379 636.909C872.811 613.347 856.675 608.996 841.681 591.601C819.365 565.714 820.686 550.836 789.487 529.052C784.115 527.048 779.81 525.597 774.315 523.972C800.531 518.3 827.926 523.553 850.184 538.521C875.948 555.478 894.383 583.672 891.4 615.116C889.211 638.184 893.664 658.591 895.573 681.434C897.401 704.993 898.535 728.601 898.976 752.228C899.316 764.899 899.957 779.024 899.801 791.625L901.144 793.677C900.734 781.785 901.814 763.741 902.18 751.423C902.787 726.366 903.174 701.304 903.342 676.24C903.59 640.87 904.617 587.581 888.742 552.769C884.535 543.543 863.018 529.058 855.206 518.131C830.926 484.168 828.589 455.502 784.619 440.353Z"/><path fill="#5F8932" transform="scale(0.875 0.875)" d="M789.487 529.052C793.89 529.326 798.842 531.994 802.932 533.5C843.37 548.382 873.343 581.803 884.452 623.356C885.554 627.478 887.555 632.639 887.379 636.909C872.811 613.347 856.675 608.996 841.681 591.601C819.365 565.714 820.686 550.836 789.487 529.052Z"/><path fill="#5F8932" transform="scale(0.875 0.875)" d="M904.863 840.363C901.148 836.321 900.424 821.466 903.364 816.993L903.574 816.958L903.999 817.534C904.459 821.781 905.457 825.505 906.469 829.632C906.237 833.09 905.671 836.777 905.769 840.147L904.863 840.363Z"/><path fill="#9EBA89" transform="scale(0.875 0.875)" d="M906.562 587.353C907.6 597.206 907.095 609.917 907.311 619.995C908.673 618.493 907.824 618.608 908.437 616.198C908.576 619.669 907.768 641.607 907.134 644.362C906.109 640.904 906.336 593.833 906.562 587.353Z"/><path fill="#9EBA89" transform="scale(0.875 0.875)" d="M899.801 791.625L901.144 793.677C901.249 796.159 901.638 803.011 900.194 804.683L900.594 805.922L901.005 804.24L900.631 805.954L900.028 804.025L900.908 804.854C899.088 802.209 899.781 795.342 899.801 791.625Z"/><path fill="#E1E0E0" transform="scale(0.875 0.875)" d="M895.249 734.269C895.62 738.168 895.83 741.666 895.999 745.581C895.75 747.574 895.51 750.152 895.165 752.076C894.706 749.844 894.354 746.004 894.068 743.609C895.087 742.08 895.078 736.649 895.249 734.269Z"/><path fill="#9EBA89" transform="scale(0.875 0.875)" d="M910.293 638.752L911.723 639.257C911.459 641.319 911.104 645.025 910.524 646.877L910.445 646.913L909.881 646.527C909.813 643.683 909.628 641.554 910.293 638.752Z"/><path fill="#D8E6D2" transform="scale(0.875 0.875)" d="M910.83 629.142L911.597 631.803L912.252 631.906L911.723 639.257L910.293 638.752C910.414 635.546 910.593 632.342 910.83 629.142Z"/><path fill="#9EBA89" transform="scale(0.875 0.875)" d="M895.999 745.581C896.377 748.533 897.001 753.095 895.713 755.844C895.165 754.087 894.999 753.951 895.165 752.076C895.51 750.152 895.75 747.574 895.999 745.581Z"/><path fill="#EBAF7E" transform="scale(0.875 0.875)" d="M106.688 649.066C120.079 645.491 153.727 645.951 167.318 648.816L168.333 648.702C171.163 652.582 170.443 656.966 170.383 661.862C182.054 660.176 186.845 662.1 191.126 673.46C197.096 673.762 201.492 673.664 207.438 673.45C211.495 673.299 219.858 673.122 223.644 671.656C224.563 671.3 224.687 669.684 225.053 668.386C225.405 668.058 225.758 667.731 226.11 667.404C239.723 666.938 282.691 667.167 293.192 667.198L295.868 667.36C261.595 683.378 228.145 701.879 194.384 718.881C189.276 721.454 167.962 734.175 164.248 734.657C152.265 736.213 130.405 735.542 117.547 735.553L0 735.548L0 705.345L0 695.197L0 688.364C5.80572 688.902 13.7619 689.831 19.4606 689.028C38.0933 686.403 56.6156 682.37 75.1812 679.215C81.2323 678.187 88.8806 677.126 94.4506 674.897C96.0225 676.768 95.6571 678.427 95.6317 681.177C98.3187 681.402 100.691 681.912 103.09 680.887L103.897 678.719L103.634 666.904C103.471 661.44 101.813 652.157 106.688 649.066Z"/><path fill="#06386E" transform="scale(0.875 0.875)" d="M106.688 649.066C120.079 645.491 153.727 645.951 167.318 648.816L168.333 648.702C171.163 652.582 170.443 656.966 170.383 661.862C182.054 660.176 186.845 662.1 191.126 673.46C192.647 692.273 188.821 701.964 169.522 706.508L169.262 713.363L168.469 720.932C157.382 724.479 112.435 727.772 104.963 719.607C104.488 708.817 104.247 698.018 104.241 687.217C104.171 684.383 104.057 681.549 103.897 678.719L103.634 666.904C103.471 661.44 101.813 652.157 106.688 649.066Z"/><path fill="#242C34" transform="scale(0.875 0.875)" d="M106.688 649.066C120.079 645.491 153.727 645.951 167.318 648.816C161.721 654.284 111.646 654.118 106.688 649.066Z"/><path fill="#EBAF7E" transform="scale(0.875 0.875)" d="M170.751 668.26C177.334 666.019 181.513 665.935 184.883 672.844C185.416 675.3 185.664 677.809 185.621 680.321C185.515 688.48 182.477 698.575 172.027 698.482C170.804 698.471 170.988 698.181 170.22 697.245C169.729 694.411 169.986 670.284 170.751 668.26Z"/><path fill="#D7D4D6" transform="scale(0.875 0.875)" d="M170.751 668.26C177.334 666.019 181.513 665.935 184.883 672.844C179.549 672.617 174.064 673.115 170.751 668.26Z"/><path fill="#1C4366" transform="scale(0.875 0.875)" d="M140.313 692.192C143.996 693.418 148.25 691.838 151.332 693.597C152.74 694.401 154.317 698.344 152.754 700.058L151.111 699.475C144.655 704.841 136.103 698.259 140.313 692.192Z"/><path fill="#0B5A66" transform="scale(0.875 0.875)" d="M110.223 692.139C113.073 692.547 116.519 692.354 118.303 693.885C117.623 696.309 117.291 697.983 118.73 700.104L118.743 701.152C114.598 700.512 114.394 702.879 110.552 699.677C109.403 697.435 109.994 694.794 110.223 692.139Z"/><path fill="#E1E0E0" transform="scale(0.875 0.875)" d="M136.121 679.502C137.554 679.666 137.273 679.835 138.51 679.439C141.909 679.608 140.77 679.149 143.281 680.826C145.166 684.004 144.558 686.05 141.431 687.901C140.19 687.79 140.165 687.946 139.126 687.444C138.748 687.02 138.006 686.72 137.438 686.417C137.022 684.032 136.696 682.263 136.075 679.903L136.121 679.502Z"/><path fill="#7F97BD" transform="scale(0.875 0.875)" d="M136.121 679.502C137.554 679.666 137.273 679.835 138.51 679.439C138.625 681.615 138.709 685.444 139.126 687.444C138.748 687.02 138.006 686.72 137.438 686.417C137.022 684.032 136.696 682.263 136.075 679.903L136.121 679.502Z"/><path fill="#FFFEFD" transform="scale(0.875 0.875)" d="M132.415 679.185C133.133 678.49 133.396 677.4 134.669 676.217C136.051 677.426 135.632 677.262 136.121 679.502L136.075 679.903C136.696 682.263 137.022 684.032 137.438 686.417C136.016 687.805 136.067 687.708 134.073 688.099C130.726 686.182 131.418 682.4 132.415 679.185Z"/><path fill="#1C4366" transform="scale(0.875 0.875)" d="M132.415 679.185C133.133 678.49 133.396 677.4 134.669 676.217C136.051 677.426 135.632 677.262 136.121 679.502L136.075 679.903C135.738 682.493 135.712 683.105 134.622 685.453C133.774 684.391 133.394 681.17 132.415 679.185Z"/><path fill="#E1E0E0" transform="scale(0.875 0.875)" d="M128.874 665.504C135.193 666.899 133.816 670.928 131.449 675.167C125.277 674.126 126.958 669.617 128.874 665.504Z"/><path fill="#E1E0E0" transform="scale(0.875 0.875)" d="M142.098 665.534C144.673 665.906 145.362 666.614 146.599 668.699C146.906 671.492 146.322 672.44 145.27 674.969C138.847 674.634 140.162 669.732 142.098 665.534Z"/><path fill="#FFFEFD" transform="scale(0.875 0.875)" d="M127.533 678.943C129.728 680.268 132.243 685.518 129.967 687.603L127.68 686.797C127.462 686.998 126.374 687.668 126.081 687.856L125.298 687.11C125.454 684.183 126.545 681.728 127.533 678.943Z"/><path fill="#FFFEFD" transform="scale(0.875 0.875)" d="M136.067 665.627L138.568 666.524C139.672 669.169 136.683 667.471 135.415 671.144C136.682 672.657 136.544 672.234 138.765 672.962C139.058 673.128 139.138 673.523 139.299 673.819C137.721 675.047 138.601 674.729 136.546 674.735C134.356 672.947 135.006 673.859 133.982 671.315C133.988 668.642 134.638 667.943 136.067 665.627Z"/><path fill="#E1E0E0" transform="scale(0.875 0.875)" d="M122.331 665.632L125.326 666.149L125.843 667.204C124.952 667.914 125.3 667.797 124.845 669.293L125.418 669.903L124.936 670.537C124.579 671.793 124.184 672.741 123.704 673.941L122.966 674.218C122.082 671.657 122.331 668.426 122.331 665.632Z"/><path fill="#242C34" transform="scale(0.875 0.875)" d="M94.4506 674.897C96.0225 676.768 95.6571 678.427 95.6317 681.177L46.8864 690.702C27.9806 694.424 19.5073 697.159 0 695.197L0 688.364C5.80572 688.902 13.7619 689.831 19.4606 689.028C38.0933 686.403 56.6156 682.37 75.1812 679.215C81.2323 678.187 88.8806 677.126 94.4506 674.897Z"/><path fill="#B88C62" transform="scale(0.875 0.875)" d="M103.897 678.719C104.057 681.549 104.171 684.383 104.241 687.217C103.871 686.419 103.587 685.112 102.676 684.882C98.3523 683.791 14.9731 704.957 0 705.345L0 695.197C19.5073 697.159 27.9806 694.424 46.8864 690.702L95.6317 681.177C98.3187 681.402 100.691 681.912 103.09 680.887L103.897 678.719Z"/><path fill="#B88C62" transform="scale(0.875 0.875)" d="M169.262 713.363C174.495 713.581 182.354 713.255 186.445 716.332L186.716 717.585C178.62 729.697 102.252 731.551 96.4004 723.251C97.8244 720.476 102.038 719.759 104.963 719.607C112.435 727.772 157.382 724.479 168.469 720.932L169.262 713.363Z"/><path fill="#EBAF7E" transform="scale(0.875 0.875)" d="M618.652 211.75C626.383 206.266 635.169 205.463 643.123 211.401L650.417 217.824C669.952 225.959 666.665 219.894 665.081 239.795L663.981 241.358C665.892 241.993 669.464 243.05 671.12 243.899L671.829 243.705C674.94 245.632 675.615 246.575 678.024 249.296C679.083 252.085 680.003 254.25 680.515 257.224L679.872 263.55C677.374 274.14 670.236 276.486 665.694 289.539C665.7 294.157 663.476 301.663 661.119 305.586L660.94 306.008C659.029 307.126 657.549 307.901 655.845 309.343C654.973 310.04 653.235 311.336 652.594 312.109C650.645 314.898 642.059 325.406 639.322 326.075L638.811 326.196C636.077 326.87 632.522 328.893 630.658 328.409L630.379 327.649L628.558 328.05C622.569 325.55 621.726 329.826 618.015 324.365C616.282 325.839 614.193 327.247 613.379 329.253C611.813 329.127 609.496 328.681 608.23 329.316L607.782 330.217C606.555 332.644 604.863 333.576 604.808 336.326L606.062 336.831C599.296 341.856 597.106 342.698 588.377 342.501C583.59 341.403 580.742 338.938 575.784 336.844C575.034 335.164 569.058 330.552 565.938 323.376C563.06 320.087 560.69 308.145 559.91 303.788L559.436 300.429C558.088 293.248 562.028 282.973 565.382 276.733C567.533 272.931 569.022 270.691 571.583 267.135C573.618 263.923 575.436 261.301 576.842 257.755L578.202 253.499C580.624 247.195 581.623 244.1 580.035 237.495C583.47 231.032 590.457 221.372 594.795 215.247C594.917 218.007 594.748 217.822 592.842 220.101L593.048 221.068C596.905 219.961 603.911 217.967 607.226 216.101C606.347 215.034 606.284 215.11 606.003 213.781C609.883 209.953 613.823 210.94 618.652 211.75Z"/><path fill="#A7A4A4" transform="scale(0.875 0.875)" d="M576.842 257.755L580.421 255.608L580.138 256.415C576.69 266.084 566.599 279.461 570.966 289.444C572.212 292.293 572.673 293.648 575.342 294.926L575.438 297.929C576.971 298.698 577.075 298.239 579.289 297.699L582.478 294.473C584.249 297.428 585.676 299.981 587.588 302.866C588.783 304.671 592.163 308.643 592.879 310.002C593.822 310.946 594.338 311.475 595.393 312.321L597.852 313.686C599.273 313.852 609.88 317.918 613.78 318.847L614.36 319.008L615.543 317.639C618.701 317.505 618.81 317.285 621.218 319.702C621.113 320.886 621.03 321.905 620.829 323.086C619.718 323.504 618.953 323.673 618.015 324.365C616.282 325.839 614.193 327.247 613.379 329.253C611.813 329.127 609.496 328.681 608.23 329.316L607.782 330.217C606.555 332.644 604.863 333.576 604.808 336.326L606.062 336.831C599.296 341.856 597.106 342.698 588.377 342.501C583.59 341.403 580.742 338.938 575.784 336.844C575.034 335.164 569.058 330.552 565.938 323.376C563.06 320.087 560.69 308.145 559.91 303.788L559.436 300.429C558.088 293.248 562.028 282.973 565.382 276.733C567.533 272.931 569.022 270.691 571.583 267.135C573.618 263.923 575.436 261.301 576.842 257.755Z"/><path fill="#B6B5B5" transform="scale(0.875 0.875)" d="M565.478 313.854C567.258 310.02 568.581 304.805 573.515 305.805C575.215 309.366 572.874 313.623 577.25 315.121C580.746 316.292 584.678 314.78 586.614 318.492C587.581 320.346 588.662 323.558 590.133 324.933C592.475 327.122 601.324 327.496 600.919 330.946C599.079 332.506 596.863 333.628 596.109 335.34C597.328 335.452 598.546 335.575 599.763 335.71C597.512 339.034 594.366 338.857 590.801 338.514C588.653 339.766 589.343 339.34 588.377 342.501C583.59 341.403 580.742 338.938 575.784 336.844C575.034 335.164 569.058 330.552 565.938 323.376C566.035 319.448 566.121 317.7 565.478 313.854Z"/><path fill="#EBAF7E" transform="scale(0.875 0.875)" d="M588.358 315.692C590.014 314.128 593.151 313.19 595.393 312.321L597.852 313.686C599.273 313.852 609.88 317.918 613.78 318.847L614.36 319.008L615.543 317.639C618.701 317.505 618.81 317.285 621.218 319.702C621.113 320.886 621.03 321.905 620.829 323.086C619.718 323.504 618.953 323.673 618.015 324.365C616.282 325.839 614.193 327.247 613.379 329.253C611.813 329.127 609.496 328.681 608.23 329.316C606.876 329.26 605.776 328.569 604.529 327.969C598.373 328.619 596.199 326.553 594.776 320.725C592.402 319.209 590.505 317.503 588.358 315.692Z"/><path fill="#807F7F" transform="scale(0.875 0.875)" d="M615.543 317.639C618.701 317.505 618.81 317.285 621.218 319.702C621.113 320.886 621.03 321.905 620.829 323.086C619.718 323.504 618.953 323.673 618.015 324.365C616.282 325.839 614.193 327.247 613.379 329.253C611.813 329.127 609.496 328.681 608.23 329.316C606.876 329.26 605.776 328.569 604.529 327.969C609.513 325.352 611.462 323.791 614.36 319.008L615.543 317.639Z"/><path fill="#6E6D6D" transform="scale(0.875 0.875)" d="M588.358 315.692C590.014 314.128 593.151 313.19 595.393 312.321L597.852 313.686C600.149 315.58 600.423 315.236 601.438 317.841C599.949 320.611 597.814 320.419 594.776 320.725C592.402 319.209 590.505 317.503 588.358 315.692Z"/><path fill="#F1B483" transform="scale(0.875 0.875)" d="M582.478 294.473C584.249 297.428 585.676 299.981 587.588 302.866C588.783 304.671 592.163 308.643 592.879 310.002C593.822 310.946 594.338 311.475 595.393 312.321C593.151 313.19 590.014 314.128 588.358 315.692C587.357 314.794 587.277 314.273 586.647 313.02L586.203 313.742C584.594 314.503 582.422 314.494 580.826 313.888C575.316 311.796 578.305 301.029 579.289 297.699L582.478 294.473Z"/><path fill="#6E6D6D" transform="scale(0.875 0.875)" d="M586.647 313.02C586.377 310.743 585.76 308.398 587.267 306.58C589.268 306.681 591.204 308.658 592.879 310.002C593.822 310.946 594.338 311.475 595.393 312.321C593.151 313.19 590.014 314.128 588.358 315.692C587.357 314.794 587.277 314.273 586.647 313.02Z"/><path fill="#6E6D6D" transform="scale(0.875 0.875)" d="M618.652 211.75C626.383 206.266 635.169 205.463 643.123 211.401L650.417 217.824C669.952 225.959 666.665 219.894 665.081 239.795L663.981 241.358L659.814 239.281C656.065 236.652 649.035 233.464 646.263 230.881C636.782 222.042 637.979 216.156 622.789 216.426C620.341 217.353 617.622 218.159 615.61 219.743C610.16 226.837 607.843 233.08 599.569 235.957C586.977 244.888 589.148 246.527 580.421 255.608L576.842 257.755L578.202 253.499C580.624 247.195 581.623 244.1 580.035 237.495C583.47 231.032 590.457 221.372 594.795 215.247C594.917 218.007 594.748 217.822 592.842 220.101L593.048 221.068C596.905 219.961 603.911 217.967 607.226 216.101C606.347 215.034 606.284 215.11 606.003 213.781C609.883 209.953 613.823 210.94 618.652 211.75Z"/><path fill="#807F7F" transform="scale(0.875 0.875)" d="M599.569 235.957C596.638 236.088 589.263 237.692 588.599 232.413C589.594 229.112 593.235 227.132 596.039 225.298L595.728 225.381C599.582 222.078 608.845 219.717 613.971 219.361L615.61 219.743C610.16 226.837 607.843 233.08 599.569 235.957Z"/><path fill="#6E6D6D" transform="scale(0.875 0.875)" d="M622.789 216.426C624.646 212.589 632.589 215.422 636.929 215.228C640.681 217.571 644.8 225.161 645.185 225.258C653.231 227.274 658.29 229.782 659.814 239.281C656.065 236.652 649.035 233.464 646.263 230.881C636.782 222.042 637.979 216.156 622.789 216.426Z"/><path fill="#363E49" transform="scale(0.875 0.875)" d="M638.636 214.221C652.189 228.831 658.579 219.566 665.081 239.795L663.981 241.358L659.814 239.281C658.29 229.782 653.231 227.274 645.185 225.258C644.8 225.161 640.681 217.571 636.929 215.228L638.636 214.221Z"/><path fill="#363E49" transform="scale(0.875 0.875)" d="M613.971 219.361C616.241 209.793 631.499 209.162 638.636 214.221L636.929 215.228C632.589 215.422 624.646 212.589 622.789 216.426C620.341 217.353 617.622 218.159 615.61 219.743L613.971 219.361Z"/><path fill="#B88C62" transform="scale(0.875 0.875)" d="M590.076 287.71C593.613 289.144 597.147 290.652 600.803 291.74L601.294 292.336C603.721 294.931 605.95 297.992 609.096 299.216L613.612 301.61L613.576 302.591C609.177 307.127 612.125 308.008 610.188 310.89C611.162 314.288 613.684 314.442 615.543 317.639L614.36 319.008L613.78 318.847C609.88 317.918 599.273 313.852 597.852 313.686L595.393 312.321C594.338 311.475 593.822 310.946 592.879 310.002C592.163 308.643 588.783 304.671 587.588 302.866C585.676 299.981 584.249 297.428 582.478 294.473L582.72 294.059C586.223 291.425 586.995 293.904 590.076 287.71Z"/><path fill="#DB9866" transform="scale(0.875 0.875)" d="M582.72 294.059L583.882 294.217C590.515 300.92 595.781 305.696 603.622 310.999C605.82 312.486 612.736 316.891 613.78 318.847C609.88 317.918 599.273 313.852 597.852 313.686L595.393 312.321C594.338 311.475 593.822 310.946 592.879 310.002C592.163 308.643 588.783 304.671 587.588 302.866C585.676 299.981 584.249 297.428 582.478 294.473L582.72 294.059Z"/><path fill="#6E6D6D" transform="scale(0.875 0.875)" d="M590.076 287.71C593.613 289.144 597.147 290.652 600.803 291.74L601.294 292.336C596.783 295.389 597.108 296.674 597.421 302.068C594.434 298.934 588.07 295.348 583.882 294.217L582.72 294.059C586.223 291.425 586.995 293.904 590.076 287.71Z"/><path fill="#606061" transform="scale(0.875 0.875)" d="M601.294 292.336C603.721 294.931 605.95 297.992 609.096 299.216C608.016 301.601 608.296 302.163 606.504 303.076C602.298 300.212 603.917 302.935 599.737 303.8L597.421 302.068C597.108 296.674 596.783 295.389 601.294 292.336Z"/><path fill="#6E6D6D" transform="scale(0.875 0.875)" d="M609.096 299.216L613.612 301.61L613.576 302.591C609.177 307.127 612.125 308.008 610.188 310.89C606.347 309.974 602.794 306.41 599.737 303.8C603.917 302.935 602.298 300.212 606.504 303.076C608.296 302.163 608.016 301.601 609.096 299.216Z"/><path fill="#DB9866" transform="scale(0.875 0.875)" d="M671.829 243.705C674.94 245.632 675.615 246.575 678.024 249.296C679.083 252.085 680.003 254.25 680.515 257.224L679.872 263.55C677.374 274.14 670.236 276.486 665.694 289.539C665.7 294.157 663.476 301.663 661.119 305.586L660.94 306.008C659.029 307.126 657.549 307.901 655.845 309.343C654.973 310.04 653.235 311.336 652.594 312.109C650.645 314.898 642.059 325.406 639.322 326.075L638.811 326.196C636.077 326.87 632.522 328.893 630.658 328.409L630.379 327.649C631.878 326.764 633.496 325.632 634.964 324.659C640.649 316.689 650.259 310.543 656.246 301.866C662.517 292.779 663.414 285.628 668.048 276.641C670.268 272.335 677.473 268.366 678.318 261.003C679.269 252.719 675.708 249.937 671.12 243.899L671.829 243.705Z"/><path fill="#B6B5B5" transform="scale(0.875 0.875)" d="M650.718 311.844L652.594 312.109C650.645 314.898 642.059 325.406 639.322 326.075L638.811 326.196C636.077 326.87 632.522 328.893 630.658 328.409L630.379 327.649C631.878 326.764 633.496 325.632 634.964 324.659C637.987 323.28 647.019 314.782 650.718 311.844Z"/><path fill="#606061" transform="scale(0.875 0.875)" d="M665.694 289.539C665.7 294.157 663.476 301.663 661.119 305.586L660.94 306.008C659.029 307.126 657.549 307.901 655.845 309.343C654.973 310.04 653.235 311.336 652.594 312.109L650.718 311.844C656.854 304.098 661.276 298.463 665.694 289.539Z"/><path fill="#DB9866" transform="scale(0.875 0.875)" d="M605.71 290.237C617.505 307.216 622.198 272.524 637.328 270.809C639.852 273.322 641.495 274.836 644.261 277.072C642.53 278.903 642.291 279.06 641.234 281.291C639.018 280.431 636.997 280.106 634.685 280.548L635.435 281.481C632.773 280.802 632.283 280 629.779 281.483C625.706 283.894 623.992 287.931 622.596 292.234C622.398 292.846 622.927 295.478 622.791 296.597L622.459 298.993C619.527 302.521 619.811 302.164 615.003 302.002L614.329 302.488L613.576 302.591L613.612 301.61C616.335 300.33 616.191 301.396 617.223 299.254C614.466 295.154 606.879 299.653 605.71 290.237Z"/><path fill="#242C34" transform="scale(0.875 0.875)" d="M637.328 270.809C639.788 269.599 640.527 268.722 643.239 269.878C653.353 274.188 658.758 278.443 656.645 289.931L655.9 290.732C651.492 282.925 653.858 282.798 644.261 277.072C641.495 274.836 639.852 273.322 637.328 270.809Z"/><path fill="#606061" transform="scale(0.875 0.875)" d="M613.576 302.591L614.329 302.488C617.776 306.656 619.829 309.569 621.777 314.691C621.913 316.179 621.943 317.114 622.287 318.583L621.218 319.702C618.81 317.285 618.701 317.505 615.543 317.639C613.684 314.442 611.162 314.288 610.188 310.89C612.125 308.008 609.177 307.127 613.576 302.591Z"/><path fill="#B88C62" transform="scale(0.875 0.875)" d="M600.803 291.74C599.924 288.631 596.519 281.792 603.507 281.239C601.987 283.997 600.18 283.58 600.614 287.1C603.882 287.736 604.059 287.477 605.71 290.237C606.879 299.653 614.466 295.154 617.223 299.254C616.191 301.396 616.335 300.33 613.612 301.61L609.096 299.216C605.95 297.992 603.721 294.931 601.294 292.336L600.803 291.74Z"/><path fill="#807F7F" transform="scale(0.875 0.875)" d="M575.342 294.926C579.44 288.363 582.688 287.09 590.076 287.71C586.995 293.904 586.223 291.425 582.72 294.059L582.478 294.473L579.289 297.699C577.075 298.239 576.971 298.698 575.438 297.929L575.342 294.926Z"/><defs><linearGradient id="gradient_1" gradientUnits="userSpaceOnUse" x1="643.33667" y1="282.31955" x2="643.01154" y2="293.40433"><stop offset="0" stop-color="#1C1E22"/><stop offset="1" stop-color="#4B3E38"/></linearGradient></defs><path fill="url(#gradient_1)" transform="scale(0.875 0.875)" d="M635.435 281.481L634.685 280.548C636.997 280.106 639.018 280.431 641.234 281.291L646.405 285.506L648.499 292.537L647.316 294.981C646.609 292.279 646.43 290.272 644.562 288.556C641.042 289.01 640.456 288.934 637.775 286.584C637.257 284.441 637.507 284.972 638.562 282.451L637.89 281.621L635.435 281.481Z"/><path fill="#EBAF7E" transform="scale(0.875 0.875)" d="M622.459 298.993C622.768 302.354 623.514 311.962 621.777 314.691C619.829 309.569 617.776 306.656 614.329 302.488L615.003 302.002C619.811 302.164 619.527 302.521 622.459 298.993Z"/><path fill="#DB9866" transform="scale(0.875 0.875)" d="M622.459 298.993L622.791 296.597C623.767 301.605 625.964 314.307 622.287 318.583C621.943 317.114 621.913 316.179 621.777 314.691C623.514 311.962 622.768 302.354 622.459 298.993Z"/><path fill="#DB9866" transform="scale(0.875 0.875)" d="M648.499 292.537L648.647 296.143C646.114 298.635 642.412 299.441 640.687 295.689C643.07 296.036 644.576 296.517 646.787 295.659L647.316 294.981L648.499 292.537Z"/><path fill="#242C34" transform="scale(0.875 0.875)" d="M605.371 245.157C611.211 245.64 624.756 252.875 622.52 259.567L621.275 259.914L619.17 258.539C610.92 251.379 606.428 249.933 595.937 249.025C599.873 246.833 601.046 246.17 605.371 245.157Z"/><path fill="#242C34" transform="scale(0.875 0.875)" d="M605.662 255.721C609.181 256.677 615.964 260.458 614.503 264.837C612.788 263.966 613.552 262.043 612.436 262.132C608.084 262.481 603.915 265.353 604.719 257.185L605.662 255.721Z"/><path fill="#363E49" transform="scale(0.875 0.875)" d="M604.719 257.185C602.665 257.062 602.202 257.02 600.222 256.51L599.935 255.75C602.55 254.99 602.882 255.2 605.662 255.721L604.719 257.185Z"/><path fill="#363E49" transform="scale(0.875 0.875)" d="M0 417.795L76.3241 428.052C87.5903 429.605 104.594 431.49 115.421 433.63C117.123 445.269 118.186 458.832 119.371 470.646L125.195 528.643C126.244 539.439 134.043 612.106 132.05 615.91C128.425 618.684 41.2041 619.061 31.1089 619.915C32.6992 634.547 34.7507 652.386 35.3085 666.983L35.4583 670.89C38.4033 672.315 87.2676 674.673 94.4506 674.897C88.8806 677.126 81.2323 678.187 75.1812 679.215C56.6156 682.37 38.0933 686.403 19.4606 689.028C13.7619 689.831 5.80572 688.902 0 688.364L0 672.912L0 621.339L0 604.82L124.268 604.166C121.765 588.466 120.148 559.434 118.63 542.572C115.343 508.905 112.24 475.221 109.319 441.52C100.172 439.774 88.6435 438.542 79.2956 437.318L28.3635 430.719C19.7141 429.627 8.19148 428.545 0 426.866L0 417.795Z"/><path fill="#242C34" transform="scale(0.875 0.875)" d="M10.528 621.134C18.3678 620.256 23.1513 620.101 31.1089 619.915C32.6992 634.547 34.7507 652.386 35.3085 666.983L35.4583 670.89L34.8047 672.004C30.1033 674.225 18.7587 675.235 13.3033 675.855C13.7871 661.416 10.7836 637.252 10.528 621.134Z"/><path fill="#FFFEFD" transform="scale(0.875 0.875)" d="M3.38817 620.868L3.88337 621.651C3.87688 629.913 4.58141 665.68 2.52362 671.559C1.51642 672.177 1.08907 672.47 0 672.912L0 621.339L3.38817 620.868Z"/><path fill="#606061" transform="scale(0.875 0.875)" d="M3.38817 620.868C5.48257 620.575 7.55285 619.977 9.36998 620.887C8.00311 621.934 5.72619 621.643 3.88337 621.651L3.38817 620.868Z"/><path fill="#5F8932" transform="scale(0.875 0.875)" d="M1024 459.787L1024 469.187C1000.71 482.513 992.894 502.756 982.611 526.014C980.914 529.853 975.673 538.799 974.769 542.097C956.667 547.493 940.938 554.413 929.434 570.342L928.619 569.108C927.322 570.692 925.531 576.513 923.046 579.999C922.538 550.737 926.755 526.065 944.087 501.789C963.695 474.323 991.494 461.98 1024 459.787Z"/><path fill="#5F8932" transform="scale(0.875 0.875)" d="M980.3 359.642C950.347 404.498 956.253 460.826 928.947 506.766C924.619 514.048 919.053 522.755 916.053 530.534L915.753 531.325C914.939 522.538 917.248 504.419 918.343 495.453C914.206 504.155 916.036 522.464 913.539 530.826C908.632 504.076 906.172 489.583 912.803 461.612C921.593 424.531 947.774 380.299 980.3 359.642Z"/><defs><linearGradient id="gradient_2" gradientUnits="userSpaceOnUse" x1="197.76321" y1="611.74701" x2="195.54922" y2="518.79938"><stop offset="0" stop-color="#5A832F"/><stop offset="1" stop-color="#719D3C"/></linearGradient></defs><path fill="url(#gradient_2)" transform="scale(0.875 0.875)" d="M204.494 516.223C205.44 533.412 207.369 540.146 205.134 558.274C214.371 544.432 222.36 541.383 237.941 537.774C224.125 548.448 220.801 554.057 213.335 569.504C213.852 568.978 214.38 568.462 214.918 567.957C226.055 557.408 232.986 556.687 247.551 557.094C237.488 561.467 229.594 567.508 223.85 577.012C222.341 579.51 216.015 590.771 216.175 592.945L218.99 591.625C217.083 594.713 214.378 596.173 213.628 597.788C210.694 601.744 207.617 607.554 207.844 612.589L209.59 613.023L209.786 613.607C196.965 612.728 186.277 613.947 172.287 612.009L172.578 611.114C174.998 611.165 175.709 611.342 177.909 610.517C176.801 609.2 171.368 607.705 169.372 607.048C176.469 605.266 178.825 605.289 186.235 605.628C175.214 593.955 169.382 590.202 153.253 594.755C161.078 585.39 165.497 582.369 177.847 586.441C170.055 571.657 162.901 569.338 147.886 563.768C161.313 562.283 165.471 562.827 177.916 568.73C172.29 557.021 168.117 552.004 158.879 543.478C172.316 545.979 178.465 550.483 186.76 561.234C186.711 560.331 186.674 559.428 186.65 558.524C186.06 537.48 190.427 531.166 204.494 516.223Z"/><path fill="#4A7226" transform="scale(0.875 0.875)" d="M201.358 594.096L202.207 594.9C202.774 599.089 202.569 608.832 202.249 613.09L201.591 612.5C200.893 610.089 201.312 597.382 201.358 594.096Z"/><path fill="#4A7226" transform="scale(0.875 0.875)" d="M788.129 688.068C800.313 679.095 817.004 676.218 831.776 678.382C847.389 680.512 861.493 688.825 870.919 701.454C875.313 707.414 878.573 714.132 880.537 721.272C884.347 735.116 882.998 746.079 885.164 758.462C888.183 775.724 894.951 801.149 894.475 818.638L896.459 820.715C896.955 827.048 896.277 834.497 896.973 840.097L891.946 839.895L892.05 839.206C891.824 832.848 891.556 826.491 891.249 820.137L890.838 817.592C889.923 803.813 886.147 771.713 881.588 758.962C874.751 751.836 865.905 745.442 859.675 738.758C838.983 716.558 828.132 695.612 796.191 688.844L788.129 688.068Z"/><path fill="#5F8932" transform="scale(0.875 0.875)" d="M796.191 688.844C812.657 686.349 834.197 695.184 847.555 704.61C863.411 715.798 878.58 739.846 881.588 758.962C874.751 751.836 865.905 745.442 859.675 738.758C838.983 716.558 828.132 695.612 796.191 688.844Z"/><path fill="#5F8932" transform="scale(0.875 0.875)" d="M894.475 818.638L896.459 820.715C896.955 827.048 896.277 834.497 896.973 840.097L891.946 839.895L892.05 839.206C893.305 839.398 893.725 839.252 894.994 839.084C896.852 836.082 894.871 822.971 894.475 818.638Z"/><path fill="#E1E0E0" transform="scale(0.875 0.875)" d="M166.044 611.811L172.578 611.114L172.287 612.009C186.277 613.947 196.965 612.728 209.786 613.607C213.792 613.838 216.967 613.888 220.983 613.826C221.11 638.15 219.75 651.484 207.438 673.45C201.492 673.664 197.096 673.762 191.126 673.46C186.845 662.1 182.054 660.176 170.383 661.862C170.443 656.966 171.163 652.582 168.333 648.702C169.086 645.377 166.374 629.651 166.189 624.899C166.018 620.48 165.931 616.496 166.044 611.811Z"/><defs><linearGradient id="gradient_3" gradientUnits="userSpaceOnUse" x1="631.26233" y1="238.2319" x2="654.98267" y2="195.50108"><stop offset="0" stop-color="#444344"/><stop offset="1" stop-color="#666565"/></linearGradient></defs><path fill="url(#gradient_3)" transform="scale(0.875 0.875)" d="M638.021 195.542C648.442 194.82 659.38 194.219 667.638 201.827C673.073 206.833 680.715 215.698 684.591 222.084C685.067 222.869 684.852 222.55 685.587 223.321C692.296 229.238 696.438 237.791 691.622 246.351C688.706 248.21 685.219 249.913 684.02 253.045L684.738 254.45C684.243 255.866 684.485 255.362 683.462 256.532C682.41 254.964 680.92 251.972 680.327 250.171L678.024 249.296C675.615 246.575 674.94 245.632 671.829 243.705L671.12 243.899C669.464 243.05 665.892 241.993 663.981 241.358L665.081 239.795C666.665 219.894 669.952 225.959 650.417 217.824L643.123 211.401C635.169 205.463 626.383 206.266 618.652 211.75C613.823 210.94 609.883 209.953 606.003 213.781C606.284 215.11 606.347 215.034 607.226 216.101C603.911 217.967 596.905 219.961 593.048 221.068L592.842 220.101C594.748 217.822 594.917 218.007 594.795 215.247C597.157 212.515 601.221 209.694 604.203 207.448C609.408 202.751 613.873 201.621 620.656 200.656L621.153 200.812C626.622 199.626 630.084 196.974 638.021 195.542Z"/><path fill="#606061" transform="scale(0.875 0.875)" d="M684.745 224.263L685.587 223.321C692.296 229.238 696.438 237.791 691.622 246.351C688.706 248.21 685.219 249.913 684.02 253.045L684.738 254.45C684.243 255.866 684.485 255.362 683.462 256.532C682.41 254.964 680.92 251.972 680.327 250.171L678.024 249.296C675.615 246.575 674.94 245.632 671.829 243.705C673.686 241.756 679.432 239.311 680.702 238.397C683.296 236.529 684.025 227.711 684.745 224.263Z"/><path fill="#363E49" transform="scale(0.875 0.875)" d="M684.745 224.263C686.624 232.612 683.359 233.809 685.128 240.111C685.805 242.524 686.911 243.024 686.401 246.108C684.857 249.103 683.514 249.379 680.327 250.171L678.024 249.296C675.615 246.575 674.94 245.632 671.829 243.705C673.686 241.756 679.432 239.311 680.702 238.397C683.296 236.529 684.025 227.711 684.745 224.263Z"/><path fill="#363E49" transform="scale(0.875 0.875)" d="M621.153 200.812C626.622 199.626 630.084 196.974 638.021 195.542C643.808 196.934 646.947 200.111 651.383 203.879C640.367 198.519 635.158 200.129 623.255 202.278C622.101 202.486 621.748 201.577 621.153 200.812Z"/><path fill="#606061" transform="scale(0.875 0.875)" d="M604.203 207.448C609.408 202.751 613.873 201.621 620.656 200.656C616.981 205.601 609.987 206.647 604.203 207.448Z"/><path fill="#606061" transform="scale(0.875 0.875)" d="M643.123 211.401C647.403 210.5 650.165 211.64 652.459 215.683L652.46 217.287C651.674 217.523 651.228 217.683 650.417 217.824L643.123 211.401Z"/><path fill="#4A7226" transform="scale(0.875 0.875)" d="M798.492 384.305C807.135 382.668 810.666 382.482 819.361 383.104L819.911 383.432C828.292 388.315 836.522 391 845.108 396.574C866.062 410.173 879.796 430.503 888.767 453.477C891.235 459.811 897.348 472.385 896.311 478.961C888.581 471.428 874.928 455.669 869.494 446.355C850.219 413.315 839.198 393.249 798.492 384.305Z"/><path fill="#5F8932" transform="scale(0.875 0.875)" d="M819.361 383.104C844.056 385.971 867.81 397.559 883.493 417.168C894.507 430.837 901.073 447.549 902.31 465.059C902.786 472.227 902.658 480.843 903.621 487.723L902.031 486.513C900.922 487.122 900.878 487.07 900.055 488.007C899.443 483.665 899.117 482.29 896.311 478.961C897.348 472.385 891.235 459.811 888.767 453.477C879.796 430.503 866.062 410.173 845.108 396.574C836.522 391 828.292 388.315 819.911 383.432L819.361 383.104Z"/><path fill="#6E6D6D" transform="scale(0.875 0.875)" d="M683.462 256.532C684.485 255.362 684.243 255.866 684.738 254.45L684.02 253.045C685.219 249.913 688.706 248.21 691.622 246.351C693.855 247.428 695.889 248.164 696.752 250.8C701.97 266.744 681.057 294.742 667.672 302.632C665.515 303.581 663.219 304.543 661.119 305.586C663.476 301.663 665.7 294.157 665.694 289.539C670.236 276.486 677.374 274.14 679.872 263.55L680.515 257.224C680.003 254.25 679.083 252.085 678.024 249.296L680.327 250.171C680.92 251.972 682.41 254.964 683.462 256.532Z"/><path fill="#363E49" transform="scale(0.875 0.875)" d="M678.024 249.296L680.327 250.171C680.92 251.972 682.41 254.964 683.462 256.532C684.888 260.365 684.87 262.205 684.646 266.336C679.909 266.226 681.053 260.833 680.591 257.713L680.515 257.224C680.003 254.25 679.083 252.085 678.024 249.296Z"/><path fill="#606061" transform="scale(0.875 0.875)" d="M680.515 257.224L680.591 257.713C681.053 260.833 679.909 266.226 684.646 266.336C683.829 267.523 682.826 267.349 682.411 269.051C682.07 270.452 680.924 272.13 680.172 273.39L679.734 273.157C680.14 269.05 680.179 267.658 679.872 263.55L680.515 257.224Z"/><path fill="#D7D4D6" transform="scale(0.875 0.875)" d="M227.515 611.086C229.831 611.164 231.616 610.893 233.333 612.268C235.767 621.971 229.052 656.091 225.498 666.782L269.846 666.678C274.733 666.671 288.741 666.411 293.192 667.198C282.691 667.167 239.723 666.938 226.11 667.404C225.758 667.731 225.405 668.058 225.053 668.386C224.687 669.684 224.563 671.3 223.644 671.656C219.858 673.122 211.495 673.299 207.438 673.45C219.75 651.484 221.11 638.15 220.983 613.826C216.967 613.888 213.792 613.838 209.786 613.607L209.59 613.023C214.758 612.993 222.282 613.178 227.11 611.955L227.515 611.086Z"/><path fill="#EBAF7E" transform="scale(0.875 0.875)" d="M35.3085 666.983C57.878 666.967 81.1307 666.644 103.634 666.904L103.897 678.719L103.09 680.887C100.691 681.912 98.3187 681.402 95.6317 681.177C95.6571 678.427 96.0225 676.768 94.4506 674.897C87.2676 674.673 38.4033 672.315 35.4583 670.89L35.3085 666.983Z"/><path fill="#EBAF7E" transform="scale(0.875 0.875)" d="M565.382 276.733C560.376 273.551 560.04 268.547 561.593 263.179C563.898 255.208 568.636 234.209 580.035 237.495C581.623 244.1 580.624 247.195 578.202 253.499L576.842 257.755C575.436 261.301 573.618 263.923 571.583 267.135C569.022 270.691 567.533 272.931 565.382 276.733Z"/><path fill="#DB9866" transform="scale(0.875 0.875)" d="M577.034 252.307L578.202 253.499L576.842 257.755C575.436 261.301 573.618 263.923 571.583 267.135C570.094 266.585 569.169 265.795 567.886 264.873C566.015 259.494 566.891 255.143 572.478 252.944L576.57 253.327L577.034 252.307Z"/><path fill="#B88C62" transform="scale(0.875 0.875)" d="M567.886 264.873C566.015 259.494 566.891 255.143 572.478 252.944L576.57 253.327C575.536 255.872 570.768 257.905 567.886 264.873Z"/><path fill="#B88C62" transform="scale(0.875 0.875)" d="M568.32 250.619C569.425 247.05 571.054 240.533 575.859 242.016C578.4 245.224 577.456 248.024 577.034 252.307L576.57 253.327L572.478 252.944C573.48 252.663 574.022 252.416 574.998 252.027C576.229 249.745 575.79 246.626 575.725 243.877C573.379 245.773 570.577 248.521 568.32 250.619Z"/><path fill="#DB9866" transform="scale(0.875 0.875)" d="M661.119 305.586C663.219 304.543 665.515 303.581 667.672 302.632C670.829 305.89 670.995 307.908 668.532 311.816C663.882 318.303 646.441 334.498 638.166 328.95L639.322 326.075C642.059 325.406 650.645 314.898 652.594 312.109C653.235 311.336 654.973 310.04 655.845 309.343C657.549 307.901 659.029 307.126 660.94 306.008L661.119 305.586Z"/><path fill="#B88C62" transform="scale(0.875 0.875)" d="M652.594 312.109C653.235 311.336 654.973 310.04 655.845 309.343C659.496 315.969 654.542 324.056 648.032 322.309C649.225 318.008 653.383 321.93 652.594 312.109Z"/><path fill="#B88C62" transform="scale(0.875 0.875)" d="M662.172 309.476C663.438 307.762 663.437 307.883 665.477 307.075L667.164 307.356C668.083 309.129 667.763 309.996 666.58 311.789C664.226 314.635 661.912 316.975 659.333 319.62C660.667 317.188 663.749 312.396 663.73 309.997L662.172 309.476Z"/><defs><linearGradient id="gradient_4" gradientUnits="userSpaceOnUse" x1="226.96545" y1="587.29272" x2="231.51587" y2="597.99536"><stop offset="0" stop-color="#4F752D"/><stop offset="1" stop-color="#5D8B36"/></linearGradient></defs><path fill="url(#gradient_4)" transform="scale(0.875 0.875)" d="M218.99 591.625C220.018 589.595 222.957 587.677 225.087 587.024C234.322 584.19 242.938 588.215 250.359 593.113C239.234 592.364 233.6 592.186 223.556 598.568C221.524 599.86 218.534 602.58 216.886 603.57C215.101 601.334 214.78 600.35 213.628 597.788C214.378 596.173 217.083 594.713 218.99 591.625Z"/><path fill="#5F8932" transform="scale(0.875 0.875)" d="M213.628 597.788C214.78 600.35 215.101 601.334 216.886 603.57L216.255 605.214C217.574 605.755 225.618 606.293 228.113 606.659C226.405 607.523 223.181 608.806 222.377 610.308C224.169 611.358 225.338 611.101 227.515 611.086L227.11 611.955C222.282 613.178 214.758 612.993 209.59 613.023L207.844 612.589C207.617 607.554 210.694 601.744 213.628 597.788Z"/><path fill="#1C4366" transform="scale(0.875 0.875)" d="M82.4061 74.4433L302.21 74.458L302.251 253.833C302.26 295.009 302.803 337.208 302.13 378.272L82.3924 378.327L82.4061 74.4433Z"/><path fill="#FFFEFD" transform="scale(0.875 0.875)" d="M92.4653 84.4155L292.234 84.4269L292.192 368.448L92.4074 368.321C92.8089 336.303 92.4528 303.421 92.4545 271.338L92.4653 84.4155Z"/><path fill="#7CAD3D" transform="scale(0.875 0.875)" d="M221.092 255.382C222.678 255.761 222.642 255.902 224.043 256.752C226.549 261.344 223.28 266.52 219.936 269.656C200.264 288.107 199.951 293.149 201.678 320.087C192.963 319.675 186.74 319.701 178.028 320.073C179.502 307.34 180.554 297.165 174.601 285.352C169.354 279.409 150.47 268.037 153.706 259.483C155.912 257.948 154.869 258.309 157.744 258.284C162.292 260.714 165.812 265.984 169.58 269.552C193.156 291.876 205.413 272.008 221.092 255.382Z"/><path fill="#7CAD3D" transform="scale(0.875 0.875)" d="M179.661 326.334C188.346 325.888 244.618 326.499 246.14 335.077C243.344 335.613 225.539 331.709 220.925 331.265C215.787 330.771 208.164 329.938 202.785 329.473C181.413 329.1 162.348 329.723 141.431 334.518C139.607 334.936 136.417 335.448 134.68 334.904L135.253 333.886C143.316 328.862 169.251 327.028 179.661 326.334Z"/><path fill="#7CAD3D" transform="scale(0.875 0.875)" d="M187.526 256.696C192.548 255.452 197.656 258.399 199.092 263.37C200.529 268.34 197.781 273.558 192.87 275.185C189.52 276.296 185.831 275.484 183.255 273.071C180.68 270.657 179.631 267.029 180.522 263.614C181.412 260.198 184.1 257.544 187.526 256.696Z"/><path fill="#7CAD3D" transform="scale(0.875 0.875)" d="M202.813 182.029C216.022 181.887 221.841 188.865 215.045 201.074C198.632 211.418 202.276 191.567 202.813 182.029Z"/><path fill="#FFFEFD" transform="scale(0.875 0.875)" d="M206.846 185.64C214.223 188.077 214.49 191.749 211.768 198.524C209.556 199.409 208.743 199.661 207.116 198.015C205.971 194.762 206.643 189.271 206.846 185.64Z"/><path fill="#1C4366" transform="scale(0.875 0.875)" d="M231.827 215.528C243.067 216.303 243.707 229.809 235.285 236.238C224.187 236.531 223.413 222.498 231.827 215.528Z"/><path fill="#FFFEFD" transform="scale(0.875 0.875)" d="M233.025 218.734C239.501 222.125 238.116 227.992 234.504 233.046C227.173 230.989 229.093 223.317 233.025 218.734Z"/><path fill="#1C4366" transform="scale(0.875 0.875)" d="M166.874 118.077C177.345 120.289 176.871 136.065 173.021 138.552L170.94 137.76C158.542 139.526 157.518 124.713 166.874 118.077Z"/><path fill="#FFFEFD" transform="scale(0.875 0.875)" d="M166.794 121.838L169.184 122.465C172.228 125.134 172.931 127.686 170.886 131.195C168.961 131.661 168.749 131.717 167.347 133.107L167.54 133.937L167.069 134.377C162.008 130.532 163.347 126.224 166.794 121.838Z"/><path fill="#1C4366" transform="scale(0.875 0.875)" d="M211.569 215.854C223.883 216.268 228.638 222.918 222.353 233.901C219.234 235.923 216.486 236.952 213.176 235.01C210.366 230.442 211.425 221.537 211.569 215.854Z"/><path fill="#FFFEFD" transform="scale(0.875 0.875)" d="M215.181 219.242C222.329 221.018 222.025 225.096 220.051 231.163C218.042 232.025 217.646 232.48 215.796 231.605C214.396 228.458 215.083 222.992 215.181 219.242Z"/><path fill="#7CAD3D" transform="scale(0.875 0.875)" d="M195.404 193.537C195.302 190.308 194.626 184.502 196.588 182.127L198.035 182.17C200.415 184.988 199.308 199.465 199.148 204.077C193.825 202.259 191.815 196.429 189.154 191.314C189.29 195.098 190.077 200.184 187.929 203.055L186.462 203.095C184.157 200.588 185.438 185.741 185.595 181.542C191.07 183.008 192.944 188.783 195.404 193.537Z"/><path fill="#7CAD3D" transform="scale(0.875 0.875)" d="M153.495 182.533C157.666 182.34 161.191 181.65 164.493 184.146C167.136 189.469 163.744 190.989 163.684 195.851C163.667 197.181 165.899 200.573 165.326 203.122C163.513 203.926 164.271 203.778 161.961 203.094L158.131 194.134C157.665 197.776 157.799 199.56 155.874 202.672L154.914 202.655C152.708 197.988 153.396 187.922 153.495 182.533Z"/><path fill="#FFFEFD" transform="scale(0.875 0.875)" d="M157.541 185.49C159.762 185.932 159.673 185.875 161.566 187.095C162.497 189.702 162.151 189.07 161.599 192.193C159.886 192.209 159.817 192.303 158.167 191.647C156.919 189.221 157.419 188.471 157.541 185.49Z"/><path fill="#7CAD3D" transform="scale(0.875 0.875)" d="M141.551 181.845C145.965 181.542 147.735 181.912 149.749 185.902C148.387 187.399 145.277 185.995 141.24 187.491C136.967 191.665 140.339 198.929 144.914 199.976C146.491 198.428 145.901 199.351 146.43 196.939C144.319 194.85 143.841 194.901 143.972 191.999C146.917 191.93 148.02 191.79 150.203 193.274C154.006 202.531 144.361 207.813 137.612 199.648C135.696 197.374 134.811 194.406 135.167 191.454C135.742 186.959 138.279 184.455 141.551 181.845Z"/><path fill="#7CAD3D" transform="scale(0.875 0.875)" d="M174.293 181.592C175.092 181.876 176.804 182.285 177.216 182.98C179.227 186.368 184.574 199.778 181.06 202.734C178.62 201.953 178.616 201.108 176.828 198.765C174.127 199.751 172.442 201.083 170.115 202.704L169.091 202.463C168.077 198.874 172.375 185.003 174.293 181.592Z"/><path fill="#1C4366" transform="scale(0.875 0.875)" d="M121.825 216.219C125.889 216.148 129.232 215.547 132.276 218.135C133.518 221.085 131.793 224.26 131.921 227.976C132.046 231.595 133.584 233.088 132.67 235.751C130.847 235.899 131.782 236.019 129.893 234.82C128.817 231.829 127.341 228.923 125.972 226.044C125.889 229.895 126.017 231.314 124.543 234.891L123.58 235.141C121.242 230.452 121.753 221.578 121.825 216.219Z"/><path fill="#1C4366" transform="scale(0.875 0.875)" d="M204.509 118.373C209.34 120.131 211.323 125.581 213.675 130.16C213.46 125.943 213.263 124.479 214.276 120.419L215.043 119.96C217.706 124.225 217.148 133.503 216.525 138.391C212.071 136.742 210.157 131.104 207.888 126.63C207.855 129.933 208.328 135.761 206.631 137.943L205.777 137.724C203.773 133.606 204.435 123.304 204.509 118.373Z"/><path fill="#7CAD3D" transform="scale(0.875 0.875)" d="M220.196 182.184C223.085 182.234 228.536 181.897 230.537 183.64C229.397 186.176 223.891 185.821 224.473 189.839C225.916 190.502 227.209 191.042 228.684 191.632L228.892 192.823C227.069 194.875 227.821 194.223 224.865 195.078C223.671 197.08 224.145 196.997 224.326 199.857C227.046 199.786 227.769 199.651 230.249 200.684L230.688 201.759C227.304 204.399 224.229 203.749 219.979 203.534C219.905 198.048 219.518 187.185 220.196 182.184Z"/><path fill="#7CAD3D" transform="scale(0.875 0.875)" d="M236.494 181.917C240.519 182.061 241.455 181.852 244.246 184.785C243.549 186.425 241.136 185.588 238.167 187.307L237.938 188.487C241.11 194.861 252.251 197.18 240.552 204.028C239.564 203.986 238.581 203.874 237.609 203.692C235.184 203.229 233.878 202.134 232.525 200.156C234.185 198.679 236.822 199.44 240.143 198.397C241.455 192.361 226.67 192.649 236.494 181.917Z"/><path fill="#1C4366" transform="scale(0.875 0.875)" d="M201.128 215.31C202.313 215.817 202.901 216.211 203.997 216.86C206.303 220.123 210.325 231.451 207.693 234.922C205.567 234.074 206.046 233.929 204.526 231.495L201.579 232.065C199.888 233.704 199.716 233.978 197.644 234.987L196.669 234.595C195.616 230.772 199.794 219.564 201.128 215.31Z"/><path fill="#1C4366" transform="scale(0.875 0.875)" d="M147.676 149.995C161.328 149.696 163.743 160.2 151.851 163.364C150.737 165.379 152.668 166.035 150.073 169.07L149.127 168.806C147.046 164.863 147.628 154.74 147.676 149.995Z"/><path fill="#FFFEFD" transform="scale(0.875 0.875)" d="M151.587 152.265C153.7 153.03 153.611 152.958 155.238 154.494C155.946 156.581 155.437 157.326 154.73 159.566C153.46 159.518 153.389 159.446 152.137 159.167C150.801 156.549 151.402 155.573 151.587 152.265Z"/><path fill="#1C4366" transform="scale(0.875 0.875)" d="M206.433 149.61L208.797 150.484C211.265 153.33 215.497 164.763 212.923 168.094C210.736 167.49 211.223 167.276 209.53 164.819C205.716 165.676 205.706 167.633 202.719 168.567L201.956 167.93C201.28 163.641 204.955 154.104 206.433 149.61Z"/><path fill="#1C4366" transform="scale(0.875 0.875)" d="M164.09 149.519C170.361 150.968 173.486 164.583 170.693 168.158C168.647 167.242 169.261 167.447 167.909 165.018C162.718 165.015 163.766 167.552 160.276 167.862C158.957 165.177 163.1 152.977 164.09 149.519Z"/><path fill="#1C4366" transform="scale(0.875 0.875)" d="M224.247 118.41C225.316 118.648 225.944 118.936 226.956 119.324C229.451 122.37 233.259 133.462 230.838 136.999C228.854 136.515 229.392 136.463 227.861 134.161C223.218 134.286 224.198 136.668 220.185 137.24L219.63 136.299C220.055 132.385 223.038 122.67 224.247 118.41Z"/><path fill="#1C4366" transform="scale(0.875 0.875)" d="M136.573 118.818C148.754 118.821 152.785 127.334 141.144 132.017L140.392 132.356C140.174 135.019 140.129 136.786 137.939 138.43L137.313 137.921C136.189 135.216 136.568 122.545 136.573 118.818Z"/><path fill="#FFFEFD" transform="scale(0.875 0.875)" d="M140.295 121.195C142.155 121.831 142.195 121.94 143.745 123.017C144.684 125.606 144.382 124.836 143.835 127.917C142.119 128.204 142.197 128.306 140.618 127.643C139.442 125.689 140.036 123.614 140.295 121.195Z"/><path fill="#1C4366" transform="scale(0.875 0.875)" d="M160.563 215.806C168.051 217.55 160.543 230.935 167.21 232.581C170.332 229.015 168.195 219.068 171.362 216.329C172.951 217.531 172.483 217.481 173.1 219.988C173.079 225.592 173.422 235.207 166.667 236.909C159.002 234.354 160.399 222.22 160.563 215.806Z"/><path fill="#1C4366" transform="scale(0.875 0.875)" d="M175.052 149.618C180.941 152.969 175.861 164.309 181.142 166.198C184.069 163.138 182.301 152.779 184.993 150.278C186.663 151.736 186.173 151.55 186.858 154.154C187.158 159.917 187.824 168.029 180.647 169.316C172.645 167.217 174.1 155.853 175.052 149.618Z"/><path fill="#1C4366" transform="scale(0.875 0.875)" d="M177.639 118.347C183.472 121.513 179.123 133.435 184.03 135.075C186.669 131.04 185.131 122.768 187.841 119.327L188.861 119.654L189.372 122.021C189.593 127.586 190.508 137.41 183.263 138.639C175.68 136.272 177.015 124.546 177.639 118.347Z"/><path fill="#1C4366" transform="scale(0.875 0.875)" d="M246.195 215.629C249.324 216.259 249.977 216.371 252.434 218.351L252.379 219.208C250.164 219.671 248.95 219.933 246.83 220.7L246.397 221.683C248.929 227.729 260.304 230.167 248.21 236.829C247.817 236.681 247.427 236.528 247.037 236.371C244.455 235.328 243.068 234.781 241.939 232.119C243.055 231.504 246.176 232.072 248.784 231.717L249.444 230.837C248.181 224.734 235.439 223.729 246.195 215.629Z"/><path fill="#1C4366" transform="scale(0.875 0.875)" d="M150.955 215.716L151.464 215.749C154.286 215.907 156.302 216.471 157.651 219.137C155.042 220.978 153.662 218.668 151.412 220.796C152.54 225.455 158.637 225.433 158.271 232.279C157.05 234.729 156.393 234.993 154.056 236.502C151.207 235.765 147.901 235.24 147.714 232.05L148.76 231.227C150.34 231.596 151.924 231.947 153.512 232.279L154.378 231.562L154.36 229.548C151.425 223.857 141.929 224.5 150.955 215.716Z"/><path fill="#1C4366" transform="scale(0.875 0.875)" d="M193.352 149.095C196.201 149.829 198.866 150.416 199.248 153.532L198.49 153.884C196.612 153.707 195.358 153.393 193.615 154.081C193.985 158.124 200.154 160.051 199.381 166.008C198.155 168.548 197.433 168.744 194.995 170.271C192.019 169.158 190.802 168.513 188.852 166.006C190.043 164.786 192.333 166.198 195.583 164.699L195.728 163.455C192.701 156.992 183.571 157.499 193.352 149.095Z"/><path fill="#1C4366" transform="scale(0.875 0.875)" d="M136.2 216.248C138.96 216.221 144.57 215.453 145.328 218.369L144.449 219.25C141.521 219.54 140.615 219.142 139.313 221.782L139.769 223.032L143.247 224.642C144.836 227.363 140.395 225.926 139.192 231.749C142.081 232.783 142.896 231.615 145.232 233.959L144.991 234.926C142.248 236.115 139.146 235.833 136.129 235.81L136.2 216.248Z"/><path fill="#1C4366" transform="scale(0.875 0.875)" d="M237.751 117.979C240.882 118.715 242.699 118.641 243.576 122.093L242.75 122.774C240.481 122.206 240.206 121.995 238.062 122.633C238.348 126.758 245.35 128.731 244.118 135.424C242.557 137.725 241.973 137.88 239.415 139.07C236.772 138.082 234.914 137.468 233.67 134.836C235.169 133.685 237.471 135.265 240.657 133.75L240.722 132.386C237.54 126.09 228.379 126.289 237.751 117.979Z"/><path fill="#1C4366" transform="scale(0.875 0.875)" d="M220.462 149.182L220.97 149.309C223.725 150.03 224.79 150.329 226.133 152.617L225.392 153.683C224.165 153.718 223.643 153.71 222.452 153.554L221.442 153.418L220.246 154.565C221.449 159.349 226.659 158.797 226.699 165.581C225.611 168.068 224.929 168.366 222.664 169.944C220.392 169.546 216.09 168.216 216.264 165.431C218.945 164.419 220.651 165.778 222.974 164.704C222.451 159.41 210.039 157.182 220.462 149.182Z"/><path fill="#1C4366" transform="scale(0.875 0.875)" d="M149.699 119.035C153.14 118.941 156.265 118.106 158.654 120.584C157.794 122.151 155.744 122.295 153.551 123.008L152.96 124.924C153.864 126.73 154.257 126.343 156.779 127.361L157.079 128.392C153.551 130.844 153.505 130.371 153.199 134.5C155.663 134.789 156.738 134.698 158.741 136.088L158.349 137.002C154.99 138.45 153.195 138.194 149.541 138.125C149.51 131.761 149.563 125.397 149.699 119.035Z"/><path fill="#1C4366" transform="scale(0.875 0.875)" d="M192.589 118.912C194.917 118.868 199.583 118.435 201.27 119.555L201.503 120.879L200.543 122.001C197.448 122.104 196.727 121.621 195.649 124.548C196.857 126.803 197.511 125.527 200.138 127.839C195.833 132.207 196.58 128.763 195.285 134.33C197.599 134.873 200.578 134.196 201.692 136.507C199.529 138.502 195.161 138.987 192.815 137.014C191.977 132.799 192.476 123.635 192.589 118.912Z"/><path fill="#1C4366" transform="scale(0.875 0.875)" d="M184.626 216.02C188.056 216.012 193.504 215.502 195.921 217.469C195.366 219.348 194.946 218.985 192.526 220.308C191.298 222.369 191.666 230.181 191.649 232.985C191.571 233.908 191.282 234.531 190.983 235.443L189.937 235.709C186.529 232.345 189.765 224.948 188.037 220.187C184.604 219.055 184.908 219.312 184.626 216.02Z"/><path fill="#1C4366" transform="scale(0.875 0.875)" d="M176.303 215.338C177.185 215.779 177.879 216.269 178.704 216.804C179.778 219.843 179.451 227.702 179.454 231.369C181.365 233.497 181.956 231.035 185.314 233.402L185.587 235.557C182.706 235.77 178.931 235.725 175.97 235.771C175.881 230.67 175.475 219.971 176.303 215.338Z"/><path fill="#1C4366" transform="scale(0.875 0.875)" d="M255.935 215.976C261.53 217.625 259.33 225.585 258.02 229.991L256.642 228.905C255.374 224.618 255.672 220.393 255.935 215.976Z"/></svg>