<?xml version="1.0" encoding="UTF-8" standalone="no"?>
<!DOCTYPE svg PUBLIC "-//W3C//DTD SVG 1.1//EN" "http://www.w3.org/Graphics/SVG/1.1/DTD/svg11.dtd">
<svg xmlns="http://www.w3.org/2000/svg" version="1.1" viewBox="0.00 0.00 1024.00 1024.00">
<g stroke-width="2.00" fill="none" stroke-linecap="butt">
<path stroke="#9e8e9b" vector-effect="non-scaling-stroke" d="
  M 466.07 303.75
  Q 465.11 306.47 461.99 309.25
  Q 457.33 313.40 452.72 317.46
  Q 447.67 321.90 441.90 325.50
  A 1.00 0.99 67.8 0 1 440.41 324.87
  Q 440.15 323.68 439.32 323.02"
/>
<path stroke="#9e8e9b" vector-effect="non-scaling-stroke" d="
  M 545.70 449.92
  Q 528.71 444.15 512.00 443.85
  Q 496.24 443.56 475.86 446.55"
/>
<path stroke="#68485f" vector-effect="non-scaling-stroke" d="
  M 611.70 367.76
  Q 611.09 367.92 610.72 367.60
  Q 605.01 362.70 597.15 354.23
  Q 593.42 350.22 579.29 338.83
  C 576.79 336.81 573.75 335.48 570.82 335.11
  Q 555.08 333.09 542.22 329.13"
/>
<path stroke="#c27d57" vector-effect="non-scaling-stroke" d="
  M 542.22 329.13
  Q 539.29 327.47 538.38 325.63
  Q 536.60 322.03 536.33 317.97
  Q 535.82 310.14 536.34 302.53
  A 1.71 1.70 -11.6 0 1 537.28 301.11
  C 544.32 297.57 551.17 292.85 554.40 285.76
  Q 556.17 281.86 557.03 276.38
  A 0.59 0.58 -75.4 0 1 557.81 275.92
  L 559.65 276.61
  A 1.25 1.24 -74.9 0 1 560.43 277.98
  Q 560.30 278.76 560.49 278.98
  A 0.46 0.46 0.0 0 0 561.26 278.89
  C 564.98 271.49 567.21 267.19 566.88 259.90
  A 3.43 3.43 0.0 0 0 563.13 256.64
  L 563.11 256.64
  A 3.95 3.95 0.0 0 0 559.53 260.79
  C 559.67 263.28 560.18 267.75 558.45 269.56
  A 0.50 0.49 -27.2 0 1 557.60 269.29
  L 554.27 245.79
  A 5.35 5.23 27.5 0 0 553.68 243.99
  C 550.26 237.68 546.69 231.62 546.70 224.76
  A 0.19 0.19 0.0 0 0 546.33 224.72
  Q 545.75 227.03 544.72 228.75
  Q 539.43 237.60 531.03 243.75
  Q 527.40 246.41 520.42 248.68
  A 1.34 1.31 7.8 0 0 519.75 249.18
  Q 518.90 250.42 517.27 250.97
  Q 510.18 253.32 503.48 254.61
  Q 502.52 254.80 501.68 254.69
  A 0.25 0.25 0.0 0 1 501.46 254.47
  L 501.41 254.14
  A 0.20 0.20 0.0 0 1 501.58 253.91
  Q 507.28 252.90 512.72 249.85
  A 0.18 0.17 -20.8 0 0 512.80 249.69
  L 512.76 249.41
  A 0.33 0.33 0.0 0 0 512.30 249.16
  Q 507.25 251.50 501.82 251.85
  A 1.21 1.16 15.2 0 0 500.94 252.33
  Q 498.03 256.32 497.21 259.20
  Q 496.31 262.41 496.15 262.61
  A 0.39 0.39 0.0 0 1 495.49 262.52
  Q 494.86 261.05 494.84 259.73
  A 2.24 2.19 34.3 0 0 494.67 258.88
  Q 492.71 254.27 487.04 256.66"
/>
<path stroke="#8ead83" vector-effect="non-scaling-stroke" d="
  M 542.68 462.47
  Q 508.70 458.46 474.56 457.13"
/>
<path stroke="#9e8e9b" vector-effect="non-scaling-stroke" d="
  M 542.22 329.13
  Q 540.49 334.58 537.41 338.63
  Q 532.67 344.87 525.66 345.75
  C 515.31 347.06 507.35 340.47 506.22 330.02"
/>
<path stroke="#1e8968" vector-effect="non-scaling-stroke" d="
  M 594.21 589.60
  Q 605.45 586.08 617.19 584.98
  C 623.98 584.34 630.44 585.25 637.46 585.77
  Q 639.49 585.92 643.99 586.84
  C 648.60 587.79 652.36 589.70 656.62 591.43
  A 0.29 0.28 20.7 0 0 656.99 591.27
  L 656.99 591.25
  A 0.26 0.26 0.0 0 0 656.85 590.92
  Q 651.39 588.59 649.19 587.52
  C 642.33 584.21 635.42 583.59 627.25 583.33
  C 618.80 583.06 611.99 583.43 606.42 581.08
  Q 599.99 578.35 596.36 577.41
  Q 585.35 574.54 582.06 573.19
  C 574.39 570.03 572.62 569.05 564.80 566.28
  Q 561.35 565.06 551.31 560.76
  C 542.24 556.88 539.20 555.09 530.96 551.55
  Q 523.75 548.47 517.61 543.67
  C 515.06 541.68 513.35 541.06 509.47 539.03
  A 3.45 3.36 80.7 0 1 508.74 538.49
  L 504.57 534.32
  A 0.31 0.31 0.0 0 0 504.05 534.60
  Q 504.78 538.74 503.83 543.96
  A 2.21 2.19 78.4 0 1 502.92 545.36
  L 487.83 555.80
  A 10.02 9.86 -71.3 0 1 485.43 557.01
  Q 481.44 558.39 477.91 561.03
  A 1.04 1.04 0.0 0 0 477.95 562.72
  C 483.58 566.53 489.24 568.54 492.89 574.85
  Q 495.45 579.27 497.94 582.07"
/>
<path stroke="#8ec9b7" vector-effect="non-scaling-stroke" d="
  M 496.86 622.20
  Q 490.94 632.13 488.74 637.46
  C 485.45 645.46 483.88 654.33 485.62 662.09
  Q 488.35 674.28 499.44 677.00"
/>
<path stroke="#1e8968" vector-effect="non-scaling-stroke" d="
  M 475.21 748.49
  Q 476.46 750.85 477.85 749.64
  C 481.19 746.70 479.60 738.73 477.83 735.37
  Q 476.01 731.92 473.31 725.47
  A 0.34 0.34 0.0 0 0 472.67 725.53
  L 472.44 726.52"
/>
<path stroke="#8ead83" vector-effect="non-scaling-stroke" d="
  M 564.41 511.88
  Q 560.41 510.31 559.64 508.61
  Q 558.41 505.88 555.34 499.90
  Q 552.14 493.66 551.13 485.89
  C 551.07 489.23 549.78 492.11 547.45 494.60
  C 546.53 495.58 545.07 495.56 544.09 495.11
  A 1.41 1.40 31.2 0 1 543.56 492.96
  C 545.95 489.92 547.80 487.57 547.41 483.37
  Q 547.02 479.17 545.43 474.98"
/>
<path stroke="#8d8e8f" vector-effect="non-scaling-stroke" d="
  M 534.08 628.02
  C 533.64 625.77 531.51 622.34 529.13 622.30
  A 0.59 0.59 0.0 0 0 528.64 623.23
  L 532.50 628.82"
/>
<path stroke="#8d8e8f" vector-effect="non-scaling-stroke" d="
  M 501.46 673.40
  Q 494.05 672.99 491.75 663.52
  Q 488.25 649.04 494.87 635.88
  C 496.71 632.22 499.39 629.14 502.47 625.20
  Q 504.53 622.56 503.13 620.33"
/>
<path stroke="#8d735b" vector-effect="non-scaling-stroke" d="
  M 516.52 866.45
  Q 518.42 870.28 519.58 874.22
  A 1.60 1.59 69.9 0 0 521.74 875.23
  Q 522.43 874.93 522.51 873.74
  Q 522.65 871.73 523.42 869.95"
/>
<path stroke="#8d8e8f" vector-effect="non-scaling-stroke" d="
  M 530.75 903.00
  Q 524.48 904.25 519.00 902.36
  A 2.13 2.13 0.0 0 0 516.95 902.73
  Q 514.96 904.39 512.48 906.45
  C 507.36 910.70 498.51 910.83 492.32 911.07
  Q 484.22 911.39 476.73 909.34"
/>
<path stroke="#8d8e8f" vector-effect="non-scaling-stroke" d="
  M 493.80 893.20
  Q 499.36 892.70 504.88 894.55
  A 0.67 0.66 -79.3 0 0 505.75 893.95
  L 505.77 893.62
  A 1.44 1.44 0.0 0 0 504.52 892.12
  L 495.04 890.91"
/>
<path stroke="#8d8e8f" vector-effect="non-scaling-stroke" d="
  M 494.95 889.79
  Q 501.79 887.98 507.30 890.72
  A 1.56 1.56 0.0 0 0 509.12 890.40
  L 509.16 890.36
  A 0.90 0.90 0.0 0 0 508.94 888.96
  C 505.74 887.20 502.07 887.12 498.50 887.00"
/>
<path stroke="#8d8e8f" vector-effect="non-scaling-stroke" d="
  M 499.47 885.60
  Q 505.56 884.67 511.30 886.86
  A 1.07 1.06 71.4 0 0 512.24 884.96
  Q 507.68 882.09 500.50 883.11"
/>
<path stroke="#c27d57" vector-effect="non-scaling-stroke" d="
  M 526.00 243.46
  L 518.34 247.03
  A 0.45 0.44 84.6 0 0 518.10 247.33
  Q 517.92 248.00 518.88 248.27
  Q 519.49 248.44 520.17 248.08
  Q 523.79 246.13 526.16 243.68
  A 0.14 0.14 0.0 0 0 526.00 243.46"
/>
<path stroke="#c27d57" vector-effect="non-scaling-stroke" d="
  M 553.41 257.09
  A 0.33 0.33 0.0 0 0 553.88 256.66
  C 552.29 253.68 547.03 250.90 543.88 249.57
  A 2.64 2.57 -38.0 0 0 542.40 249.41
  L 538.53 250.09
  A 2.27 2.26 -3.7 0 0 536.67 252.20
  L 536.67 252.25
  A 1.06 1.06 0.0 0 0 538.03 253.32
  C 544.25 251.51 548.29 253.84 553.41 257.09"
/>
<path stroke="#8d735b" vector-effect="non-scaling-stroke" d="
  M 511.06 261.46
  L 508.86 260.63
  A 0.33 0.32 86.0 0 0 508.46 261.09
  Q 509.33 262.65 512.78 263.10
  A 1.55 1.54 -0.3 0 0 514.51 261.36
  L 514.33 260.13
  A 0.48 0.47 11.8 0 1 515.05 259.66
  L 518.23 261.61
  A 0.47 0.46 -51.7 0 0 518.80 261.54
  L 518.82 261.52
  A 0.46 0.45 42.2 0 0 518.78 260.90
  C 514.63 256.90 510.40 254.26 504.84 257.90
  A 1.11 1.10 38.3 0 1 503.86 258.01
  L 501.20 257.01
  A 0.52 0.52 0.0 0 0 500.66 257.87
  Q 503.82 260.82 506.77 258.82
  A 1.38 1.37 -54.8 0 1 507.85 258.63
  Q 510.28 259.21 511.50 260.87
  A 0.39 0.38 82.0 0 1 511.06 261.46"
/>
<path stroke="#8d735b" vector-effect="non-scaling-stroke" d="
  M 537.41 262.44
  L 538.94 262.12
  A 1.12 1.10 -28.0 0 1 539.95 262.42
  L 541.41 263.88
  A 1.00 0.99 64.8 0 0 542.20 264.17
  Q 545.26 263.88 545.17 261.56
  A 1.02 1.02 0.0 0 1 546.55 260.57
  L 549.96 261.86
  A 0.58 0.58 0.0 0 0 550.52 260.86
  C 548.48 259.23 545.04 257.69 542.42 258.07
  Q 539.27 258.52 537.05 261.90
  A 0.35 0.35 0.0 0 0 537.41 262.44"
/>
<path stroke="#c27d57" vector-effect="non-scaling-stroke" d="
  M 492.93 263.97
  Q 493.73 263.93 493.69 260.98
  Q 493.68 260.62 493.41 260.48
  Q 493.04 260.29 492.76 260.30
  Q 492.47 260.32 492.12 260.54
  Q 491.87 260.71 491.90 261.07
  Q 492.13 264.01 492.93 263.97"
/>
<path stroke="#c27d57" vector-effect="non-scaling-stroke" d="
  M 539.12 283.38
  C 538.60 282.94 537.53 283.41 536.80 283.28
  Q 533.15 282.59 531.52 282.65
  Q 521.74 282.96 514.44 282.40
  A 1.02 1.02 0.0 0 0 513.41 283.79
  Q 515.46 289.00 519.81 292.37
  C 527.13 298.04 535.89 290.94 539.28 284.22
  A 0.70 0.69 34.5 0 0 539.12 283.38"
/>
<path stroke="#c2998b" vector-effect="non-scaling-stroke" d="
  M 516.90 284.13
  A 0.61 0.61 0.0 0 0 516.35 285.07
  Q 517.33 286.63 517.83 287.83
  C 519.50 291.79 523.36 293.56 527.58 292.70
  Q 533.33 291.52 536.28 285.79
  A 0.46 0.45 15.2 0 0 535.90 285.13
  L 516.90 284.13"
/>
<path stroke="#1e8968" vector-effect="non-scaling-stroke" d="
  M 539.5802 472.1018
  A 0.26 0.26 0.0 0 0 539.3390 471.8243
  L 472.0433 467.1186
  A 0.26 0.26 0.0 0 0 471.7658 467.3598
  L 471.7198 468.0182
  A 0.26 0.26 0.0 0 0 471.9610 468.2957
  L 539.2567 473.0014
  A 0.26 0.26 0.0 0 0 539.5342 472.7602
  L 539.5802 472.1018"
/>
<path stroke="#8d8e8f" vector-effect="non-scaling-stroke" d="
  M 513.5367 873.7087
  A 1.39 1.39 0.0 0 0 512.0920 872.3756
  L 504.8179 872.6678
  A 1.39 1.39 0.0 0 0 503.4848 874.1125
  L 503.5433 875.5713
  A 1.39 1.39 0.0 0 0 504.9880 876.9044
  L 512.2621 876.6122
  A 1.39 1.39 0.0 0 0 513.5952 875.1675
  L 513.5367 873.7087"
/>
</g>
<path fill="#f8c393" d="
  M 466.07 303.75
  Q 465.11 306.47 461.99 309.25
  Q 457.33 313.40 452.72 317.46
  Q 447.67 321.90 441.90 325.50
  A 1.00 0.99 67.8 0 1 440.41 324.87
  Q 440.15 323.68 439.32 323.02
  Q 440.57 321.53 440.11 320.25
  Q 438.45 315.71 437.74 312.78
  Q 433.32 294.53 430.43 275.01
  Q 427.43 254.77 426.90 251.03
  Q 424.29 232.49 424.17 226.95
  Q 423.90 215.48 425.20 193.13
  Q 425.75 183.54 428.31 153.40
  Q 428.67 149.16 428.34 142.79
  A 7.36 7.26 -55.9 0 0 427.99 140.90
  C 426.88 137.52 426.16 135.86 425.96 132.79
  Q 425.39 124.14 424.71 114.81
  Q 424.18 107.38 420.35 92.68
  Q 420.17 91.97 419.99 86.75
  A 1.18 1.16 -21.7 0 1 420.40 85.82
  Q 421.41 84.95 422.40 81.33
  C 423.42 77.59 426.33 76.53 430.12 77.15
  Q 430.44 77.20 436.09 77.87
  A 1.34 1.31 -16.9 0 1 436.92 78.30
  Q 438.90 80.52 439.91 82.57
  Q 444.49 91.84 445.52 101.91
  Q 446.85 114.92 447.66 120.11
  A 1.48 1.48 0.0 0 0 450.10 120.99
  Q 450.96 120.24 451.22 118.50
  A 1.80 1.77 72.4 0 1 451.72 117.51
  L 452.45 116.78
  A 2.76 2.55 -13.9 0 0 453.05 115.87
  Q 455.07 110.87 461.25 109.71
  A 0.75 0.74 12.8 0 1 461.99 110.88
  Q 460.18 113.38 459.55 114.55
  Q 451.92 128.88 448.52 133.58
  Q 444.39 139.30 443.54 140.05
  Q 442.10 141.33 442.03 144.01
  C 441.89 149.73 442.66 155.08 442.84 160.17
  C 443.10 167.24 444.06 174.49 444.92 181.42
  C 445.64 187.24 446.25 201.97 447.21 214.27
  C 448.29 228.16 446.87 241.01 450.79 252.31
  Q 453.69 260.68 456.44 269.27
  Q 457.08 271.28 457.38 272.28
  Q 461.92 287.70 466.07 303.75
  Z"
/>
<path fill="#8c371a" d="
  M 611.70 367.76
  Q 611.09 367.92 610.72 367.60
  Q 605.01 362.70 597.15 354.23
  Q 593.42 350.22 579.29 338.83
  C 576.79 336.81 573.75 335.48 570.82 335.11
  Q 555.08 333.09 542.22 329.13
  Q 539.29 327.47 538.38 325.63
  Q 536.60 322.03 536.33 317.97
  Q 535.82 310.14 536.34 302.53
  A 1.71 1.70 -11.6 0 1 537.28 301.11
  C 544.32 297.57 551.17 292.85 554.40 285.76
  Q 556.17 281.86 557.03 276.38
  A 0.59 0.58 -75.4 0 1 557.81 275.92
  L 559.65 276.61
  A 1.25 1.24 -74.9 0 1 560.43 277.98
  Q 560.30 278.76 560.49 278.98
  A 0.46 0.46 0.0 0 0 561.26 278.89
  C 564.98 271.49 567.21 267.19 566.88 259.90
  A 3.43 3.43 0.0 0 0 563.13 256.64
  L 563.11 256.64
  A 3.95 3.95 0.0 0 0 559.53 260.79
  C 559.67 263.28 560.18 267.75 558.45 269.56
  A 0.50 0.49 -27.2 0 1 557.60 269.29
  L 554.27 245.79
  A 5.35 5.23 27.5 0 0 553.68 243.99
  C 550.26 237.68 546.69 231.62 546.70 224.76
  A 0.19 0.19 0.0 0 0 546.33 224.72
  Q 545.75 227.03 544.72 228.75
  Q 539.43 237.60 531.03 243.75
  Q 527.40 246.41 520.42 248.68
  A 1.34 1.31 7.8 0 0 519.75 249.18
  Q 518.90 250.42 517.27 250.97
  Q 510.18 253.32 503.48 254.61
  Q 502.52 254.80 501.68 254.69
  A 0.25 0.25 0.0 0 1 501.46 254.47
  L 501.41 254.14
  A 0.20 0.20 0.0 0 1 501.58 253.91
  Q 507.28 252.90 512.72 249.85
  A 0.18 0.17 -20.8 0 0 512.80 249.69
  L 512.76 249.41
  A 0.33 0.33 0.0 0 0 512.30 249.16
  Q 507.25 251.50 501.82 251.85
  A 1.21 1.16 15.2 0 0 500.94 252.33
  Q 498.03 256.32 497.21 259.20
  Q 496.31 262.41 496.15 262.61
  A 0.39 0.39 0.0 0 1 495.49 262.52
  Q 494.86 261.05 494.84 259.73
  A 2.24 2.19 34.3 0 0 494.67 258.88
  Q 492.71 254.27 487.04 256.66
  C 482.18 247.11 480.10 235.76 484.43 225.92
  Q 491.71 209.38 507.52 204.50
  C 517.58 201.40 528.64 202.85 539.57 205.89
  Q 544.01 207.12 547.51 210.32
  A 2.79 2.79 0.0 0 0 549.73 211.02
  C 568.18 208.73 567.79 231.56 569.54 243.12
  Q 570.86 251.84 571.21 253.36
  Q 575.15 270.40 590.24 279.68
  Q 598.54 284.77 607.00 280.76
  A 0.15 0.15 0.0 0 1 607.17 280.99
  C 600.59 288.23 588.31 284.09 582.44 278.50
  A 0.05 0.04 11.2 0 0 582.36 278.54
  Q 582.39 278.58 582.38 278.61
  A 0.14 0.08 -61.0 0 0 582.38 278.74
  Q 588.10 284.89 590.47 286.55
  Q 600.85 293.86 613.32 303.64
  Q 620.95 309.63 624.68 314.67
  C 630.02 321.90 632.93 328.55 632.35 337.25
  C 631.93 343.43 628.87 351.33 622.91 353.58
  A 0.38 0.38 0.0 0 1 622.44 353.05
  C 627.85 342.26 627.16 327.98 618.00 319.34
  A 0.28 0.28 0.0 0 0 617.56 319.69
  C 624.71 331.67 624.64 348.41 619.21 360.44
  Q 617.20 364.90 611.70 367.76
  Z
  M 526.00 243.46
  L 518.34 247.03
  A 0.45 0.44 84.6 0 0 518.10 247.33
  Q 517.92 248.00 518.88 248.27
  Q 519.49 248.44 520.17 248.08
  Q 523.79 246.13 526.16 243.68
  A 0.14 0.14 0.0 0 0 526.00 243.46
  Z"
/>
<path fill="#f8c393" d="
  M 542.22 329.13
  Q 540.49 334.58 537.41 338.63
  Q 532.67 344.87 525.66 345.75
  C 515.31 347.06 507.35 340.47 506.22 330.02
  L 508.69 330.81
  A 0.60 0.59 -68.9 0 0 509.42 330.48
  Q 515.80 315.91 514.77 300.40
  A 1.63 1.63 0.0 0 0 513.96 299.08
  C 507.84 295.51 503.23 290.75 498.55 285.32
  C 496.19 282.58 493.84 281.63 490.83 281.07
  A 1.74 1.74 0.0 0 1 489.41 279.25
  Q 489.73 274.37 488.92 268.49
  Q 488.01 261.99 487.04 256.66
  Q 492.71 254.27 494.67 258.88
  A 2.24 2.19 34.3 0 1 494.84 259.73
  Q 494.86 261.05 495.49 262.52
  A 0.39 0.39 0.0 0 0 496.15 262.61
  Q 496.31 262.41 497.21 259.20
  Q 498.03 256.32 500.94 252.33
  A 1.21 1.16 15.2 0 1 501.82 251.85
  Q 507.25 251.50 512.30 249.16
  A 0.33 0.33 0.0 0 1 512.76 249.41
  L 512.80 249.69
  A 0.18 0.17 -20.8 0 1 512.72 249.85
  Q 507.28 252.90 501.58 253.91
  A 0.20 0.20 0.0 0 0 501.41 254.14
  L 501.46 254.47
  A 0.25 0.25 0.0 0 0 501.68 254.69
  Q 502.52 254.80 503.48 254.61
  Q 510.18 253.32 517.27 250.97
  Q 518.90 250.42 519.75 249.18
  A 1.34 1.31 7.8 0 1 520.42 248.68
  Q 527.40 246.41 531.03 243.75
  Q 539.43 237.60 544.72 228.75
  Q 545.75 227.03 546.33 224.72
  A 0.19 0.19 0.0 0 1 546.70 224.76
  C 546.69 231.62 550.26 237.68 553.68 243.99
  A 5.35 5.23 27.5 0 1 554.27 245.79
  L 557.60 269.29
  A 0.50 0.49 -27.2 0 0 558.45 269.56
  C 560.18 267.75 559.67 263.28 559.53 260.79
  A 3.95 3.95 0.0 0 1 563.11 256.64
  L 563.13 256.64
  A 3.43 3.43 0.0 0 1 566.88 259.90
  C 567.21 267.19 564.98 271.49 561.26 278.89
  A 0.46 0.46 0.0 0 1 560.49 278.98
  Q 560.30 278.76 560.43 277.98
  A 1.25 1.24 -74.9 0 0 559.65 276.61
  L 557.81 275.92
  A 0.59 0.58 -75.4 0 0 557.03 276.38
  Q 556.17 281.86 554.40 285.76
  C 551.17 292.85 544.32 297.57 537.28 301.11
  A 1.71 1.70 -11.6 0 0 536.34 302.53
  Q 535.82 310.14 536.33 317.97
  Q 536.60 322.03 538.38 325.63
  Q 539.29 327.47 542.22 329.13
  Z
  M 553.41 257.09
  A 0.33 0.33 0.0 0 0 553.88 256.66
  C 552.29 253.68 547.03 250.90 543.88 249.57
  A 2.64 2.57 -38.0 0 0 542.40 249.41
  L 538.53 250.09
  A 2.27 2.26 -3.7 0 0 536.67 252.20
  L 536.67 252.25
  A 1.06 1.06 0.0 0 0 538.03 253.32
  C 544.25 251.51 548.29 253.84 553.41 257.09
  Z
  M 511.06 261.46
  L 508.86 260.63
  A 0.33 0.32 86.0 0 0 508.46 261.09
  Q 509.33 262.65 512.78 263.10
  A 1.55 1.54 -0.3 0 0 514.51 261.36
  L 514.33 260.13
  A 0.48 0.47 11.8 0 1 515.05 259.66
  L 518.23 261.61
  A 0.47 0.46 -51.7 0 0 518.80 261.54
  L 518.82 261.52
  A 0.46 0.45 42.2 0 0 518.78 260.90
  C 514.63 256.90 510.40 254.26 504.84 257.90
  A 1.11 1.10 38.3 0 1 503.86 258.01
  L 501.20 257.01
  A 0.52 0.52 0.0 0 0 500.66 257.87
  Q 503.82 260.82 506.77 258.82
  A 1.38 1.37 -54.8 0 1 507.85 258.63
  Q 510.28 259.21 511.50 260.87
  A 0.39 0.38 82.0 0 1 511.06 261.46
  Z
  M 537.41 262.44
  L 538.94 262.12
  A 1.12 1.10 -28.0 0 1 539.95 262.42
  L 541.41 263.88
  A 1.00 0.99 64.8 0 0 542.20 264.17
  Q 545.26 263.88 545.17 261.56
  A 1.02 1.02 0.0 0 1 546.55 260.57
  L 549.96 261.86
  A 0.58 0.58 0.0 0 0 550.52 260.86
  C 548.48 259.23 545.04 257.69 542.42 258.07
  Q 539.27 258.52 537.05 261.90
  A 0.35 0.35 0.0 0 0 537.41 262.44
  Z
  M 492.93 263.97
  Q 493.73 263.93 493.69 260.98
  Q 493.68 260.62 493.41 260.48
  Q 493.04 260.29 492.76 260.30
  Q 492.47 260.32 492.12 260.54
  Q 491.87 260.71 491.90 261.07
  Q 492.13 264.01 492.93 263.97
  Z
  M 563.09 272.31
  A 0.46 0.45 71.8 0 0 563.28 271.92
  L 562.73 263.10
  A 0.56 0.55 86.9 0 1 563.25 262.51
  L 564.77 262.42
  A 0.27 0.26 -86.9 0 0 565.00 262.21
  L 565.04 261.93
  A 0.75 0.75 0.0 0 0 564.58 261.12
  Q 563.35 260.60 561.50 261.20
  A 0.92 0.91 -13.2 0 0 560.88 262.20
  L 562.32 272.41
  A 0.25 0.24 68.6 0 0 562.70 272.58
  L 563.09 272.31
  Z
  M 522.68 277.79
  L 525.31 279.47
  A 1.39 1.38 -41.1 0 0 526.64 279.56
  L 531.13 277.47
  A 0.66 0.66 0.0 0 0 531.45 276.59
  L 531.29 276.25
  A 0.32 0.32 0.0 0 0 530.87 276.09
  L 526.53 278.11
  A 1.83 1.83 0.0 0 1 524.89 278.07
  Q 522.98 277.05 522.79 277.10
  A 0.39 0.38 -36.2 0 0 522.68 277.79
  Z
  M 539.12 283.38
  C 538.60 282.94 537.53 283.41 536.80 283.28
  Q 533.15 282.59 531.52 282.65
  Q 521.74 282.96 514.44 282.40
  A 1.02 1.02 0.0 0 0 513.41 283.79
  Q 515.46 289.00 519.81 292.37
  C 527.13 298.04 535.89 290.94 539.28 284.22
  A 0.70 0.69 34.5 0 0 539.12 283.38
  Z"
/>
<path fill="#f8c393" d="
  M 526.16 243.68
  Q 523.79 246.13 520.17 248.08
  Q 519.49 248.44 518.88 248.27
  Q 517.92 248.00 518.10 247.33
  A 0.45 0.44 84.6 0 1 518.34 247.03
  L 526.00 243.46
  A 0.14 0.14 0.0 0 1 526.16 243.68
  Z"
/>
<path fill="#8c371a" d="
  M 553.41 257.09
  C 548.29 253.84 544.25 251.51 538.03 253.32
  A 1.06 1.06 0.0 0 1 536.67 252.25
  L 536.67 252.20
  A 2.27 2.26 -3.7 0 1 538.53 250.09
  L 542.40 249.41
  A 2.64 2.57 -38.0 0 1 543.88 249.57
  C 547.03 250.90 552.29 253.68 553.88 256.66
  A 0.33 0.33 0.0 0 1 553.41 257.09
  Z"
/>
<path fill="#222222" d="
  M 511.06 261.46
  A 0.39 0.38 82.0 0 0 511.50 260.87
  Q 510.28 259.21 507.85 258.63
  A 1.38 1.37 -54.8 0 0 506.77 258.82
  Q 503.82 260.82 500.66 257.87
  A 0.52 0.52 0.0 0 1 501.20 257.01
  L 503.86 258.01
  A 1.11 1.10 38.3 0 0 504.84 257.90
  C 510.40 254.26 514.63 256.90 518.78 260.90
  A 0.46 0.45 42.2 0 1 518.82 261.52
  L 518.80 261.54
  A 0.47 0.46 -51.7 0 1 518.23 261.61
  L 515.05 259.66
  A 0.48 0.47 11.8 0 0 514.33 260.13
  L 514.51 261.36
  A 1.55 1.54 -0.3 0 1 512.78 263.10
  Q 509.33 262.65 508.46 261.09
  A 0.33 0.32 86.0 0 1 508.86 260.63
  L 511.06 261.46
  Z"
/>
<path fill="#222222" d="
  M 537.41 262.44
  A 0.35 0.35 0.0 0 1 537.05 261.90
  Q 539.27 258.52 542.42 258.07
  C 545.04 257.69 548.48 259.23 550.52 260.86
  A 0.58 0.58 0.0 0 1 549.96 261.86
  L 546.55 260.57
  A 1.02 1.02 0.0 0 0 545.17 261.56
  Q 545.26 263.88 542.20 264.17
  A 1.00 0.99 64.8 0 1 541.41 263.88
  L 539.95 262.42
  A 1.12 1.10 -28.0 0 0 538.94 262.12
  L 537.41 262.44
  Z"
/>
<path fill="#8c371a" d="
  M 492.76 260.30
  Q 493.04 260.29 493.41 260.48
  Q 493.68 260.62 493.69 260.98
  Q 493.73 263.93 492.93 263.97
  Q 492.13 264.01 491.90 261.07
  Q 491.87 260.71 492.12 260.54
  Q 492.47 260.32 492.76 260.30
  Z"
/>
<path fill="#8c371a" d="
  M 539.28 284.22
  C 535.89 290.94 527.13 298.04 519.81 292.37
  Q 515.46 289.00 513.41 283.79
  A 1.02 1.02 0.0 0 1 514.44 282.40
  Q 521.74 282.96 531.52 282.65
  Q 533.15 282.59 536.80 283.28
  C 537.53 283.41 538.60 282.94 539.12 283.38
  A 0.70 0.69 34.5 0 1 539.28 284.22
  Z
  M 516.90 284.13
  A 0.61 0.61 0.0 0 0 516.35 285.07
  Q 517.33 286.63 517.83 287.83
  C 519.50 291.79 523.36 293.56 527.58 292.70
  Q 533.33 291.52 536.28 285.79
  A 0.46 0.45 15.2 0 0 535.90 285.13
  L 516.90 284.13
  Z"
/>
<path fill="#f8fafb" d="
  M 516.90 284.13
  L 535.90 285.13
  A 0.46 0.45 15.2 0 1 536.28 285.79
  Q 533.33 291.52 527.58 292.70
  C 523.36 293.56 519.50 291.79 517.83 287.83
  Q 517.33 286.63 516.35 285.07
  A 0.61 0.61 0.0 0 1 516.90 284.13
  Z"
/>
<path fill="#4358a3" d="
  M 506.22 330.02
  C 507.35 340.47 515.31 347.06 525.66 345.75
  Q 532.67 344.87 537.41 338.63
  Q 540.49 334.58 542.22 329.13
  Q 555.08 333.09 570.82 335.11
  C 573.75 335.48 576.79 336.81 579.29 338.83
  Q 593.42 350.22 597.15 354.23
  Q 605.01 362.70 610.72 367.60
  Q 611.09 367.92 611.70 367.76
  L 617.27 373.66
  A 0.53 0.52 -42.5 0 1 617.23 374.43
  Q 604.03 385.84 593.94 396.62
  A 0.98 0.96 43.8 0 1 592.54 396.64
  L 579.10 383.20
  A 2.72 2.70 61.5 0 0 576.63 382.46
  L 568.78 384.13
  A 0.96 0.94 3.8 0 0 568.08 384.73
  C 565.87 390.83 563.86 399.12 561.27 406.73
  Q 552.73 431.86 547.72 446.96
  Q 546.76 449.86 545.70 449.92
  Q 528.71 444.15 512.00 443.85
  Q 496.24 443.56 475.86 446.55
  Q 474.78 439.87 474.05 432.85
  C 472.32 416.14 470.36 399.45 468.60 382.72
  Q 468.36 380.42 466.45 377.80
  C 462.24 371.99 457.61 366.66 454.03 359.76
  Q 445.75 343.81 437.90 324.64
  A 1.02 0.93 36.9 0 1 437.82 324.21
  Q 437.86 322.95 439.32 323.02
  Q 440.15 323.68 440.41 324.87
  A 1.00 0.99 67.8 0 0 441.90 325.50
  Q 447.67 321.90 452.72 317.46
  Q 457.33 313.40 461.99 309.25
  Q 465.11 306.47 466.07 303.75
  Q 466.78 302.89 467.15 303.04
  Q 467.89 303.35 468.06 304.10
  Q 470.55 314.96 475.18 325.57
  A 0.89 0.88 85.8 0 0 475.77 326.08
  Q 490.19 330.03 505.09 328.45
  A 0.87 0.87 0.0 0 1 505.92 328.88
  Q 506.18 329.33 506.22 330.02
  Z"
/>
<path fill="#f8c393" d="
  M 564.41 511.88
  Q 560.41 510.31 559.64 508.61
  Q 558.41 505.88 555.34 499.90
  Q 552.14 493.66 551.13 485.89
  C 551.07 489.23 549.78 492.11 547.45 494.60
  C 546.53 495.58 545.07 495.56 544.09 495.11
  A 1.41 1.40 31.2 0 1 543.56 492.96
  C 545.95 489.92 547.80 487.57 547.41 483.37
  Q 547.02 479.17 545.43 474.98
  Q 545.37 472.90 546.29 470.14
  A 2.01 2.00 77.9 0 1 546.81 469.33
  Q 552.19 464.25 558.86 460.11
  Q 568.28 454.25 577.84 448.62
  Q 582.59 445.82 587.29 442.42
  C 591.48 439.39 595.71 437.24 600.02 434.29
  Q 610.96 426.80 620.96 421.53
  A 1.13 1.13 0.0 0 0 621.31 419.82
  Q 617.60 415.25 612.55 410.19
  Q 601.29 398.94 600.26 397.87
  A 1.83 1.82 38.0 0 1 599.99 395.72
  C 603.34 389.82 609.54 386.03 615.00 381.77
  A 4.29 4.08 12.8 0 1 615.94 381.21
  L 618.15 380.28
  A 0.97 0.94 50.9 0 1 619.10 380.39
  Q 620.91 381.76 622.69 383.68
  Q 635.22 397.13 648.91 414.66
  C 652.95 419.85 656.72 426.98 649.69 431.96
  Q 646.62 434.13 641.59 436.81
  Q 635.79 439.91 620.59 446.76
  Q 610.88 451.14 599.13 454.97
  Q 590.34 457.84 577.46 462.67
  C 573.23 464.25 569.44 465.06 565.54 467.04
  C 561.48 469.10 561.73 482.57 561.91 487.78
  C 562.03 491.17 562.77 494.29 563.44 497.60
  C 564.29 501.85 564.09 507.11 564.41 511.88
  Z"
/>
<path fill="#f8c393" d="
  M 545.70 449.92
  Q 542.66 456.28 542.68 462.47
  Q 508.70 458.46 474.56 457.13
  Q 478.12 450.15 475.86 446.55
  Q 496.24 443.56 512.00 443.85
  Q 528.71 444.15 545.70 449.92
  Z"
/>
<path fill="#249772" d="
  M 542.68 462.47
  Q 544.00 462.74 543.98 464.50
  Q 543.96 468.06 543.44 471.45
  Q 543.02 474.13 540.61 474.50
  A 0.83 0.82 -3.0 0 0 539.90 475.28
  L 539.72 478.53
  A 0.57 0.55 13.9 0 0 540.06 479.07
  Q 541.97 479.90 543.27 479.45
  A 1.23 1.22 -89.4 0 0 544.01 478.72
  L 545.43 474.98
  Q 547.02 479.17 547.41 483.37
  C 547.80 487.57 545.95 489.92 543.56 492.96
  A 1.41 1.40 31.2 0 0 544.09 495.11
  C 545.07 495.56 546.53 495.58 547.45 494.60
  C 549.78 492.11 551.07 489.23 551.13 485.89
  Q 552.14 493.66 555.34 499.90
  Q 558.41 505.88 559.64 508.61
  Q 560.41 510.31 564.41 511.88
  C 602.73 525.18 638.84 544.59 670.26 570.73
  Q 679.25 578.20 685.74 585.42
  Q 693.90 594.51 690.47 606.42
  C 687.41 617.06 677.33 621.70 666.96 622.87
  C 657.04 623.99 650.07 624.68 641.65 624.71
  Q 589.82 624.88 541.53 624.08
  A 2.09 2.09 0.0 0 1 539.48 622.12
  L 538.64 608.53
  A 2.13 2.12 -3.8 0 1 540.61 606.28
  Q 553.30 605.32 565.55 600.93
  Q 573.41 598.11 580.01 595.57
  Q 587.13 592.83 594.21 589.60
  Q 605.45 586.08 617.19 584.98
  C 623.98 584.34 630.44 585.25 637.46 585.77
  Q 639.49 585.92 643.99 586.84
  C 648.60 587.79 652.36 589.70 656.62 591.43
  A 0.29 0.28 20.7 0 0 656.99 591.27
  L 656.99 591.25
  A 0.26 0.26 0.0 0 0 656.85 590.92
  Q 651.39 588.59 649.19 587.52
  C 642.33 584.21 635.42 583.59 627.25 583.33
  C 618.80 583.06 611.99 583.43 606.42 581.08
  Q 599.99 578.35 596.36 577.41
  Q 585.35 574.54 582.06 573.19
  C 574.39 570.03 572.62 569.05 564.80 566.28
  Q 561.35 565.06 551.31 560.76
  C 542.24 556.88 539.20 555.09 530.96 551.55
  Q 523.75 548.47 517.61 543.67
  C 515.06 541.68 513.35 541.06 509.47 539.03
  A 3.45 3.36 80.7 0 1 508.74 538.49
  L 504.57 534.32
  A 0.31 0.31 0.0 0 0 504.05 534.60
  Q 504.78 538.74 503.83 543.96
  A 2.21 2.19 78.4 0 1 502.92 545.36
  L 487.83 555.80
  A 10.02 9.86 -71.3 0 1 485.43 557.01
  Q 481.44 558.39 477.91 561.03
  A 1.04 1.04 0.0 0 0 477.95 562.72
  C 483.58 566.53 489.24 568.54 492.89 574.85
  Q 495.45 579.27 497.94 582.07
  Q 499.39 602.43 496.86 622.20
  Q 490.94 632.13 488.74 637.46
  C 485.45 645.46 483.88 654.33 485.62 662.09
  Q 488.35 674.28 499.44 677.00
  Q 499.60 685.56 499.64 695.26
  C 499.66 702.25 500.31 708.83 502.65 715.91
  Q 506.33 727.04 507.31 729.53
  Q 512.45 742.59 514.54 749.21
  Q 519.94 766.34 520.14 784.82
  Q 520.51 818.28 520.23 859.20
  A 1.31 1.30 -1.9 0 1 519.01 860.50
  L 504.58 861.39
  A 0.56 0.56 0.0 0 1 504.00 860.96
  Q 499.81 843.57 493.37 823.61
  Q 486.24 801.51 479.98 777.77
  C 477.52 768.46 475.35 758.46 475.21 748.49
  Q 476.46 750.85 477.85 749.64
  C 481.19 746.70 479.60 738.73 477.83 735.37
  Q 476.01 731.92 473.31 725.47
  A 0.34 0.34 0.0 0 0 472.67 725.53
  L 472.44 726.52
  C 464.46 706.85 459.34 686.57 453.56 665.80
  Q 450.94 656.40 449.45 649.95
  C 446.55 637.42 443.56 626.38 441.05 613.20
  Q 438.01 597.31 437.23 592.25
  C 431.57 555.96 439.11 520.16 457.02 488.23
  Q 460.71 481.64 469.62 467.19
  Q 470.93 465.06 472.22 462.23
  Q 473.37 459.68 474.56 457.13
  Q 508.70 458.46 542.68 462.47
  Z
  M 539.5802 472.1018
  A 0.26 0.26 0.0 0 0 539.3390 471.8243
  L 472.0433 467.1186
  A 0.26 0.26 0.0 0 0 471.7658 467.3598
  L 471.7198 468.0182
  A 0.26 0.26 0.0 0 0 471.9610 468.2957
  L 539.2567 473.0014
  A 0.26 0.26 0.0 0 0 539.5342 472.7602
  L 539.5802 472.1018
  Z"
/>
<rect fill="#187b5d" x="-33.99" y="-0.59" transform="translate(505.65,470.06) rotate(4.0)" width="67.98" height="1.18" rx="0.26"/>
<path fill="#187b5d" d="
  M 594.21 589.60
  Q 589.81 589.30 586.26 588.46
  C 574.70 585.74 563.88 582.63 552.20 578.07
  Q 526.95 568.23 519.12 564.89
  C 511.34 561.57 505.36 560.18 498.73 564.70
  A 2.69 2.68 -17.9 0 0 497.54 567.02
  L 497.94 582.07
  Q 495.45 579.27 492.89 574.85
  C 489.24 568.54 483.58 566.53 477.95 562.72
  A 1.04 1.04 0.0 0 1 477.91 561.03
  Q 481.44 558.39 485.43 557.01
  A 10.02 9.86 -71.3 0 0 487.83 555.80
  L 502.92 545.36
  A 2.21 2.19 78.4 0 0 503.83 543.96
  Q 504.78 538.74 504.05 534.60
  A 0.31 0.31 0.0 0 1 504.57 534.32
  L 508.74 538.49
  A 3.45 3.36 80.7 0 0 509.47 539.03
  C 513.35 541.06 515.06 541.68 517.61 543.67
  Q 523.75 548.47 530.96 551.55
  C 539.20 555.09 542.24 556.88 551.31 560.76
  Q 561.35 565.06 564.80 566.28
  C 572.62 569.05 574.39 570.03 582.06 573.19
  Q 585.35 574.54 596.36 577.41
  Q 599.99 578.35 606.42 581.08
  C 611.99 583.43 618.80 583.06 627.25 583.33
  C 635.42 583.59 642.33 584.21 649.19 587.52
  Q 651.39 588.59 656.85 590.92
  A 0.26 0.26 0.0 0 1 656.99 591.25
  L 656.99 591.27
  A 0.29 0.28 20.7 0 1 656.62 591.43
  C 652.36 589.70 648.60 587.79 643.99 586.84
  Q 639.49 585.92 637.46 585.77
  C 630.44 585.25 623.98 584.34 617.19 584.98
  Q 605.45 586.08 594.21 589.60
  Z"
/>
<path fill="#222222" d="
  M 534.08 628.02
  C 533.64 625.77 531.51 622.34 529.13 622.30
  A 0.59 0.59 0.0 0 0 528.64 623.23
  L 532.50 628.82
  Q 532.14 629.68 531.46 629.63
  A 0.43 0.42 -12.3 0 1 531.13 629.42
  L 527.87 623.60
  A 0.81 0.81 0.0 0 0 526.82 623.26
  L 526.58 623.37
  A 0.64 0.64 0.0 0 0 526.27 624.22
  L 529.09 630.27
  A 0.76 0.75 -35.6 0 1 528.95 631.10
  Q 513.28 647.92 504.42 668.68
  Q 503.54 670.74 501.46 673.40
  Q 494.05 672.99 491.75 663.52
  Q 488.25 649.04 494.87 635.88
  C 496.71 632.22 499.39 629.14 502.47 625.20
  Q 504.53 622.56 503.13 620.33
  Q 505.90 606.18 511.50 593.51
  A 1.75 1.75 0.0 0 1 513.72 592.58
  Q 521.51 595.56 530.91 599.53
  C 533.25 600.52 537.36 602.28 536.04 605.19
  A 1.06 1.05 6.2 0 1 535.30 605.78
  L 531.16 606.66
  A 0.97 0.97 0.0 0 0 530.56 607.06
  L 528.45 610.12
  A 2.10 2.03 -28.6 0 0 528.09 611.28
  C 528.08 613.87 528.90 616.12 531.24 617.98
  Q 534.48 620.55 537.97 624.77
  A 0.73 0.73 0.0 0 1 537.77 625.87
  L 534.08 628.02
  Z"
/>
<path fill="#f8fafb" d="
  M 503.13 620.33
  Q 504.53 622.56 502.47 625.20
  C 499.39 629.14 496.71 632.22 494.87 635.88
  Q 488.25 649.04 491.75 663.52
  Q 494.05 672.99 501.46 673.40
  Q 502.82 673.57 499.44 677.00
  Q 488.35 674.28 485.62 662.09
  C 483.88 654.33 485.45 645.46 488.74 637.46
  Q 490.94 632.13 496.86 622.20
  Q 499.52 619.27 503.13 620.33
  Z"
/>
<path fill="#f8fafb" d="
  M 534.08 628.02
  L 532.50 628.82
  L 528.64 623.23
  A 0.59 0.59 0.0 0 1 529.13 622.30
  C 531.51 622.34 533.64 625.77 534.08 628.02
  Z"
/>
<path fill="#187b5d" d="
  M 475.21 748.49
  C 474.55 741.14 474.87 733.61 472.44 726.52
  L 472.67 725.53
  A 0.34 0.34 0.0 0 1 473.31 725.47
  Q 476.01 731.92 477.83 735.37
  C 479.60 738.73 481.19 746.70 477.85 749.64
  Q 476.46 750.85 475.21 748.49
  Z"
/>
<path fill="#222222" d="
  M 516.52 866.45
  Q 518.42 870.28 519.58 874.22
  A 1.60 1.59 69.9 0 0 521.74 875.23
  Q 522.43 874.93 522.51 873.74
  Q 522.65 871.73 523.42 869.95
  C 525.95 869.83 527.25 873.28 527.45 875.27
  Q 528.45 885.01 530.00 894.67
  Q 530.19 895.85 530.35 898.84
  Q 530.46 900.92 530.75 903.00
  Q 524.48 904.25 519.00 902.36
  A 2.13 2.13 0.0 0 0 516.95 902.73
  Q 514.96 904.39 512.48 906.45
  C 507.36 910.70 498.51 910.83 492.32 911.07
  Q 484.22 911.39 476.73 909.34
  Q 475.70 903.87 480.27 900.52
  C 482.92 898.58 490.67 892.85 493.80 893.20
  Q 499.36 892.70 504.88 894.55
  A 0.67 0.66 -79.3 0 0 505.75 893.95
  L 505.77 893.62
  A 1.44 1.44 0.0 0 0 504.52 892.12
  L 495.04 890.91
  L 494.70 890.78
  A 0.37 0.37 0.0 0 1 494.56 890.18
  L 494.95 889.79
  Q 501.79 887.98 507.30 890.72
  A 1.56 1.56 0.0 0 0 509.12 890.40
  L 509.16 890.36
  A 0.90 0.90 0.0 0 0 508.94 888.96
  C 505.74 887.20 502.07 887.12 498.50 887.00
  Q 497.93 886.13 499.47 885.60
  Q 505.56 884.67 511.30 886.86
  A 1.07 1.06 71.4 0 0 512.24 884.96
  Q 507.68 882.09 500.50 883.11
  Q 503.58 875.75 502.13 868.95
  A 2.45 2.44 -18.1 0 1 503.53 866.20
  Q 510.22 863.21 516.52 866.45
  Z
  M 513.5367 873.7087
  A 1.39 1.39 0.0 0 0 512.0920 872.3756
  L 504.8179 872.6678
  A 1.39 1.39 0.0 0 0 503.4848 874.1125
  L 503.5433 875.5713
  A 1.39 1.39 0.0 0 0 504.9880 876.9044
  L 512.2621 876.6122
  A 1.39 1.39 0.0 0 0 513.5952 875.1675
  L 513.5367 873.7087
  Z"
/>
<path fill="#f8c393" d="
  M 523.42 869.95
  Q 522.65 871.73 522.51 873.74
  Q 522.43 874.93 521.74 875.23
  A 1.60 1.59 69.9 0 1 519.58 874.22
  Q 518.42 870.28 516.52 866.45
  L 520.12 864.70
  A 0.61 0.61 0.0 0 1 520.93 864.98
  L 523.42 869.95
  Z"
/>
<rect fill="#f8fafb" x="-5.03" y="-2.12" transform="translate(508.54,874.64) rotate(-2.3)" width="10.06" height="4.24" rx="1.39"/>
<path fill="#f8fafb" d="
  M 499.47 885.60
  Q 498.36 884.49 500.50 883.11
  Q 507.68 882.09 512.24 884.96
  A 1.07 1.06 71.4 0 1 511.30 886.86
  Q 505.56 884.67 499.47 885.60
  Z"
/>
<path fill="#f8fafb" d="
  M 498.50 887.00
  C 502.07 887.12 505.74 887.20 508.94 888.96
  A 0.90 0.90 0.0 0 1 509.16 890.36
  L 509.12 890.40
  A 1.56 1.56 0.0 0 1 507.30 890.72
  Q 501.79 887.98 494.95 889.79
  Q 495.39 887.74 498.50 887.00
  Z"
/>
<path fill="#f8fafb" d="
  M 495.04 890.91
  L 504.52 892.12
  A 1.44 1.44 0.0 0 1 505.77 893.62
  L 505.75 893.95
  A 0.67 0.66 -79.3 0 1 504.88 894.55
  Q 499.36 892.70 493.80 893.20
  Q 493.17 893.27 492.81 893.21
  A 0.88 0.87 28.9 0 1 492.37 891.70
  Q 493.33 890.84 495.04 890.91
  Z"
/>
<path fill="#f8fafb" d="
  M 530.75 903.00
  Q 531.84 905.27 531.28 908.43
  A 0.93 0.93 0.0 0 1 530.65 909.15
  C 527.00 910.36 522.54 910.17 518.68 909.74
  A 3.15 3.15 0.0 0 0 516.20 910.57
  C 511.37 915.04 504.99 915.68 498.25 915.97
  Q 486.71 916.45 479.28 916.18
  A 2.82 2.81 79.5 0 1 476.78 914.46
  Q 475.53 911.52 476.73 909.34
  Q 484.22 911.39 492.32 911.07
  C 498.51 910.83 507.36 910.70 512.48 906.45
  Q 514.96 904.39 516.95 902.73
  A 2.13 2.13 0.0 0 1 519.00 902.36
  Q 524.48 904.25 530.75 903.00
  Z"
/>
</svg>
