<?xml version="1.0" encoding="UTF-8" standalone="no"?>
<!DOCTYPE svg PUBLIC "-//W3C//DTD SVG 1.1//EN" "http://www.w3.org/Graphics/SVG/1.1/DTD/svg11.dtd">
<svg xmlns="http://www.w3.org/2000/svg" version="1.1" viewBox="0.00 0.00 1254.00 1254.00">
<path stroke="#3c7556" stroke-width="2.00" fill="none" stroke-linecap="butt" vector-effect="non-scaling-stroke" d="
  M 688.53 862.53
  Q 688.41 863.45 688.26 863.75
  Q 678.06 884.34 666.90 904.66"
/>
<path fill="#76b638" d="
  M 760.47 263.88
  Q 760.25 263.84 760.17 263.79
  Q 732.20 247.81 699.99 241.43
  C 649.96 231.54 596.91 242.31 553.47 268.70
  C 499.47 301.51 465.55 357.50 454.37 419.09
  Q 450.39 441.00 451.28 462.75
  C 453.04 506.00 466.25 548.01 488.47 584.88
  Q 490.77 588.68 493.80 592.98
  C 496.93 597.40 499.19 601.41 502.56 605.42
  Q 506.21 609.77 506.34 609.99
  A 0.28 0.28 0.0 0 1 505.97 610.38
  Q 505.89 610.34 505.50 610.00
  Q 503.09 607.86 493.77 598.50
  C 450.60 555.17 426.08 493.81 428.45 432.97
  C 430.68 375.88 456.78 318.74 499.05 280.06
  C 541.11 241.57 597.82 220.92 655.02 224.90
  Q 706.40 228.48 750.13 256.39
  Q 755.19 259.62 760.52 263.77
  A 0.06 0.06 0.0 0 1 760.47 263.88
  Z"
/>
<path fill="#023474" d="
  M 488.20 436.84
  A 0.21 0.20 -75.1 0 1 488.00 436.49
  Q 509.36 417.90 535.20 407.17
  C 567.52 393.74 603.03 389.42 638.00 389.52
  Q 655.25 389.57 671.00 389.02
  Q 698.93 388.05 723.39 377.36
  C 767.62 358.05 802.02 320.20 828.33 280.87
  A 0.27 0.27 0.0 0 1 828.82 281.10
  Q 820.04 310.59 805.05 337.55
  Q 800.24 346.20 792.11 357.84
  Q 766.11 395.11 727.69 418.43
  Q 720.91 422.54 713.82 425.68
  A 1.44 1.44 0.0 0 0 712.98 426.78
  C 699.85 507.81 644.41 575.38 575.26 616.75
  Q 516.04 652.17 446.92 665.07
  Q 446.43 665.16 446.28 665.08
  A 0.22 0.22 0.0 0 1 446.29 664.68
  C 502.91 638.82 554.63 600.76 594.37 552.87
  C 608.58 535.75 620.87 516.94 630.22 496.72
  Q 636.28 483.60 638.22 470.99
  C 639.62 461.90 637.63 450.37 631.94 442.92
  Q 625.81 434.90 616.75 430.55
  C 604.47 424.64 589.68 422.63 576.51 422.20
  Q 555.55 421.52 532.90 425.46
  C 516.47 428.33 500.93 432.34 488.20 436.84
  Z"
/>
<circle fill="#023474" cx="680.19" cy="334.47" r="36.92"/>
<path fill="#023474" d="
  M 831.89 369.16
  A 0.19 0.18 74.8 0 1 832.01 368.94
  L 832.02 368.94
  A 0.13 0.13 0.0 0 1 832.18 369.01
  C 852.66 417.06 856.86 470.15 841.94 520.20
  Q 823.16 583.18 773.70 623.90
  C 744.20 648.18 706.42 664.01 667.99 666.99
  Q 644.06 668.85 620.78 664.93
  Q 613.19 663.65 605.56 661.41
  A 0.30 0.30 0.0 0 1 605.65 660.83
  Q 619.27 661.19 632.97 660.33
  Q 686.28 656.95 731.71 628.96
  C 792.52 591.50 831.94 527.20 839.48 456.75
  C 842.69 426.81 839.97 398.18 831.89 369.16
  Z"
/>
<path fill="#76b638" d="
  M 404.17 685.93
  A 0.25 0.25 0.0 0 1 404.35 685.52
  C 412.86 684.83 422.78 684.01 432.44 682.24
  C 442.75 680.35 455.82 678.24 466.29 675.74
  C 543.62 657.26 618.54 617.38 668.92 554.80
  Q 679.65 541.47 689.01 527.04
  Q 694.33 518.84 697.52 512.68
  A 0.35 0.35 0.0 0 1 698.18 512.81
  C 698.77 518.92 698.13 523.64 697.24 532.20
  C 695.82 546.01 691.63 560.02 686.13 571.87
  C 673.61 598.86 651.65 621.35 626.26 638.50
  C 584.06 666.99 533.53 683.98 483.47 689.23
  Q 443.94 693.37 404.44 686.04
  Q 404.22 686.00 404.17 685.93
  Z"
/>
<path fill="#023474" d="
  M 586.00 828.18
  C 589.06 881.47 548.03 923.05 495.66 926.06
  C 443.29 929.06 397.77 892.46 394.71 839.17
  C 391.65 785.88 432.68 744.30 485.05 741.30
  C 537.42 738.29 582.94 774.89 586.00 828.18
  Z
  M 487.4501 775.3596
  A 58.34 58.11 -92.8 0 0 432.2594 836.4687
  A 58.34 58.11 -92.8 0 0 493.1499 891.9004
  A 58.34 58.11 -92.8 0 0 548.3406 830.7913
  A 58.34 58.11 -92.8 0 0 487.4501 775.3596
  Z"
/>
<path fill="#023474" d="
  M 210.53 920.71
  Q 210.55 867.65 210.59 813.50
  C 210.60 799.70 201.00 788.61 188.43 783.56
  C 176.76 778.87 162.95 779.18 151.52 784.23
  C 142.69 788.12 135.00 794.49 132.57 803.84
  Q 131.75 806.99 131.77 813.73
  Q 131.85 837.18 131.82 918.50
  Q 131.82 920.13 131.73 920.76
  A 0.65 0.65 0.0 0 1 131.09 921.32
  L 92.48 921.32
  A 0.98 0.97 90.0 0 1 91.51 920.34
  Q 91.49 854.23 91.45 809.02
  Q 91.43 790.27 92.41 786.10
  Q 95.54 772.79 107.09 764.21
  C 139.64 740.03 186.88 733.18 222.97 755.25
  Q 224.94 756.45 231.32 761.82
  A 0.59 0.58 46.3 0 0 232.05 761.84
  C 245.05 752.24 261.91 745.35 277.97 743.07
  C 303.30 739.48 331.67 744.63 351.89 761.11
  Q 370.31 776.13 370.37 800.25
  Q 370.48 854.01 370.39 920.53
  A 0.78 0.77 -0.0 0 1 369.61 921.30
  L 330.82 921.30
  A 0.90 0.89 0.3 0 1 329.92 920.40
  Q 329.97 860.33 329.91 812.76
  C 329.89 797.62 316.90 785.65 303.06 782.03
  Q 286.18 777.61 269.72 784.68
  C 264.00 787.14 257.09 792.45 254.25 798.50
  Q 251.34 804.71 251.35 808.99
  Q 251.43 871.51 251.32 920.23
  A 1.07 1.07 0.0 0 1 250.25 921.30
  L 211.13 921.30
  A 0.60 0.59 -0.0 0 1 210.53 920.71
  Z"
/>
<path fill="#023474" d="
  M 1052.04 865.62
  C 1060.42 880.53 1075.78 890.93 1092.75 892.81
  Q 1113.12 895.08 1129.85 884.83
  C 1139.74 878.77 1144.61 867.84 1157.49 867.68
  Q 1172.46 867.49 1185.25 867.64
  A 0.41 0.41 0.0 0 1 1185.64 868.19
  Q 1183.17 875.39 1179.67 881.14
  C 1157.64 917.30 1120.78 932.54 1079.57 925.15
  C 1056.58 921.02 1034.61 906.64 1021.73 886.72
  C 1001.37 855.25 1001.53 815.22 1021.65 784.14
  C 1035.09 763.40 1056.88 748.99 1080.88 744.20
  C 1113.53 737.69 1148.92 748.17 1169.75 774.66
  C 1180.97 788.93 1187.06 807.79 1186.98 826.22
  A 0.92 0.91 82.9 0 1 1186.31 827.09
  L 1052.37 864.80
  A 0.56 0.56 0.0 0 0 1052.04 865.62
  Z
  M 1043.74 831.00
  A 0.63 0.63 0.0 0 0 1044.54 831.64
  L 1144.55 803.49
  A 0.58 0.58 0.0 0 0 1144.89 802.64
  Q 1137.60 789.95 1125.75 782.99
  C 1106.05 771.43 1080.16 774.58 1063.02 789.82
  Q 1045.11 805.75 1043.74 831.00
  Z"
/>
<path fill="#023474" d="
  M 688.53 862.53
  Q 688.41 863.45 688.26 863.75
  Q 678.06 884.34 666.90 904.66
  L 584.80 744.65
  A 0.38 0.38 0.0 0 1 585.14 744.09
  Q 600.13 743.99 609.52 743.83
  Q 618.66 743.67 625.14 747.86
  Q 633.37 753.18 637.83 761.90
  Q 660.37 805.90 685.85 857.43
  Q 687.13 860.02 688.53 862.53
  Z"
/>
<path fill="#76b638" d="
  M 666.90 904.66
  Q 678.06 884.34 688.26 863.75
  Q 688.41 863.45 688.53 862.53
  Q 688.80 862.70 689.09 862.59
  A 0.43 0.39 -86.8 0 0 689.31 862.37
  C 692.59 854.59 697.09 846.49 700.43 839.76
  Q 724.33 791.79 739.29 762.54
  C 743.44 754.44 749.58 747.99 758.50 745.04
  Q 761.85 743.93 769.62 743.94
  Q 786.03 743.96 791.83 744.08
  A 0.63 0.63 0.0 0 1 792.40 744.94
  Q 791.51 747.27 790.16 749.90
  Q 761.37 806.25 711.81 902.88
  C 707.81 910.69 705.85 915.13 699.43 918.88
  C 690.53 924.08 678.47 921.77 672.10 913.89
  Q 669.26 910.36 666.90 904.66
  Z"
/>
<path fill="#76b638" d="
  M 907.06 862.46
  Q 907.32 862.46 907.43 862.25
  Q 943.89 789.36 958.31 761.29
  C 962.39 753.35 969.19 747.47 977.68 744.74
  Q 980.26 743.90 987.88 744.04
  Q 997.32 744.21 1010.59 744.03
  A 0.45 0.44 1.2 0 1 1011.04 744.49
  Q 1011.01 745.04 1010.66 745.71
  Q 935.70 891.94 926.17 910.64
  C 922.87 917.12 914.40 921.70 906.99 921.69
  C 899.58 921.69 891.12 917.08 887.83 910.59
  Q 878.35 891.88 803.71 745.48
  Q 803.36 744.81 803.33 744.26
  A 0.45 0.44 -1.1 0 1 803.78 743.80
  Q 817.05 744.01 826.49 743.86
  Q 834.11 743.74 836.69 744.59
  C 845.17 747.33 851.96 753.23 856.02 761.18
  Q 870.38 789.28 906.68 862.25
  Q 906.79 862.46 907.06 862.46
  Z"
/>
<path fill="#023474" d="
  M 290.71 961.98
  L 292.16 962.54
  A 0.76 0.76 0.0 0 1 292.46 963.75
  Q 289.98 966.63 286.68 967.53
  A 0.81 0.81 0.0 0 1 285.82 966.25
  L 288.64 962.57
  A 1.80 1.79 -60.7 0 1 290.71 961.98
  Z"
/>
<path fill="#023474" d="
  M 232.75 972.94
  L 231.30 974.83
  A 0.92 0.92 0.0 0 1 230.09 975.06
  C 227.50 973.48 221.61 971.91 220.36 975.82
  C 218.50 981.60 234.24 978.72 233.89 988.07
  C 233.51 998.23 221.13 996.77 215.39 992.51
  A 0.99 0.98 37.3 0 1 215.20 991.12
  L 216.73 989.12
  A 0.87 0.87 0.0 0 1 217.97 988.96
  Q 221.79 992.04 226.43 991.23
  C 227.85 990.99 229.21 989.69 229.29 988.27
  A 2.67 2.67 0.0 0 0 227.42 985.57
  Q 221.40 983.71 219.90 983.08
  C 214.84 980.95 214.15 975.05 218.09 971.37
  C 221.73 967.97 228.62 969.13 232.51 971.60
  A 0.92 0.92 0.0 0 1 232.75 972.94
  Z"
/>
<path fill="#76b638" d="
  M 499.3941 984.4334
  A 11.37 11.37 0.0 0 1 487.8664 995.6435
  L 485.7466 995.6139
  A 11.37 11.37 0.0 0 1 474.5365 984.0863
  L 474.5859 980.5466
  A 11.37 11.37 0.0 0 1 486.1136 969.3365
  L 488.2334 969.3661
  A 11.37 11.37 0.0 0 1 499.4435 980.8937
  L 499.3941 984.4334
  Z
  M 487.2863 973.7838
  A 8.64 7.82 -88.3 0 0 479.2134 982.1880
  A 8.64 7.82 -88.3 0 0 486.7737 991.0562
  A 8.64 7.82 -88.3 0 0 494.8466 982.6520
  A 8.64 7.82 -88.3 0 0 487.2863 973.7838
  Z"
/>
<path fill="#76b638" d="
  M 702.6009 969.0244
  A 13.44 12.87 -85.9 0 1 714.4771 983.3502
  A 13.44 12.87 -85.9 0 1 700.6791 995.8356
  A 13.44 12.87 -85.9 0 1 688.8029 981.5098
  A 13.44 12.87 -85.9 0 1 702.6009 969.0244
  Z
  M 701.4194 973.9226
  A 8.62 7.84 -91.4 0 0 693.7923 982.7315
  A 8.62 7.84 -91.4 0 0 701.8406 991.1574
  A 8.62 7.84 -91.4 0 0 709.4677 982.3485
  A 8.62 7.84 -91.4 0 0 701.4194 973.9226
  Z"
/>
<path fill="#023474" d="
  M 746.59 982.68
  C 746.75 990.28 754.58 994.49 760.52 988.79
  A 0.94 0.94 0.0 0 1 761.75 988.73
  L 763.80 990.29
  A 1.07 1.07 0.0 0 1 763.88 991.91
  C 755.36 999.96 742.12 994.80 741.87 982.77
  C 741.63 970.74 754.65 965.06 763.50 972.75
  A 1.07 1.07 0.0 0 1 763.48 974.38
  L 761.49 976.02
  A 0.94 0.94 0.0 0 1 760.26 976.00
  C 754.09 970.56 746.44 975.08 746.59 982.68
  Z"
/>
<path fill="#023474" d="
  M 784.8074 969.1434
  A 13.39 12.82 -96.4 0 1 799.0401 981.0210
  A 13.39 12.82 -96.4 0 1 787.7926 995.7566
  A 13.39 12.82 -96.4 0 1 773.5599 983.8790
  A 13.39 12.82 -96.4 0 1 784.8074 969.1434
  Z
  M 786.7296 973.4672
  A 8.96 8.19 -87.7 0 0 778.1866 982.0913
  A 8.96 8.19 -87.7 0 0 786.0104 991.3728
  A 8.96 8.19 -87.7 0 0 794.5534 982.7487
  A 8.96 8.19 -87.7 0 0 786.7296 973.4672
  Z"
/>
<path fill="#023474" d="
  M 882.0371 969.1781
  A 13.36 12.88 -96.2 0 1 896.2847 981.0690
  A 13.36 12.88 -96.2 0 1 884.9229 995.7419
  A 13.36 12.88 -96.2 0 1 870.6753 983.8510
  A 13.36 12.88 -96.2 0 1 882.0371 969.1781
  Z
  M 884.2014 973.4876
  A 8.94 8.17 -85.5 0 0 875.3552 981.7590
  A 8.94 8.17 -85.5 0 0 882.7986 991.3124
  A 8.94 8.17 -85.5 0 0 891.6448 983.0410
  A 8.94 8.17 -85.5 0 0 884.2014 973.4876
  Z"
/>
<path fill="#023474" d="
  M 1057.6476 969.1183
  A 13.33 12.78 -87.0 0 1 1069.7125 983.0989
  A 13.33 12.78 -87.0 0 1 1056.2524 995.7417
  A 13.33 12.78 -87.0 0 1 1044.1875 981.7611
  A 13.33 12.78 -87.0 0 1 1057.6476 969.1183
  Z
  M 1056.4811 973.4523
  A 8.96 8.10 -93.0 0 0 1048.8611 982.8239
  A 8.96 8.10 -93.0 0 0 1057.4189 991.3477
  A 8.96 8.10 -93.0 0 0 1065.0389 981.9761
  A 8.96 8.10 -93.0 0 0 1056.4811 973.4523
  Z"
/>
<path fill="#023474" d="
  M 254.92 969.51
  Q 255.97 969.51 256.77 969.97
  A 1.69 1.68 3.9 0 1 257.50 970.80
  L 267.27 994.32
  A 0.78 0.78 0.0 0 1 266.55 995.40
  L 263.99 995.40
  A 1.48 1.47 78.6 0 1 262.63 994.49
  L 260.90 990.33
  A 1.29 1.27 -9.8 0 0 259.76 989.54
  Q 259.09 989.51 254.96 989.52
  Q 250.83 989.53 250.15 989.56
  A 1.29 1.27 9.6 0 0 249.01 990.35
  L 247.30 994.52
  A 1.48 1.47 -78.8 0 1 245.94 995.43
  L 243.38 995.44
  A 0.78 0.78 0.0 0 1 242.66 994.37
  L 252.34 970.81
  A 1.69 1.68 -4.1 0 1 253.07 969.98
  Q 253.87 969.51 254.92 969.51
  Z
  M 251.19 984.94
  A 0.47 0.47 0.0 0 0 251.63 985.57
  L 258.52 985.50
  A 0.47 0.47 0.0 0 0 258.96 984.86
  L 255.42 975.89
  A 0.47 0.47 0.0 0 0 254.54 975.90
  L 251.19 984.94
  Z"
/>
<path fill="#023474" d="
  M 287.40 991.30
  C 290.47 991.29 292.53 989.56 293.24 986.67
  A 2.64 2.61 -37.5 0 0 293.34 985.96
  L 293.38 970.31
  A 0.77 0.76 -0.0 0 1 294.15 969.55
  L 296.95 969.55
  A 0.70 0.70 0.0 0 1 297.65 970.22
  Q 298.08 981.63 297.56 986.99
  C 297.02 992.66 292.87 995.70 287.41 995.71
  C 281.95 995.73 277.78 992.71 277.21 987.05
  Q 276.66 981.69 277.02 970.28
  A 0.70 0.70 0.0 0 1 277.72 969.61
  L 280.52 969.59
  A 0.77 0.76 -0.3 0 1 281.29 970.35
  L 281.42 986.00
  A 2.64 2.61 37.2 0 0 281.53 986.70
  C 282.25 989.59 284.33 991.31 287.40 991.30
  Z"
/>
<path fill="#023474" d="
  M 310.41 970.28
  A 0.73 0.73 0.0 0 1 311.14 969.55
  L 320.46 969.53
  A 12.55 12.33 -0.1 0 1 333.03 981.84
  L 333.03 983.00
  A 12.55 12.33 -0.1 0 1 320.50 995.35
  L 311.18 995.37
  A 0.73 0.73 0.0 0 1 310.45 994.64
  L 310.41 970.28
  Z
  M 314.93 974.45
  L 315.15 990.43
  A 0.61 0.61 0.0 0 0 315.77 991.03
  L 320.43 990.97
  A 8.09 7.92 -0.8 0 0 328.41 982.94
  L 328.39 981.58
  A 8.09 7.92 -0.8 0 0 320.19 973.77
  L 315.53 973.84
  A 0.61 0.61 0.0 0 0 314.93 974.45
  Z"
/>
<path fill="#023474" d="
  M 360.56 982.34
  Q 360.57 983.10 360.38 983.78
  A 0.88 0.87 -82.1 0 1 359.54 984.42
  L 349.74 984.42
  A 0.79 0.79 0.0 0 0 348.95 985.21
  L 348.95 990.17
  A 0.85 0.84 90.0 0 0 349.79 991.02
  L 361.11 991.02
  A 0.94 0.93 -0.0 0 1 362.05 991.95
  L 362.05 994.35
  A 0.94 0.93 0.0 0 1 361.11 995.28
  L 344.99 995.28
  A 0.50 0.50 0.0 0 1 344.49 994.77
  Q 344.59 988.20 344.56 982.43
  Q 344.53 976.66 344.35 970.09
  A 0.50 0.50 0.0 0 1 344.84 969.58
  L 360.96 969.39
  A 0.94 0.93 -0.7 0 1 361.91 970.31
  L 361.94 972.71
  A 0.94 0.93 -0.7 0 1 361.01 973.65
  L 349.69 973.78
  A 0.85 0.84 89.3 0 0 348.86 974.64
  L 348.92 979.60
  A 0.79 0.79 0.0 0 0 349.72 980.38
  L 359.52 980.27
  A 0.88 0.87 81.5 0 1 360.36 980.90
  Q 360.56 981.58 360.56 982.34
  Z"
/>
<path fill="#023474" d="
  M 407.68 973.69
  L 396.33 973.69
  A 0.86 0.86 0.0 0 0 395.47 974.55
  L 395.47 979.39
  A 0.86 0.86 0.0 0 0 396.33 980.25
  L 406.15 980.25
  A 0.86 0.86 0.0 0 1 407.01 981.11
  L 407.01 983.42
  A 0.86 0.86 0.0 0 1 406.15 984.28
  L 396.38 984.28
  A 0.86 0.86 0.0 0 0 395.52 985.14
  L 395.52 990.07
  A 0.86 0.86 0.0 0 0 396.38 990.93
  L 408.04 990.93
  A 0.86 0.86 0.0 0 1 408.90 991.79
  L 408.90 994.53
  A 0.86 0.86 0.0 0 1 408.04 995.39
  L 391.88 995.39
  A 0.86 0.86 0.0 0 1 391.02 994.53
  L 391.02 970.50
  A 0.86 0.86 0.0 0 1 391.88 969.64
  L 407.68 969.64
  A 0.86 0.86 0.0 0 1 408.54 970.50
  L 408.54 972.83
  A 0.86 0.86 0.0 0 1 407.68 973.69
  Z"
/>
<path fill="#76b638" d="
  M 450.19 992.65
  Q 448.98 992.65 447.97 990.58
  C 445.79 986.11 443.33 980.34 442.44 979.68
  A 0.21 0.21 0.0 0 0 442.10 979.85
  L 442.13 994.31
  A 1.17 1.17 0.0 0 1 440.97 995.48
  L 438.59 995.48
  A 1.14 1.14 0.0 0 1 437.45 994.35
  L 437.40 970.55
  A 0.84 0.84 0.0 0 1 438.09 969.72
  Q 440.14 969.32 441.77 969.88
  A 1.76 1.71 85.5 0 1 442.75 970.74
  Q 445.78 976.76 449.83 984.46
  Q 449.92 984.63 450.24 984.63
  Q 450.46 984.63 450.55 984.46
  Q 454.58 976.75 457.61 970.73
  A 1.76 1.71 -85.6 0 1 458.59 969.86
  Q 460.21 969.30 462.27 969.69
  A 0.84 0.84 0.0 0 1 462.96 970.52
  L 462.95 994.32
  A 1.14 1.14 0.0 0 1 461.81 995.46
  L 459.44 995.46
  A 1.17 1.17 0.0 0 1 458.27 994.29
  L 458.27 979.84
  A 0.21 0.21 0.0 0 0 457.94 979.67
  C 457.05 980.33 454.59 986.10 452.42 990.57
  Q 451.42 992.64 450.19 992.65
  Z"
/>
<path fill="#76b638" d="
  M 519.88 987.82
  Q 520.31 987.71 520.42 987.37
  Q 522.13 982.14 526.47 971.07
  A 2.17 2.17 0.0 0 1 528.49 969.69
  L 530.77 969.69
  A 0.96 0.95 -79.5 0 1 531.66 970.99
  L 522.88 993.89
  A 2.58 2.56 -89.4 0 1 521.38 995.37
  Q 517.25 996.90 516.26 992.97
  Q 514.81 987.20 507.81 970.90
  A 1.04 1.04 0.0 0 1 508.77 969.45
  L 511.49 969.45
  A 2.18 2.16 80.9 0 1 513.55 970.95
  Q 516.80 980.94 519.22 987.46
  Q 519.40 987.95 519.88 987.82
  Z"
/>
<rect fill="#76b638" x="-2.46" y="-13.03" transform="translate(544.35,982.52) rotate(0.1)" width="4.92" height="26.06" rx="0.86"/>
<path fill="#76b638" d="
  M 572.66 984.71
  Q 572.88 984.71 572.97 984.54
  Q 577.01 976.81 580.04 970.77
  A 1.77 1.71 -85.6 0 1 581.02 969.90
  Q 582.65 969.34 584.71 969.73
  A 0.85 0.84 5.4 0 1 585.40 970.56
  L 585.40 994.42
  A 1.14 1.14 0.0 0 1 584.26 995.56
  L 581.88 995.56
  A 1.17 1.17 0.0 0 1 580.71 994.39
  L 580.71 979.90
  A 0.21 0.21 0.0 0 0 580.37 979.73
  C 579.48 980.39 577.02 986.18 574.84 990.66
  Q 573.84 992.74 572.61 992.74
  Q 571.40 992.74 570.39 990.67
  C 568.20 986.19 565.73 980.41 564.84 979.75
  A 0.21 0.21 0.0 0 0 564.50 979.92
  L 564.53 994.41
  A 1.17 1.17 0.0 0 1 563.36 995.58
  L 560.98 995.59
  A 1.14 1.14 0.0 0 1 559.84 994.45
  L 559.78 970.59
  A 0.85 0.84 -5.5 0 1 560.47 969.76
  Q 562.53 969.36 564.16 969.92
  A 1.77 1.71 85.5 0 1 565.14 970.79
  Q 568.19 976.82 572.25 984.54
  Q 572.34 984.71 572.66 984.71
  Z"
/>
<path fill="#76b638" d="
  M 614.68 980.88
  L 614.68 983.42
  A 0.87 0.87 0.0 0 1 613.81 984.29
  L 603.99 984.29
  A 0.87 0.87 0.0 0 0 603.12 985.16
  L 603.12 989.95
  A 0.87 0.87 0.0 0 0 603.99 990.82
  L 615.52 990.82
  A 0.87 0.87 0.0 0 1 616.39 991.69
  L 616.39 994.59
  A 0.87 0.87 0.0 0 1 615.52 995.46
  L 599.04 995.46
  A 0.87 0.87 0.0 0 1 598.17 994.59
  L 598.17 970.43
  A 0.87 0.87 0.0 0 1 599.04 969.56
  L 615.05 969.56
  A 0.87 0.87 0.0 0 1 615.92 970.43
  L 615.92 973.03
  A 0.87 0.87 0.0 0 1 615.05 973.90
  L 603.88 973.90
  A 0.87 0.87 0.0 0 0 603.01 974.77
  L 603.01 979.14
  A 0.87 0.87 0.0 0 0 603.88 980.01
  L 613.81 980.01
  A 0.87 0.87 0.0 0 1 614.68 980.88
  Z"
/>
<path fill="#76b638" d="
  M 632.91 978.49
  L 632.91 994.63
  A 0.99 0.99 0.0 0 1 631.92 995.62
  L 629.03 995.62
  A 1.05 1.05 0.0 0 1 627.98 994.57
  L 627.98 970.86
  A 1.13 1.13 0.0 0 1 628.81 969.77
  Q 632.25 968.83 634.03 971.69
  Q 638.19 978.43 644.07 985.32
  A 0.29 0.29 0.0 0 0 644.58 985.13
  L 644.58 970.64
  A 0.96 0.95 90.0 0 1 645.53 969.68
  L 648.53 969.68
  A 0.99 0.98 90.0 0 1 649.51 970.67
  L 649.51 994.33
  A 1.00 1.00 0.0 0 1 648.94 995.23
  Q 646.33 996.45 644.65 994.39
  Q 638.45 986.80 633.20 978.40
  A 0.16 0.16 0.0 0 0 632.91 978.49
  Z"
/>
<path fill="#76b638" d="
  M 670.13 969.62
  Q 674.64 969.56 679.03 969.61
  A 1.33 1.33 0.0 0 1 680.34 970.94
  L 680.34 972.66
  A 1.30 1.29 90.0 0 1 679.05 973.96
  L 673.35 973.96
  A 0.64 0.63 0.0 0 0 672.71 974.59
  L 672.61 994.42
  A 1.09 1.09 0.0 0 1 672.00 995.38
  Q 671.68 995.54 670.12 995.54
  Q 668.56 995.54 668.24 995.38
  A 1.09 1.09 0.0 0 1 667.63 994.42
  L 667.54 974.59
  A 0.64 0.63 0.0 0 0 666.90 973.96
  L 661.20 973.96
  A 1.30 1.29 -90.0 0 1 659.91 972.65
  L 659.91 970.93
  A 1.33 1.33 0.0 0 1 661.22 969.61
  Q 665.61 969.56 670.13 969.62
  Z"
/>
<path fill="#023474" d="
  M 814.89 994.55
  A 0.80 0.80 0.0 0 1 814.09 995.35
  L 811.25 995.34
  A 0.85 0.85 0.0 0 1 810.40 994.49
  L 810.46 970.08
  A 0.40 0.40 0.0 0 1 810.85 969.69
  Q 818.39 969.51 822.03 969.74
  C 831.13 970.34 832.71 981.73 825.53 986.15
  A 0.57 0.57 0.0 0 0 825.33 986.92
  L 829.74 994.61
  A 0.51 0.50 75.0 0 1 829.31 995.37
  L 826.41 995.36
  A 2.16 2.15 -14.7 0 1 824.55 994.28
  L 820.88 987.89
  A 1.15 1.15 0.0 0 0 819.89 987.31
  L 815.62 987.30
  A 0.71 0.71 0.0 0 0 814.91 988.01
  L 814.89 994.55
  Z
  M 814.90 974.37
  L 815.00 982.44
  A 0.66 0.66 0.0 0 0 815.67 983.10
  L 820.75 983.03
  A 4.86 4.56 -0.7 0 0 825.55 978.42
  L 825.55 978.14
  A 4.86 4.56 -0.7 0 0 820.63 973.63
  L 815.55 973.70
  A 0.66 0.66 0.0 0 0 814.90 974.37
  Z"
/>
<path fill="#023474" d="
  M 842.41 969.60
  C 846.09 969.59 853.15 968.97 856.43 970.71
  C 863.40 974.42 862.17 986.32 853.59 987.34
  Q 851.43 987.60 846.83 987.53
  A 0.67 0.67 0.0 0 0 846.15 988.20
  L 846.15 994.35
  A 1.08 1.07 0.0 0 1 845.07 995.42
  L 842.77 995.42
  A 1.13 1.12 -0.0 0 1 841.64 994.30
  L 841.64 970.37
  A 0.78 0.77 -0.4 0 1 842.41 969.60
  Z
  M 846.20 974.37
  L 846.22 982.51
  A 0.67 0.67 0.0 0 0 846.90 983.18
  L 851.72 983.16
  A 4.81 4.60 -0.2 0 0 856.51 978.54
  L 856.51 978.26
  A 4.81 4.60 -0.2 0 0 851.68 973.68
  L 846.86 973.70
  A 0.67 0.67 0.0 0 0 846.20 974.37
  Z"
/>
<path fill="#023474" d="
  M 912.12 994.53
  A 0.80 0.80 0.0 0 1 911.32 995.33
  L 908.48 995.33
  A 0.85 0.85 0.0 0 1 907.63 994.48
  L 907.63 970.06
  A 0.40 0.40 0.0 0 1 908.02 969.66
  Q 915.56 969.47 919.20 969.69
  C 928.31 970.26 929.92 981.66 922.74 986.10
  A 0.57 0.57 0.0 0 0 922.55 986.87
  L 926.98 994.55
  A 0.51 0.50 74.8 0 1 926.55 995.31
  L 923.65 995.31
  A 2.16 2.15 -14.9 0 1 921.78 994.23
  L 918.10 987.85
  A 1.15 1.15 0.0 0 0 917.10 987.27
  L 912.83 987.27
  A 0.71 0.71 0.0 0 0 912.12 987.98
  L 912.12 994.53
  Z
  M 912.25 974.50
  L 912.31 982.42
  A 0.75 0.75 0.0 0 0 913.06 983.16
  L 917.74 983.13
  A 5.05 4.51 -0.4 0 0 922.76 978.58
  L 922.76 978.18
  A 5.05 4.51 -0.4 0 0 917.68 973.71
  L 913.00 973.74
  A 0.75 0.75 0.0 0 0 912.25 974.50
  Z"
/>
<path fill="#023474" d="
  M 948.55 989.49
  Q 944.43 989.50 943.76 989.53
  A 1.29 1.27 9.6 0 0 942.62 990.32
  L 940.91 994.48
  A 1.48 1.47 -78.8 0 1 939.56 995.39
  L 937.00 995.40
  A 0.78 0.78 0.0 0 1 936.28 994.33
  L 945.93 970.82
  A 1.69 1.68 -4.1 0 1 946.66 969.99
  Q 947.46 969.53 948.51 969.53
  Q 949.55 969.53 950.36 969.99
  A 1.69 1.68 3.9 0 1 951.08 970.81
  L 960.83 994.28
  A 0.78 0.78 0.0 0 1 960.11 995.36
  L 957.56 995.36
  A 1.48 1.47 78.6 0 1 956.20 994.45
  L 954.48 990.30
  A 1.29 1.27 -9.8 0 0 953.34 989.51
  Q 952.67 989.48 948.55 989.49
  Z
  M 944.86 984.94
  A 0.47 0.47 0.0 0 0 945.30 985.58
  L 951.98 985.50
  A 0.47 0.47 0.0 0 0 952.41 984.85
  L 948.97 976.26
  A 0.47 0.47 0.0 0 0 948.09 976.28
  L 944.86 984.94
  Z"
/>
<path fill="#023474" d="
  M 976.60 969.58
  Q 981.39 969.52 985.56 969.62
  A 0.95 0.94 0.7 0 1 986.48 970.56
  L 986.48 972.73
  A 1.03 1.03 0.0 0 1 985.45 973.76
  L 979.35 973.76
  A 0.64 0.64 0.0 0 0 978.71 974.41
  L 978.93 994.25
  A 1.26 1.25 76.2 0 1 978.26 995.36
  Q 978.14 995.43 976.60 995.43
  Q 975.07 995.43 974.95 995.36
  A 1.26 1.25 -76.2 0 1 974.28 994.25
  L 974.49 974.41
  A 0.64 0.64 0.0 0 0 973.85 973.76
  L 967.75 973.76
  A 1.03 1.03 0.0 0 1 966.72 972.73
  L 966.72 970.56
  A 0.95 0.94 -0.8 0 1 967.64 969.62
  Q 971.81 969.53 976.60 969.58
  Z"
/>
<rect fill="#023474" x="997.41" y="969.57" width="4.46" height="25.96" rx="0.88"/>
<path fill="#023474" d="
  M 1024.27 988.24
  Q 1024.55 988.24 1024.64 987.99
  Q 1028.15 979.05 1031.28 970.54
  A 1.48 1.47 -79.7 0 1 1032.66 969.58
  L 1035.45 969.58
  A 0.63 0.63 0.0 0 1 1036.04 970.44
  L 1026.75 994.68
  A 1.28 1.28 0.0 0 1 1025.86 995.46
  Q 1025.79 995.48 1024.25 995.48
  Q 1022.72 995.47 1022.65 995.46
  A 1.28 1.28 0.0 0 1 1021.76 994.67
  L 1012.55 970.40
  A 0.63 0.63 0.0 0 1 1013.14 969.55
  L 1015.93 969.55
  A 1.48 1.47 79.8 0 1 1017.31 970.52
  Q 1020.41 979.04 1023.89 987.99
  Q 1023.99 988.24 1024.27 988.24
  Z"
/>
<rect fill="#76b638" x="91.53" y="978.27" width="97.30" height="5.66" rx="1.16"/>
<rect fill="#76b638" x="1096.34" y="978.27" width="84.78" height="5.68" rx="0.97"/>
</svg>
