<?xml version="1.0" encoding="UTF-8" standalone="no"?>
<!DOCTYPE svg PUBLIC "-//W3C//DTD SVG 1.1//EN" "http://www.w3.org/Graphics/SVG/1.1/DTD/svg11.dtd">
<svg xmlns="http://www.w3.org/2000/svg" version="1.1" viewBox="0.00 0.00 681.00 705.00">
<path fill="#71b54a" d="
  M 543.17 66.41
  A 0.13 0.13 0.0 0 1 543.18 66.60
  L 542.80 66.96
  A 0.02 0.02 0.0 0 1 542.77 66.97
  Q 529.83 58.82 513.06 51.69
  C 476.91 36.32 437.62 27.41 398.49 27.41
  Q 384.26 27.41 376.00 28.02
  Q 374.28 28.14 359.83 29.84
  C 328.42 33.52 297.78 42.11 268.80 55.08
  C 213.00 80.05 165.30 121.63 133.08 174.10
  Q 126.90 184.16 118.38 200.63
  C 109.60 217.62 103.24 234.14 96.87 254.40
  Q 86.76 286.51 83.35 316.51
  Q 81.80 330.11 81.31 351.89
  C 81.13 360.10 82.11 369.39 82.62 378.85
  Q 82.91 384.30 83.57 389.63
  Q 86.66 414.73 91.77 435.23
  C 101.57 474.54 116.94 512.26 138.53 546.99
  Q 142.63 553.59 145.21 557.13
  C 149.38 562.85 152.48 567.98 156.07 572.81
  C 158.53 576.12 161.61 579.24 163.89 582.48
  A 0.36 0.36 0.0 0 1 163.35 582.95
  Q 157.01 576.99 147.06 567.44
  C 141.78 562.37 137.86 557.89 132.07 551.43
  C 108.32 524.93 89.79 495.04 75.60 462.97
  Q 73.14 457.41 68.05 444.05
  Q 64.03 433.53 61.45 424.83
  Q 27.73 311.39 74.19 202.46
  Q 89.68 166.11 113.54 133.80
  Q 136.70 102.41 169.87 75.88
  Q 208.36 45.10 256.25 27.17
  Q 311.96 6.32 370.76 7.56
  C 432.87 8.88 493.39 29.18 543.17 66.41
  Z"
/>
<path fill="#003771" d="
  M 73.68 664.38
  A 0.21 0.21 0.0 0 1 73.59 663.97
  Q 81.80 660.14 92.08 655.07
  Q 164.21 619.46 224.46 568.19
  Q 263.06 535.35 293.79 498.30
  Q 313.78 474.19 330.09 447.61
  Q 343.85 425.18 353.05 401.81
  C 357.87 389.57 361.83 374.37 360.56 361.30
  C 359.69 352.35 357.58 343.24 352.95 336.05
  C 347.96 328.31 339.36 320.43 330.43 315.84
  C 317.82 309.36 305.21 306.28 291.58 304.36
  C 261.14 300.08 228.10 302.35 198.33 307.89
  Q 196.28 308.28 181.08 311.56
  C 165.57 314.90 150.31 319.61 136.35 324.19
  A 0.27 0.27 0.0 0 1 136.00 323.91
  Q 136.01 323.70 136.25 323.50
  Q 145.68 315.67 151.65 311.17
  C 181.38 288.72 217.63 272.85 254.03 264.52
  Q 284.49 257.55 317.02 255.09
  C 348.47 252.72 379.83 253.88 411.71 252.60
  Q 452.39 250.97 489.09 234.56
  C 525.44 218.30 556.93 193.88 585.07 164.83
  Q 597.95 151.54 605.23 142.74
  Q 626.12 117.49 643.70 91.41
  A 0.26 0.26 0.0 0 1 644.16 91.48
  Q 644.27 91.85 644.16 92.22
  C 638.32 112.12 630.83 132.86 621.29 151.84
  C 617.21 159.97 613.94 167.42 610.01 174.25
  Q 600.88 190.11 590.25 205.52
  C 564.81 242.38 531.89 273.47 493.17 296.92
  Q 484.14 302.39 473.27 307.29
  A 3.02 3.01 82.3 0 0 471.53 309.58
  Q 467.19 337.73 457.24 366.77
  Q 444.16 404.98 422.43 440.22
  Q 406.91 465.39 385.19 491.96
  Q 383.11 494.50 370.84 508.09
  Q 363.26 516.48 355.85 523.63
  Q 332.09 546.55 307.25 565.00
  Q 302.97 568.18 285.77 579.98
  Q 262.88 595.68 232.90 610.85
  Q 204.31 625.31 174.59 636.56
  C 159.23 642.37 140.77 648.57 123.66 653.13
  Q 100.64 659.26 76.80 664.06
  Q 75.22 664.38 73.68 664.38
  Z"
/>
<circle fill="#003771" cx="422.78" cy="171.50" r="55.05"/>
<path fill="#003771" d="
  M 648.72 222.86
  A 0.25 0.25 0.0 0 1 648.88 222.55
  L 648.90 222.54
  A 0.31 0.31 0.0 0 1 649.29 222.72
  Q 659.21 247.45 664.36 265.35
  Q 674.57 300.93 676.77 341.00
  C 680.46 408.06 661.56 476.40 625.65 531.96
  Q 599.02 573.16 560.27 604.52
  C 522.50 635.09 474.26 656.98 426.07 664.59
  Q 408.62 667.35 386.89 668.04
  C 371.99 668.52 357.21 667.17 342.50 665.27
  Q 327.13 663.29 311.52 658.63
  A 0.37 0.37 0.0 0 1 311.64 657.91
  Q 360.24 659.76 407.27 649.01
  C 415.68 647.09 426.60 643.97 435.90 640.69
  C 514.58 612.97 579.39 557.06 619.42 483.69
  Q 642.82 440.80 653.31 395.13
  Q 655.36 386.23 656.67 377.75
  C 657.90 369.84 659.22 362.71 660.14 354.39
  Q 667.49 287.42 648.72 222.86
  Z"
/>
<path fill="#71b54a" d="
  M 10.97 694.89
  Q 11.47 694.62 12.27 694.56
  C 25.15 693.47 39.55 692.31 53.82 689.84
  C 71.93 686.70 92.39 683.31 111.45 678.37
  Q 152.58 667.71 187.24 654.20
  Q 211.66 644.68 240.36 630.60
  Q 275.65 613.29 314.53 586.04
  Q 316.48 584.68 329.92 574.27
  Q 339.43 566.90 345.00 562.12
  Q 372.26 538.74 392.24 516.23
  Q 412.37 493.54 433.57 462.28
  C 438.63 454.83 442.53 447.12 446.96 440.21
  Q 447.67 439.10 448.43 437.11
  A 0.61 0.60 52.5 0 1 449.60 437.27
  C 450.42 445.04 449.71 452.24 448.79 461.61
  Q 445.68 493.56 432.87 522.43
  C 413.84 565.33 379.10 600.50 339.39 626.63
  Q 304.04 649.90 265.06 665.99
  C 219.85 684.65 170.42 696.77 122.26 700.96
  Q 99.58 702.93 70.60 702.19
  Q 62.87 702.00 53.92 701.10
  C 37.61 699.46 25.34 698.25 11.08 695.57
  A 0.37 0.36 35.9 0 1 10.97 694.89
  Z"
/>
</svg>
