<?xml version="1.0" encoding="UTF-8" standalone="no"?>
<!DOCTYPE svg PUBLIC "-//W3C//DTD SVG 1.1//EN" "http://www.w3.org/Graphics/SVG/1.1/DTD/svg11.dtd">
<svg xmlns="http://www.w3.org/2000/svg" version="1.1" viewBox="0.00 0.00 1644.00 287.00">
<path stroke="#39775e" stroke-width="2.00" fill="none" stroke-linecap="butt" vector-effect="non-scaling-stroke" d="
  M 896.33 185.69
  Q 895.96 186.87 895.50 187.81
  Q 880.46 218.59 863.82 248.49"
/>
<path fill="#003771" d="
  M 612.00 5.06
  C 642.55 7.23 670.29 17.34 694.16 36.75
  C 752.57 84.24 759.88 170.94 712.80 228.85
  C 683.06 265.44 636.66 283.34 589.67 280.00
  C 559.12 277.82 531.37 267.71 507.50 248.30
  C 449.10 200.81 441.79 114.11 488.86 56.20
  C 518.61 19.61 565.01 1.71 612.00 5.06
  Z
  M 596.70 55.65
  C 548.20 57.92 512.39 98.40 514.64 146.50
  C 516.88 194.59 556.31 231.56 604.82 229.30
  C 653.32 227.03 689.13 186.54 686.88 138.45
  C 684.63 90.36 645.21 53.38 596.70 55.65
  Z"
/>
<path fill="#003771" d="
  M 421.88 272.72
  A 0.49 0.49 0.0 0 1 421.39 273.17
  L 362.91 273.17
  A 1.09 1.08 -1.7 0 1 361.82 272.15
  Q 361.67 269.53 361.68 268.50
  Q 361.72 155.63 361.68 110.25
  C 361.68 101.50 358.19 92.74 352.25 85.49
  C 344.08 75.53 334.01 68.67 321.70 65.52
  Q 295.82 58.89 271.54 69.78
  C 263.24 73.51 253.66 80.93 249.36 89.22
  Q 244.63 98.33 244.64 107.01
  Q 244.76 193.96 244.65 260.50
  Q 244.64 266.51 244.38 272.23
  A 0.99 0.99 0.0 0 1 243.39 273.17
  L 184.79 273.17
  A 1.03 1.02 -0.0 0 1 183.76 272.15
  C 183.75 241.13 183.83 201.17 183.90 120.56
  Q 183.92 106.41 182.58 101.56
  C 176.03 77.87 151.93 63.82 128.78 62.98
  C 111.23 62.35 94.35 66.92 80.85 78.02
  Q 66.32 89.97 66.35 109.16
  Q 66.53 201.43 66.43 272.35
  A 0.84 0.84 0.0 0 1 65.59 273.19
  L 7.36 273.19
  A 1.06 1.05 89.7 0 1 6.31 272.14
  Q 6.24 219.54 6.27 96.77
  Q 6.28 77.96 7.80 71.38
  C 11.43 55.66 21.66 43.89 34.98 34.96
  Q 59.49 18.54 88.92 10.88
  Q 125.10 1.46 160.74 9.08
  C 180.57 13.32 200.09 21.78 214.78 35.50
  A 0.70 0.70 0.0 0 0 215.69 35.54
  C 229.85 24.59 246.54 17.29 264.22 11.93
  C 297.29 1.91 334.66 4.29 367.01 17.76
  C 384.71 25.13 402.78 38.31 412.32 54.96
  Q 421.96 71.77 422.01 91.26
  Q 422.25 181.36 422.07 268.75
  Q 422.07 270.70 421.88 272.72
  Z"
/>
<path fill="#003771" d="
  M 1636.33 193.10
  A 0.86 0.86 0.0 0 1 1637.12 194.27
  Q 1629.95 213.32 1617.06 229.56
  C 1585.76 269.01 1538.91 286.87 1488.96 280.45
  Q 1450.78 275.55 1421.98 253.17
  C 1386.83 225.85 1368.47 183.40 1370.28 139.01
  C 1372.29 89.67 1399.59 46.02 1442.84 22.90
  C 1487.40 -0.92 1542.88 0.86 1584.88 28.42
  C 1620.03 51.48 1639.29 90.26 1639.18 131.80
  A 0.89 0.89 0.0 0 1 1638.53 132.66
  L 1438.50 188.95
  A 0.76 0.76 0.0 0 0 1438.04 190.04
  C 1448.56 209.30 1467.60 223.54 1488.24 228.80
  Q 1501.71 232.23 1518.24 230.74
  Q 1545.81 228.25 1565.68 209.41
  C 1573.90 201.62 1577.62 197.62 1586.36 194.43
  Q 1589.62 193.24 1597.27 193.17
  Q 1620.53 192.95 1636.33 193.10
  Z
  M 1426.41 139.60
  L 1576.04 97.49
  A 0.53 0.53 0.0 0 0 1576.37 96.73
  C 1565.41 75.58 1544.20 61.02 1520.94 57.57
  C 1494.12 53.59 1468.12 62.61 1449.35 82.01
  Q 1433.58 98.31 1427.84 121.70
  C 1426.42 127.49 1426.09 132.87 1425.78 139.11
  A 0.49 0.49 0.0 0 0 1426.41 139.60
  Z"
/>
<path fill="#72b64a" d="
  M 1221.83 273.80
  C 1211.50 273.79 1202.37 268.73 1195.76 260.92
  Q 1193.64 258.42 1189.54 250.13
  Q 1181.41 233.68 1169.14 209.68
  Q 1126.94 127.13 1075.28 25.66
  Q 1067.77 10.91 1067.12 9.56
  A 0.73 0.73 0.0 0 1 1067.79 8.52
  Q 1086.08 8.80 1095.26 8.68
  Q 1111.06 8.46 1114.26 9.15
  C 1128.26 12.17 1139.87 22.58 1146.31 35.37
  Q 1192.43 126.85 1221.29 185.03
  C 1221.41 185.27 1221.65 185.40 1221.91 185.40
  C 1222.17 185.40 1222.41 185.27 1222.53 185.03
  Q 1251.49 126.90 1297.78 35.51
  C 1304.24 22.73 1315.87 12.34 1329.88 9.34
  Q 1333.08 8.66 1348.88 8.91
  Q 1358.06 9.05 1376.35 8.80
  A 0.73 0.73 0.0 0 1 1377.01 9.84
  Q 1376.36 11.19 1368.83 25.93
  Q 1316.98 127.30 1274.63 209.78
  Q 1262.32 233.75 1254.16 250.19
  Q 1250.05 258.47 1247.93 260.97
  C 1241.30 268.77 1232.16 273.81 1221.83 273.80
  Z"
/>
<path fill="#003771" d="
  M 896.33 185.69
  Q 895.96 186.87 895.50 187.81
  Q 880.46 218.59 863.82 248.49
  L 741.36 9.66
  A 0.51 0.50 -13.8 0 1 741.81 8.93
  Q 768.16 8.59 783.00 8.75
  C 796.66 8.90 809.30 18.24 816.84 29.17
  Q 819.60 33.17 823.69 41.23
  Q 840.45 74.31 856.76 106.82
  Q 885.03 163.16 891.65 176.66
  Q 893.90 181.25 896.33 185.69
  Z"
/>
<path fill="#72b64a" d="
  M 863.82 248.49
  Q 880.46 218.59 895.50 187.81
  Q 895.96 186.87 896.33 185.69
  Q 896.84 186.09 897.16 185.40
  Q 902.70 173.62 907.55 164.08
  Q 918.14 143.30 918.16 143.24
  C 935.85 107.58 953.60 72.69 970.92 38.19
  C 977.39 25.29 987.00 14.46 1001.17 10.19
  Q 1006.23 8.66 1018.93 8.70
  Q 1049.74 8.81 1050.66 8.87
  A 0.76 0.76 0.0 0 1 1051.31 9.92
  Q 1050.48 11.89 1048.51 15.79
  Q 1022.64 66.89 996.36 117.87
  C 995.12 120.28 993.48 124.10 991.88 127.08
  C 981.61 146.17 970.25 169.07 959.70 189.35
  Q 950.26 207.51 940.85 225.95
  Q 935.29 236.85 926.50 254.47
  C 918.43 270.65 900.54 278.15 883.60 270.92
  C 876.49 267.89 871.42 262.72 867.66 255.76
  Q 865.70 252.14 863.82 248.49
  Z"
/>
</svg>
