<?xml version="1.0" encoding="UTF-8" standalone="no"?>
<!DOCTYPE svg PUBLIC "-//W3C//DTD SVG 1.1//EN" "http://www.w3.org/Graphics/SVG/1.1/DTD/svg11.dtd">
<svg xmlns="http://www.w3.org/2000/svg" version="1.1" viewBox="0.00 0.00 1634.00 57.00">
<path fill="#00356a" d="
  M 293.94 9.66
  A 0.55 0.54 -71.1 0 1 293.51 8.78
  L 298.44 2.41
  A 2.24 2.23 -60.5 0 1 301.01 1.69
  L 303.68 2.71
  A 1.07 1.07 0.0 0 1 303.98 4.53
  L 298.24 9.24
  A 1.84 1.84 0.0 0 1 297.07 9.66
  L 293.94 9.66
  Z"
/>
<path fill="#72b64d" d="
  M 915.0481 12.2841
  A 20.04 19.22 -86.2 0 1 932.8977 33.5538
  A 20.04 19.22 -86.2 0 1 912.3919 52.2759
  A 20.04 19.22 -86.2 0 1 894.5423 31.0062
  A 20.04 19.22 -86.2 0 1 915.0481 12.2841
  Z
  M 913.4749 19.4620
  A 12.90 11.69 -91.0 0 0 902.0118 32.5640
  A 12.90 11.69 -91.0 0 0 913.9251 45.2580
  A 12.90 11.69 -91.0 0 0 925.3882 32.1560
  A 12.90 11.69 -91.0 0 0 913.4749 19.4620
  Z"
/>
<path fill="#72b64d" d="
  M 594.3001 12.2860
  A 20.06 19.17 -88.6 0 1 612.9743 32.8084
  A 20.06 19.17 -88.6 0 1 593.3199 52.3940
  A 20.06 19.17 -88.6 0 1 574.6457 31.8716
  A 20.06 19.17 -88.6 0 1 594.3001 12.2860
  Z
  M 594.1931 19.3033
  A 12.92 11.70 -88.7 0 0 582.2030 31.9546
  A 12.92 11.70 -88.7 0 0 593.6069 45.1367
  A 12.92 11.70 -88.7 0 0 605.5970 32.4854
  A 12.92 11.70 -88.7 0 0 594.1931 19.3033
  Z"
/>
<path fill="#00356a" d="
  M 1037.8294 12.3996
  A 20.00 19.10 -96.0 0 1 1058.9154 30.2935
  A 20.00 19.10 -96.0 0 1 1042.0106 52.1804
  A 20.00 19.10 -96.0 0 1 1020.9246 34.2865
  A 20.00 19.10 -96.0 0 1 1037.8294 12.3996
  Z
  M 1040.4756 18.8881
  A 13.34 12.19 -88.0 0 0 1027.8274 31.7946
  A 13.34 12.19 -88.0 0 0 1039.5444 45.5519
  A 13.34 12.19 -88.0 0 0 1052.1926 32.6454
  A 13.34 12.19 -88.0 0 0 1040.4756 18.8881
  Z"
/>
<path fill="#00356a" d="
  M 1182.6522 12.4728
  A 19.93 19.19 -96.1 0 1 1203.8513 30.2508
  A 19.93 19.19 -96.1 0 1 1186.8878 52.1072
  A 19.93 19.19 -96.1 0 1 1165.6887 34.3292
  A 19.93 19.19 -96.1 0 1 1182.6522 12.4728
  Z
  M 1185.8435 18.9310
  A 13.30 12.16 -85.5 0 0 1172.6775 31.2359
  A 13.30 12.16 -85.5 0 0 1183.7565 45.4490
  A 13.30 12.16 -85.5 0 0 1196.9225 33.1441
  A 13.30 12.16 -85.5 0 0 1185.8435 18.9310
  Z"
/>
<path fill="#00356a" d="
  M 1444.2826 12.3538
  A 19.91 19.07 -87.2 0 1 1462.3572 33.1716
  A 19.91 19.07 -87.2 0 1 1442.3374 52.1262
  A 19.91 19.07 -87.2 0 1 1424.2628 31.3084
  A 19.91 19.07 -87.2 0 1 1444.2826 12.3538
  Z
  M 1442.5775 18.8596
  A 13.36 12.05 -93.1 0 0 1431.2676 32.8516
  A 13.36 12.05 -93.1 0 0 1444.0225 45.5404
  A 13.36 12.05 -93.1 0 0 1455.3324 31.5484
  A 13.36 12.05 -93.1 0 0 1442.5775 18.8596
  Z"
/>
<path fill="#00356a" d="
  M 212.46 21.27
  A 1.01 1.01 0.0 0 1 211.03 21.44
  C 207.55 18.68 197.97 16.47 196.34 22.82
  C 195.67 25.43 198.55 27.44 200.71 28.05
  C 207.49 29.98 216.29 31.37 216.62 40.17
  C 216.98 49.73 208.29 53.32 200.23 51.95
  Q 194.00 50.90 189.07 47.34
  A 1.54 1.54 0.0 0 1 188.75 45.15
  L 191.05 42.17
  A 1.25 1.25 0.0 0 1 192.87 42.00
  C 196.80 45.54 209.57 48.71 209.63 40.20
  C 209.65 38.06 206.89 36.85 205.36 36.38
  C 201.64 35.24 195.18 33.99 191.83 30.51
  C 188.37 26.91 188.57 20.81 191.73 17.16
  C 197.46 10.55 208.07 11.83 214.67 16.32
  A 1.21 1.20 -54.0 0 1 214.94 18.06
  L 212.46 21.27
  Z"
/>
<path fill="#72b64d" d="
  M 624.60 14.81
  A 1.28 1.27 76.6 0 1 625.71 13.00
  L 630.80 12.80
  A 2.36 2.35 -10.5 0 1 633.11 14.38
  L 642.04 40.36
  A 0.57 0.57 0.0 0 0 643.12 40.38
  L 652.81 15.18
  A 3.07 3.05 9.3 0 1 655.55 13.22
  L 658.78 13.10
  A 1.41 1.41 0.0 0 1 660.17 14.95
  Q 654.30 32.36 646.56 50.38
  A 1.91 1.84 -2.3 0 1 645.66 51.32
  Q 643.71 52.25 640.62 51.92
  C 638.69 51.71 638.18 50.07 637.63 48.33
  Q 632.16 31.28 624.60 14.81
  Z"
/>
<rect fill="#72b64d" x="-3.65" y="-19.48" transform="translate(679.32,32.32) rotate(0.1)" width="7.30" height="38.96" rx="1.07"/>
<path fill="#72b64d" d="
  M 733.46 28.06
  A 0.36 0.36 0.0 0 0 732.78 27.91
  Q 728.15 37.71 724.54 45.28
  Q 723.11 48.29 719.78 47.09
  A 1.59 1.57 -2.7 0 1 718.88 46.28
  Q 714.17 36.48 711.05 30.47
  Q 710.46 29.33 709.37 28.22
  A 0.40 0.40 0.0 0 0 708.69 28.56
  Q 710.11 39.02 709.53 50.31
  A 1.44 1.44 0.0 0 1 708.09 51.68
  L 703.63 51.68
  A 1.31 1.31 0.0 0 1 702.32 50.37
  L 702.32 14.06
  A 1.00 0.99 90.0 0 1 703.31 13.06
  L 707.83 13.06
  A 2.36 2.35 76.3 0 1 709.92 14.34
  L 721.08 35.97
  A 0.40 0.40 0.0 0 0 721.79 35.97
  L 732.71 14.40
  A 2.82 2.81 -76.7 0 1 735.23 12.84
  L 738.79 12.84
  A 1.70 1.70 0.0 0 1 740.49 14.54
  L 740.49 50.14
  A 1.82 1.82 0.0 0 1 738.67 51.96
  L 734.98 51.96
  A 1.52 1.52 0.0 0 1 733.46 50.44
  L 733.46 28.06
  Z"
/>
<path fill="#00356a" d="
  M 980.75 32.65
  C 980.88 38.29 983.81 42.99 988.93 45.01
  C 994.36 47.15 997.82 44.78 1001.86 41.50
  A 1.64 1.64 0.0 0 1 1004.16 41.73
  L 1006.40 44.46
  A 1.65 1.64 -40.4 0 1 1006.21 46.73
  Q 996.28 55.48 984.65 50.34
  C 977.50 47.18 973.87 40.35 973.70 32.81
  C 973.53 25.27 976.85 18.28 983.84 14.80
  Q 995.22 9.13 1005.54 17.42
  A 1.65 1.64 37.8 0 1 1005.84 19.68
  L 1003.72 22.51
  A 1.64 1.64 0.0 0 1 1001.43 22.84
  C 997.25 19.75 993.69 17.54 988.36 19.93
  C 983.33 22.17 980.62 27.01 980.75 32.65
  Z"
/>
<path fill="#00356a" d="
  M 247.91 12.95
  Q 249.24 12.94 250.22 13.11
  A 1.66 1.65 83.6 0 1 251.47 14.12
  L 266.40 50.02
  A 1.14 1.14 0.0 0 1 265.35 51.60
  L 261.43 51.60
  A 2.15 2.15 0.0 0 1 259.44 50.27
  L 256.80 43.92
  A 1.71 1.69 -10.3 0 0 255.28 42.88
  Q 254.15 42.85 247.99 42.86
  Q 241.83 42.88 240.70 42.91
  A 1.71 1.69 10.0 0 0 239.19 43.97
  L 236.58 50.33
  A 2.15 2.15 0.0 0 1 234.60 51.67
  L 230.68 51.69
  A 1.14 1.14 0.0 0 1 229.62 50.12
  L 244.36 14.14
  A 1.66 1.65 -83.9 0 1 245.61 13.13
  Q 246.59 12.95 247.91 12.95
  Z
  M 242.38 36.02
  A 0.70 0.70 0.0 0 0 243.04 36.96
  L 253.32 36.80
  A 0.70 0.70 0.0 0 0 253.96 35.84
  L 248.61 22.78
  A 0.70 0.70 0.0 0 0 247.31 22.80
  L 242.38 36.02
  Z"
/>
<path fill="#00356a" d="
  M 296.35 45.43
  C 301.83 45.42 305.16 41.58 305.24 36.23
  Q 305.27 34.24 305.19 13.95
  A 0.90 0.89 90.0 0 1 306.08 13.05
  L 310.99 13.05
  A 0.84 0.83 89.7 0 1 311.82 13.88
  Q 311.95 22.50 311.94 33.74
  C 311.93 43.96 308.02 52.13 296.37 52.16
  C 284.72 52.19 280.76 44.05 280.70 33.83
  Q 280.62 22.59 280.70 13.97
  A 0.84 0.83 -90.0 0 1 281.53 13.14
  L 286.44 13.11
  A 0.90 0.89 89.7 0 1 287.33 14.00
  Q 287.37 34.29 287.41 36.28
  C 287.52 41.64 290.88 45.45 296.35 45.43
  Z"
/>
<path fill="#00356a" d="
  M 330.66 13.74
  A 0.75 0.75 0.0 0 1 331.41 12.99
  L 345.63 12.99
  A 18.75 18.53 -0.0 0 1 364.38 31.52
  L 364.38 33.04
  A 18.75 18.53 -0.0 0 1 345.63 51.57
  L 331.41 51.57
  A 0.75 0.75 0.0 0 1 330.66 50.82
  L 330.66 13.74
  Z
  M 337.45 20.26
  L 337.61 44.22
  A 0.88 0.88 0.0 0 0 338.50 45.09
  L 345.28 45.05
  A 12.32 12.09 -0.4 0 0 357.52 32.87
  L 357.50 31.33
  A 12.32 12.09 -0.4 0 0 345.10 19.33
  L 338.32 19.37
  A 0.88 0.88 0.0 0 0 337.45 20.26
  Z"
/>
<path fill="#00356a" d="
  M 405.15 30.05
  L 405.14 34.03
  A 0.96 0.96 0.0 0 1 404.18 34.99
  L 388.86 34.97
  A 0.69 0.69 0.0 0 0 388.17 35.66
  L 388.17 44.09
  A 0.86 0.86 0.0 0 0 389.02 44.95
  L 406.99 44.96
  A 0.82 0.82 0.0 0 1 407.81 45.78
  L 407.80 50.80
  A 0.82 0.82 0.0 0 1 406.98 51.62
  L 382.18 51.60
  A 0.84 0.84 0.0 0 1 381.34 50.76
  L 381.37 14.38
  A 1.17 1.17 0.0 0 1 382.48 13.21
  Q 394.66 12.67 406.23 13.59
  A 1.21 1.21 0.0 0 1 407.35 14.80
  L 407.35 17.87
  A 1.41 1.41 0.0 0 1 405.94 19.28
  L 389.69 19.26
  A 1.59 1.59 0.0 0 0 388.10 20.85
  L 388.10 27.53
  A 1.51 1.50 -90.0 0 0 389.59 29.04
  L 404.15 29.05
  A 1.00 1.00 0.0 0 1 405.15 30.05
  Z"
/>
<path fill="#00356a" d="
  M 474.62 30.03
  L 474.62 34.02
  A 0.96 0.96 0.0 0 1 473.66 34.98
  L 458.30 34.98
  A 0.69 0.69 0.0 0 0 457.61 35.67
  L 457.61 44.12
  A 0.86 0.86 0.0 0 0 458.47 44.98
  L 476.48 44.98
  A 0.82 0.82 0.0 0 1 477.30 45.80
  L 477.30 50.83
  A 0.82 0.82 0.0 0 1 476.48 51.65
  L 451.61 51.65
  A 0.84 0.84 0.0 0 1 450.77 50.81
  L 450.77 14.34
  A 1.17 1.17 0.0 0 1 451.89 13.17
  Q 464.10 12.62 475.70 13.53
  A 1.22 1.21 2.3 0 1 476.82 14.74
  L 476.82 17.82
  A 1.41 1.41 0.0 0 1 475.41 19.23
  L 459.12 19.23
  A 1.59 1.59 0.0 0 0 457.53 20.82
  L 457.53 27.52
  A 1.51 1.50 -90.0 0 0 459.03 29.03
  L 473.62 29.03
  A 1.00 1.00 0.0 0 1 474.62 30.03
  Z"
/>
<path fill="#72b64d" d="
  M 538.97 35.91
  Q 539.03 35.91 539.09 35.89
  A 0.29 0.29 0.0 0 0 539.27 35.75
  L 550.15 14.53
  A 2.65 2.64 -76.3 0 1 552.50 13.09
  L 556.46 13.09
  A 1.66 1.65 -90.0 0 1 558.11 14.75
  L 558.11 50.23
  A 1.48 1.48 0.0 0 1 556.63 51.71
  L 552.46 51.71
  A 1.46 1.45 90.0 0 1 551.01 50.25
  L 551.01 28.37
  A 0.35 0.35 0.0 0 0 550.42 28.12
  Q 549.77 28.78 549.22 29.94
  Q 546.99 34.61 542.95 42.73
  Q 541.84 44.97 540.36 46.86
  Q 539.79 47.59 538.97 47.59
  Q 538.14 47.59 537.57 46.86
  Q 536.09 44.97 534.98 42.73
  Q 530.94 34.61 528.71 29.94
  Q 528.16 28.78 527.51 28.12
  A 0.35 0.35 0.0 0 0 526.92 28.37
  L 526.93 50.25
  A 1.46 1.45 90.0 0 1 525.48 51.71
  L 521.31 51.72
  A 1.48 1.48 0.0 0 1 519.83 50.24
  L 519.81 14.76
  A 1.66 1.65 90.0 0 1 521.46 13.10
  L 525.42 13.09
  A 2.65 2.64 76.3 0 1 527.77 14.53
  L 538.66 35.75
  A 0.29 0.29 0.0 0 0 538.84 35.89
  Q 538.90 35.91 538.97 35.91
  Z"
/>
<path fill="#72b64d" d="
  M 759.60 51.20
  L 759.60 13.59
  A 0.55 0.55 0.0 0 1 760.15 13.04
  L 784.95 13.04
  A 1.19 1.18 90.0 0 1 786.13 14.23
  L 786.13 18.21
  A 1.42 1.41 90.0 0 1 784.72 19.63
  L 767.66 19.63
  A 1.01 1.00 0.0 0 0 766.65 20.63
  L 766.65 27.65
  A 1.09 1.08 0.0 0 0 767.74 28.73
  L 782.98 28.73
  A 1.22 1.22 0.0 0 1 784.20 29.95
  L 784.20 33.84
  A 1.17 1.17 0.0 0 1 783.03 35.01
  L 767.43 35.01
  A 0.80 0.79 0.0 0 0 766.63 35.80
  L 766.63 42.99
  A 1.86 1.86 0.0 0 0 768.49 44.85
  L 785.36 44.85
  A 1.43 1.43 0.0 0 1 786.79 46.28
  L 786.79 49.84
  A 1.46 1.46 0.0 0 1 785.43 51.30
  Q 772.69 52.11 759.82 51.44
  A 0.24 0.23 -88.8 0 1 759.60 51.20
  Z"
/>
<path fill="#72b64d" d="
  M 828.65 35.99
  L 828.65 14.71
  A 1.53 1.53 0.0 0 1 830.12 13.18
  L 834.05 13.03
  A 1.59 1.59 0.0 0 1 835.70 14.54
  Q 836.37 27.22 836.33 30.00
  Q 836.05 48.03 836.04 50.34
  A 1.23 1.22 -10.5 0 1 835.25 51.48
  C 831.78 52.77 829.52 51.51 827.26 48.44
  Q 817.49 35.17 812.36 27.68
  Q 812.03 27.20 811.39 26.68
  A 0.33 0.33 0.0 0 0 810.85 26.95
  L 811.72 49.83
  A 2.06 2.05 -1.2 0 1 809.66 51.97
  L 805.75 51.97
  A 1.81 1.80 -0.0 0 1 803.94 50.17
  L 803.94 14.78
  A 1.58 1.58 0.0 0 1 805.06 13.27
  Q 810.07 11.75 812.47 15.56
  Q 818.82 25.61 827.72 36.32
  A 0.53 0.52 25.2 0 0 828.65 35.99
  Z"
/>
<path fill="#72b64d" d="
  M 866.76 13.16
  Q 873.51 13.13 880.14 13.10
  A 1.85 1.85 0.0 0 1 881.99 14.95
  L 881.99 17.82
  A 1.84 1.84 0.0 0 1 880.15 19.66
  L 871.26 19.66
  A 0.60 0.60 0.0 0 0 870.66 20.26
  L 870.32 50.74
  A 0.85 0.85 0.0 0 1 869.72 51.54
  Q 869.19 51.70 866.71 51.69
  Q 864.22 51.69 863.69 51.53
  A 0.85 0.85 0.0 0 1 863.09 50.73
  L 862.85 20.25
  A 0.60 0.60 0.0 0 0 862.25 19.65
  L 853.36 19.62
  A 1.84 1.84 0.0 0 1 851.52 17.77
  L 851.53 14.90
  A 1.85 1.85 0.0 0 1 853.39 13.06
  Q 860.01 13.11 866.76 13.16
  Z"
/>
<path fill="#00356a" d="
  M 1097.96 39.25
  L 1104.93 50.11
  A 0.96 0.95 73.7 0 1 1104.13 51.58
  L 1100.07 51.58
  A 3.32 3.32 0.0 0 1 1097.28 50.06
  L 1091.44 40.96
  A 3.18 3.18 0.0 0 0 1088.77 39.51
  L 1083.40 39.51
  A 0.85 0.85 0.0 0 0 1082.55 40.36
  L 1082.55 50.63
  A 0.84 0.84 0.0 0 1 1081.71 51.47
  L 1076.68 51.47
  A 0.86 0.86 0.0 0 1 1075.82 50.61
  L 1075.82 13.74
  A 0.65 0.65 0.0 0 1 1076.49 13.09
  Q 1082.95 13.22 1088.49 13.08
  C 1096.68 12.87 1104.19 15.67 1105.03 24.38
  C 1105.46 28.87 1103.88 34.25 1099.83 36.84
  Q 1098.78 37.51 1098.19 37.96
  A 0.96 0.96 0.0 0 0 1097.96 39.25
  Z
  M 1082.55 20.31
  L 1082.63 32.16
  A 1.09 1.09 0.0 0 0 1083.73 33.25
  L 1091.07 33.20
  A 7.31 6.57 -0.4 0 0 1098.33 26.58
  L 1098.33 25.68
  A 7.31 6.57 -0.4 0 0 1090.97 19.16
  L 1083.63 19.21
  A 1.09 1.09 0.0 0 0 1082.55 20.31
  Z"
/>
<path fill="#00356a" d="
  M 1129.16 50.26
  A 1.35 1.35 0.0 0 1 1127.81 51.61
  L 1123.57 51.61
  A 1.19 1.18 90.0 0 1 1122.39 50.42
  L 1122.39 13.45
  A 0.41 0.41 0.0 0 1 1122.79 13.04
  Q 1128.86 12.83 1138.17 13.25
  C 1148.30 13.71 1153.23 22.03 1150.38 31.36
  C 1147.46 40.87 1137.65 40.12 1129.88 39.77
  A 0.69 0.69 0.0 0 0 1129.16 40.46
  L 1129.16 50.26
  Z
  M 1129.24 20.37
  L 1129.30 32.29
  A 1.10 1.10 0.0 0 0 1130.41 33.38
  L 1137.18 33.35
  A 7.29 6.60 -0.3 0 0 1144.43 26.71
  L 1144.43 25.79
  A 7.29 6.60 -0.3 0 0 1137.10 19.23
  L 1130.33 19.26
  A 1.10 1.10 0.0 0 0 1129.24 20.37
  Z"
/>
<path fill="#00356a" d="
  M 1243.11 37.90
  A 0.96 0.96 0.0 0 0 1242.88 39.19
  L 1249.88 50.02
  A 0.95 0.95 0.0 0 1 1249.08 51.49
  L 1245.03 51.51
  A 3.32 3.32 0.0 0 1 1242.23 49.99
  L 1236.37 40.92
  A 3.18 3.18 0.0 0 0 1233.70 39.47
  L 1228.34 39.49
  A 0.85 0.85 0.0 0 0 1227.49 40.34
  L 1227.52 50.60
  A 0.84 0.84 0.0 0 1 1226.68 51.45
  L 1221.65 51.46
  A 0.86 0.86 0.0 0 1 1220.79 50.60
  L 1220.69 13.76
  A 0.65 0.65 0.0 0 1 1221.36 13.11
  Q 1227.81 13.22 1233.35 13.06
  C 1241.53 12.83 1249.05 15.61 1249.91 24.31
  C 1250.35 28.80 1248.79 34.18 1244.75 36.78
  Q 1243.70 37.45 1243.11 37.90
  Z
  M 1227.75 20.27
  L 1227.83 32.31
  A 0.97 0.97 0.0 0 0 1228.81 33.28
  L 1235.54 33.23
  A 7.74 6.47 -0.4 0 0 1243.23 26.71
  L 1243.23 25.67
  A 7.74 6.47 -0.4 0 0 1235.44 19.25
  L 1228.71 19.30
  A 0.97 0.97 0.0 0 0 1227.75 20.27
  Z"
/>
<path fill="#00356a" d="
  M 1281.73 42.83
  Q 1275.59 42.84 1274.47 42.88
  A 1.70 1.69 10.0 0 0 1272.96 43.93
  L 1270.36 50.27
  A 2.15 2.15 0.0 0 1 1268.38 51.60
  L 1264.47 51.62
  A 1.14 1.13 -79.0 0 1 1263.42 50.05
  L 1278.12 14.20
  A 1.66 1.65 -83.9 0 1 1279.37 13.19
  Q 1280.34 13.02 1281.66 13.01
  Q 1282.99 13.01 1283.96 13.18
  A 1.66 1.65 83.6 0 1 1285.20 14.18
  L 1300.08 49.97
  A 1.14 1.13 78.8 0 1 1299.03 51.54
  L 1295.12 51.54
  A 2.15 2.15 0.0 0 1 1293.14 50.22
  L 1290.51 43.89
  A 1.70 1.69 -10.3 0 0 1288.99 42.85
  Q 1287.87 42.81 1281.73 42.83
  Z
  M 1276.00 36.32
  A 0.44 0.44 0.0 0 0 1276.41 36.92
  L 1287.18 36.84
  A 0.44 0.44 0.0 0 0 1287.58 36.24
  L 1282.11 22.59
  A 0.44 0.44 0.0 0 0 1281.29 22.59
  L 1276.00 36.32
  Z"
/>
<path fill="#00356a" d="
  M 1323.56 13.07
  Q 1329.59 13.06 1337.07 13.16
  A 1.21 1.21 0.0 0 1 1338.27 14.37
  L 1338.27 17.94
  A 1.39 1.39 0.0 0 1 1336.88 19.33
  L 1327.79 19.33
  A 0.89 0.89 0.0 0 0 1326.90 20.22
  L 1326.90 50.17
  A 1.45 1.45 0.0 0 1 1325.64 51.61
  Q 1325.02 51.69 1323.54 51.69
  Q 1322.05 51.69 1321.43 51.60
  A 1.45 1.45 0.0 0 1 1320.18 50.17
  L 1320.21 20.22
  A 0.89 0.89 0.0 0 0 1319.32 19.32
  L 1310.23 19.31
  A 1.39 1.39 0.0 0 1 1308.85 17.92
  L 1308.85 14.35
  A 1.21 1.21 0.0 0 1 1310.05 13.14
  Q 1317.53 13.05 1323.56 13.07
  Z"
/>
<rect fill="#00356a" x="1354.56" y="13.00" width="6.70" height="38.80" rx="1.17"/>
<path fill="#00356a" d="
  M 1394.61 41.15
  Q 1394.76 41.15 1394.89 41.07
  A 0.19 0.15 -10.9 0 0 1394.96 40.99
  L 1405.08 14.48
  A 2.24 2.24 0.0 0 1 1407.17 13.04
  L 1411.30 13.04
  A 0.97 0.96 -79.5 0 1 1412.20 14.35
  L 1398.42 50.19
  A 2.35 2.34 -81.8 0 1 1396.44 51.68
  Q 1395.86 51.73 1394.61 51.73
  Q 1393.35 51.73 1392.78 51.68
  A 2.35 2.34 81.9 0 1 1390.80 50.18
  L 1377.07 14.33
  A 0.97 0.96 79.6 0 1 1377.97 13.02
  L 1382.10 13.02
  A 2.24 2.24 0.0 0 1 1384.19 14.47
  L 1394.27 40.99
  A 0.19 0.15 11.0 0 0 1394.34 41.07
  Q 1394.47 41.15 1394.61 41.15
  Z"
/>
<rect fill="#72b64d" x="4.31" y="26.05" width="144.98" height="8.44" rx="1.31"/>
<rect fill="#72b64d" x="1501.98" y="26.06" width="126.46" height="8.44" rx="1.14"/>
</svg>
